<svg width="18" height="18" viewBox="0 0 18 18" fill="none" xmlns="http://www.w3.org/2000/svg"><path fill-rule="evenodd" clip-rule="evenodd" d="M11.936 0H5.064A5.07 5.07 0 000 5.064v6.872A5.07 5.07 0 005.064 17h6.872A5.07 5.07 0 0017 11.936V5.064A5.07 5.07 0 0011.936 0zm3.354 11.936a3.354 3.354 0 01-3.354 3.354H5.064a3.354 3.354 0 01-3.354-3.354V5.064A3.354 3.354 0 015.064 1.71h6.872a3.354 3.354 0 013.354 3.354v6.872zM4.103 8.5A4.402 4.402 0 018.5 4.103 4.402 4.402 0 0112.897 8.5 4.402 4.402 0 018.5 12.897 4.402 4.402 0 014.103 8.5zM8.5 11.187a2.687 2.687 0 110-5.374 2.687 2.687 0 010 5.374zm5.459-7.05a1.054 1.054 0 11-2.107 0 1.054 1.054 0 012.107 0z" fill="white"/></svg>