<svg width="18" height="18" viewBox="0 0 18 18" fill="none" xmlns="http://www.w3.org/2000/svg"><path fill-rule="evenodd" clip-rule="evenodd" d="M4.217 9.83L.3 8.152c-.398-.17-.401-.816-.004-.992L16.372.036c.34-.15.692.192.618.603l-2.885 15.939c-.068.376-.452.547-.723.32l-3.938-3.284a.586.586 0 00-.795.026l-2.183 2.044c-.253.238-.635.106-.732-.253l-1.517-5.6zm8.928-6.309L5.489 8.937c-.293.208-.431.615-.337.996l.828 3.34c.059.237.358.213.387-.032l.215-1.832c.04-.345.184-.662.406-.9l6.318-6.745c.118-.126-.024-.34-.161-.243z" fill="white"/><path d="M5.49 8.937l7.655-5.416c.137-.097.279.117.16.243l-6.317 6.745a1.589 1.589 0 00-.406.9l-.215 1.832c-.029.245-.328.27-.387.032l-.828-3.34c-.094-.381.044-.788.337-.996z" fill="#E6E6E6"/></svg>