<svg width="18" height="18" viewBox="0 0 18 18" fill="none" xmlns="http://www.w3.org/2000/svg"><path d="M14.63 10.358c.565.573 1.16 1.111 1.666 1.741.223.28.435.569.596.894.23.462.022.97-.376.998l-2.477-.002c-.639.055-1.148-.212-1.577-.666-.342-.363-.66-.75-.99-1.124a2.373 2.373 0 00-.445-.412c-.338-.228-.632-.159-.825.208-.197.373-.242.786-.26 1.201-.027.606-.204.766-.79.793-1.251.062-2.44-.135-3.543-.792-.973-.578-1.728-1.395-2.385-2.32C1.945 9.076.966 7.097.086 5.062c-.198-.458-.053-.704.433-.713a64.637 64.637 0 012.425-.001c.328.005.546.2.672.523A15.83 15.83 0 005.26 8.037c.179.262.36.524.62.709.288.204.506.136.641-.196a2.27 2.27 0 00.143-.664c.064-.777.073-1.553-.04-2.327-.069-.483-.33-.796-.794-.887-.237-.047-.202-.139-.087-.279.199-.242.386-.393.76-.393H9.3c.44.09.539.296.599.757l.002 3.232c-.004.178.086.708.395.826.248.084.41-.122.56-.285.67-.74 1.148-1.613 1.575-2.518.19-.398.353-.81.51-1.224.118-.306.301-.457.633-.45l2.694.003c.08 0 .161 0 .238.014.454.08.579.284.438.745-.22.723-.65 1.325-1.07 1.93-.45.646-.93 1.27-1.376 1.92-.409.594-.377.893.132 1.409z" fill="white"/></svg>