<svg width="625" height="570" viewBox="0 0 625 570" fill="none" xmlns="http://www.w3.org/2000/svg"><mask id="a" style="mask-type:alpha" maskUnits="userSpaceOnUse" x="0" y="0" width="625" height="570"><path d="M0 0h625v560c0 5.523-4.477 10-10 10H10c-5.523 0-10-4.477-10-10V0z" fill="#55ADA8"/></mask><g mask="url(#a)"><path fill-rule="evenodd" clip-rule="evenodd" d="M48.276 307.782c8.127-76.195 444.143-223.259 525.088-151.089 80.945 72.171 60.456 223.972-109.175 258.656-169.63 34.684-424.039-31.372-415.913-107.567z" fill="#DDE3E9" fill-opacity=".06"/><path fill-rule="evenodd" clip-rule="evenodd" d="M513.247 523.612c-72.698 24.221-387.416-311.473-355.337-415.066 32.08-103.593 178.699-147.937 280.639-7.987 101.94 139.949 147.396 398.833 74.698 423.053z" fill="#DDE3E9" fill-opacity=".06"/><path d="M430.859 122.451c-26.648-4.469-50.226-1.362-72.084 9.494-18.06 8.969-35.254 23.567-52.562 44.625-14.543 17.697-27.807 38.164-40.631 57.959-15.074 23.262-30.66 47.32-48.11 66.384-31.498 34.421-44.169 63.284-37.665 85.786 5.642 19.528 25.469 34.074 58.935 43.227 33.666 9.212 73.478 10.826 100.95 10.559 32.215-.313 65.951-3.447 90.246-8.385 23.535-4.782 53.639-12.576 77.738-30.558 15.571-11.617 28.512-27.309 38.463-46.639 4.325-8.401 8.015-17.324 11.047-26.709 3.265-10.107 5.769-20.746 7.485-31.845 3.049-19.709 1.539-39.79-4.49-59.676-5.699-18.808-15.145-36.591-28.072-52.851-25.881-32.553-62.784-54.922-101.25-61.371zm100.449 62.009c12.844 16.158 22.23 33.828 27.89 52.512 5.983 19.739 7.482 39.665 4.457 59.224-3.294 21.292-9.495 40.887-18.427 58.24-9.88 19.189-22.722 34.762-38.166 46.287-12.574 9.381-32.728 21.312-77.327 30.375-24.237 4.925-57.9 8.053-90.054 8.364-27.407.267-67.119-1.344-100.671-10.522-33.096-9.055-52.684-23.362-58.222-42.524-2.563-8.871-2.079-18.764 1.434-29.638 5.254-16.263 17.281-34.715 36.006-55.172 17.506-19.129 33.118-43.222 48.215-66.519 12.809-19.771 26.057-40.211 40.564-57.865 17.452-21.238 34.046-35.334 52.225-44.362 21.658-10.755 45.032-13.831 71.459-9.398 38.218 6.405 74.892 28.639 100.617 60.998z" fill="white" fill-opacity=".5"/><path d="M363.712 144.759c-16.981 8.406-33.102 22.094-49.281 41.846-13.523 16.494-25.8 35.572-37.676 54.019-6.073 9.437-12.352 19.19-18.685 28.421a477.858 477.858 0 01-5.43 7.757c-7.443 10.4-14.353 19.042-21.134 26.428-35.865 39.119-45.713 70.37-29.269 92.889 8.859 12.09 25.253 21.504 48.724 27.989 23.515 6.552 54.245 10.036 88.864 10.08 32.172.042 66.094-2.934 90.743-7.958 22.036-4.485 50.227-11.788 72.804-28.611 21.067-15.69 37.068-39.513 46.493-68.687 3.031-9.382 5.382-19.325 7.004-29.722 2.847-18.196 1.529-36.74-3.913-55.12-5.155-17.405-13.758-33.922-25.574-49.098-24.35-31.298-59.369-52.814-96.079-59.034-24.998-4.222-47.107-1.344-67.591 8.801zm162.856 50.864c11.739 15.072 20.284 31.477 25.4 48.758 5.401 18.234 6.706 36.626 3.883 54.672-3.102 19.908-8.925 38.233-17.31 54.46-9.269 17.941-21.31 32.502-35.785 43.282-11.775 8.772-30.643 19.933-72.393 28.428-24.587 5.009-58.432 7.978-90.54 7.938-34.526-.042-65.159-3.516-88.589-10.041-23.242-6.418-39.45-15.708-48.17-27.606-8.105-11.096-9.647-24.403-4.668-39.814 4.922-15.237 16.225-32.534 33.865-51.778 6.808-7.412 13.744-16.089 21.213-26.524a511.68 511.68 0 005.442-7.775c6.34-9.239 12.625-19.001 18.701-28.444 11.857-18.424 24.118-37.475 37.605-53.924 16.085-19.638 32.095-33.237 48.943-41.578 20.287-10.044 42.188-12.892 66.959-8.707 36.462 6.175 71.25 27.552 95.444 58.653z" fill="white" fill-opacity=".5"/><path d="M368.644 157.577c-15.902 7.844-30.948 20.624-46.001 39.067-12.51 15.301-23.808 32.994-34.735 50.105-5.708 8.937-11.61 18.178-17.581 26.911a416.075 416.075 0 01-5.056 7.243c-6.904 9.667-13.358 17.728-19.729 24.643-17.449 18.986-28.432 36.125-32.658 50.94-3.865 13.562-2.173 25.518 5.029 35.54 8.156 11.26 23.384 20.094 45.266 26.259 27.945 7.872 60.614 9.553 83.102 9.575 30.035.03 61.778-2.775 84.912-7.507 20.539-4.185 46.811-11 67.865-26.662 19.726-14.662 34.709-36.931 43.514-64.195 2.799-8.665 4.976-17.838 6.482-27.43 2.686-16.977 1.475-34.285-3.602-51.442-4.813-16.265-12.877-31.718-23.963-45.923-22.755-29.225-55.47-49.355-89.761-55.231-23.333-3.971-43.969-1.32-63.084 8.107zm152.043 47.755c11.006 14.107 19.007 29.443 23.788 45.586 5.035 17.007 6.237 34.165 3.571 50.991-1.496 9.541-3.659 18.658-6.444 27.277-8.74 27.056-23.596 49.154-43.152 63.688-10.975 8.162-28.56 18.55-67.459 26.481-23.071 4.716-54.738 7.517-84.706 7.483-22.424-.022-54.994-1.696-82.825-9.535-21.654-6.102-36.699-14.805-44.713-25.869-7.009-9.755-8.649-21.417-4.876-34.661a62.17 62.17 0 01.63-2.071c4.582-14.184 15.268-30.472 31.793-48.461 6.398-6.946 12.88-15.037 19.811-24.742a428.09 428.09 0 005.068-7.26c5.979-8.746 11.888-17.995 17.6-26.938 10.913-17.086 22.195-34.753 34.665-50.009 14.959-18.33 29.897-31.019 45.663-38.796 18.914-9.327 39.344-11.952 62.461-8.014 34.041 5.831 66.523 25.825 89.125 54.85z" fill="white" fill-opacity=".5"/><path d="M373.588 170.393c-14.818 7.279-28.792 19.15-42.724 36.287-11.501 14.112-21.828 30.43-31.816 46.211-5.335 8.43-10.853 17.145-16.457 25.377a392.392 392.392 0 01-4.682 6.729c-6.372 8.941-12.368 16.418-18.328 22.86-16.201 17.588-26.435 33.44-30.421 47.114-3.664 12.561-2.169 23.649 4.441 32.963 7.414 10.446 21.478 18.696 41.811 24.526 26.044 7.47 56.437 9.055 77.345 9.071 27.895.024 57.456-2.614 79.079-7.055 19.041-3.888 43.4-10.212 62.93-24.712 18.389-13.634 32.347-34.35 40.538-59.703 2.567-7.946 4.569-16.355 5.96-25.137 4.958-30.882-4.146-63.028-25.641-90.515-10.178-13.061-23.01-24.615-37.109-33.414-14.693-9.171-30.282-15.233-46.331-18.017-21.687-3.724-40.851-1.297-58.595 7.415zm104.381 11.477c13.998 8.734 26.739 20.205 36.843 33.174 21.316 27.261 30.349 59.125 25.434 89.723-5.79 36.537-22.161 66.433-46.099 84.18-10.171 7.553-26.474 17.169-62.523 24.531-21.558 4.427-51.045 7.056-78.871 7.033-20.844-.014-51.131-1.593-77.064-9.031-20.099-5.765-33.98-13.883-41.256-24.134-6.417-9.044-7.864-19.837-4.291-32.083 3.938-13.524 14.101-29.235 30.193-46.707 5.991-6.474 12.012-13.983 18.41-22.959a352.06 352.06 0 004.695-6.75c5.614-8.246 11.137-16.971 16.478-25.406 9.972-15.754 20.283-32.044 31.744-46.112 13.834-17.022 27.696-28.803 42.382-36.013 17.543-8.616 36.504-11.012 57.965-7.322 15.913 2.762 31.377 8.777 45.96 17.876z" fill="white" fill-opacity=".5"/><path d="M378.527 183.213c-13.735 6.713-26.64 17.674-39.444 33.507-10.5 12.936-19.866 27.889-28.917 42.347-4.957 7.914-10.08 16.097-15.311 23.817a323.586 323.586 0 01-4.312 6.217c-5.84 8.216-11.378 15.106-16.926 21.074-14.951 16.184-24.432 30.751-28.177 43.276-3.454 11.548-2.162 21.775 3.84 30.394 6.715 9.643 19.618 17.313 38.352 22.794 24.144 7.068 52.257 8.558 71.588 8.568 25.756.015 53.139-2.455 73.246-6.601 17.541-3.589 39.987-9.423 57.994-22.761 17.05-12.606 29.989-31.768 37.562-55.211 2.336-7.232 4.161-14.869 5.439-22.844 4.653-28.509-3.77-58.221-23.718-83.662-9.398-12.045-21.251-22.723-34.282-30.872-13.599-8.505-28.012-14.144-42.842-16.757-20.025-3.484-37.719-1.286-54.092 6.714zm96.393 10.905c12.93 8.088 24.692 18.679 34.019 30.633 19.767 25.214 28.119 54.645 23.511 82.87-5.38 33.576-20.51 61.065-42.598 77.397-9.372 6.942-24.391 15.785-57.589 22.583-20.05 4.135-47.351 6.596-73.041 6.58-19.265-.006-47.275-1.491-71.302-8.525-18.503-5.414-31.219-12.952-37.797-22.4-5.812-8.35-7.057-18.281-3.7-29.517 3.701-12.377 13.105-26.804 27.947-42.872 5.579-5.998 11.143-12.926 17.009-21.177a328.52 328.52 0 004.324-6.234c5.24-7.736 10.369-15.927 15.331-23.846 9.04-14.434 18.387-29.36 28.847-42.248 12.708-15.717 25.497-26.586 39.097-33.232 16.169-7.904 33.659-10.072 53.464-6.63 14.701 2.593 28.99 8.185 42.478 16.618z" fill="white" fill-opacity=".5"/><path d="M383.489 196.031c-12.655 6.147-24.485 16.2-36.167 30.727-9.508 11.764-17.917 25.365-26.048 38.517-4.567 7.386-9.289 15.028-14.14 22.225a278.724 278.724 0 01-3.937 5.703c-5.239 7.388-10.317 13.698-15.525 19.292-13.72 14.737-22.459 28.008-25.957 39.414-3.234 10.544-2.138 19.91 3.263 27.848 6.019 8.843 17.757 15.932 34.891 21.066 22.234 6.662 48.073 8.06 65.833 8.061 23.617.002 48.821-2.296 67.413-6.149 16.046-3.294 36.575-8.635 53.055-20.812 15.713-11.578 27.63-29.187 34.586-50.72 2.104-6.51 3.754-13.385 4.918-20.554 4.345-26.133-3.393-53.41-21.791-76.811-8.616-11.032-19.494-20.829-31.454-28.33-12.5-7.841-25.74-13.055-39.349-15.496-18.372-3.237-34.594-1.266-49.591 6.019zm88.396 10.338c11.861 7.441 22.648 17.154 31.193 28.095 18.221 23.172 25.886 50.167 21.59 76.014-4.965 30.617-18.854 55.694-39.101 70.615-8.572 6.333-22.305 14.403-52.657 20.632-18.53 3.84-43.653 6.133-67.206 6.13-17.691 0-43.422-1.392-65.537-8.019-16.905-5.067-28.458-12.017-34.341-20.663-5.291-7.776-6.315-16.599-3.129-26.972 3.455-11.272 12.114-24.394 25.729-39.018 5.237-5.627 10.343-11.971 15.608-19.397a272.65 272.65 0 003.952-5.724c4.86-7.216 9.587-14.863 14.161-22.258 8.115-13.125 16.507-26.695 25.975-38.411 11.586-14.408 23.299-24.368 35.815-30.449 14.797-7.189 30.817-9.132 48.968-5.937 13.478 2.427 26.594 7.593 38.98 15.362z" fill="white" fill-opacity=".5"/><path d="M388.45 208.827c-11.563 5.585-22.323 14.735-32.893 27.974-8.524 10.607-15.989 22.863-23.206 34.721-4.168 6.848-8.48 13.933-12.94 20.597a239.425 239.425 0 01-3.563 5.188c-4.635 6.561-9.386 12.449-14.12 17.507-24.174 25.822-31.06 45.727-21.051 60.854 5.323 8.045 15.897 14.55 31.436 19.336 20.319 6.26 43.882 7.564 60.075 7.558 21.486-.005 44.504-2.134 61.581-5.698 14.547-2.996 33.163-7.846 48.12-18.861 14.344-10.529 25.244-26.622 31.612-46.335 1.86-5.757 3.334-11.828 4.394-18.155 3.977-23.747-3.08-48.594-19.87-69.962-7.879-10.03-17.781-18.947-28.635-25.798-11.42-7.205-23.482-11.991-35.845-14.227-16.707-3.023-31.454-1.286-45.095 5.301zm80.391 9.793c10.756 6.786 20.569 15.625 28.377 25.563 16.607 21.137 23.589 45.701 19.663 69.16-1.053 6.279-2.513 12.298-4.359 18.013-6.301 19.505-17.076 35.423-31.242 45.822-7.773 5.726-20.222 13.02-47.722 18.685-17.012 3.549-39.953 5.674-61.373 5.675-29.208.011-48.624-4.077-59.77-7.512-15.304-4.715-25.693-11.081-30.88-18.924-4.672-7.063-5.51-15.241-2.467-24.659 3.279-10.153 11.067-21.744 23.411-34.931 4.766-5.09 9.546-11.016 14.208-17.615a239.272 239.272 0 003.578-5.212c4.469-6.682 8.788-13.776 12.962-20.633 7.2-11.827 14.646-24.057 23.129-34.612 10.474-13.12 21.117-22.178 32.54-27.694 13.437-6.491 27.981-8.197 44.465-5.218 12.232 2.219 24.17 6.958 35.48 14.092z" fill="white" fill-opacity=".5"/><path d="M393.421 221.648c-10.448 5.01-20.141 13.248-29.635 25.189-7.524 9.463-14.048 20.375-20.36 30.929-3.771 6.309-7.672 12.83-11.74 18.961a190.922 190.922 0 01-3.19 4.674c-4.106 5.838-8.388 11.128-12.717 15.721-11.391 12.085-18.418 22.462-21.478 31.723-2.864 8.644-2.178 16.073 2.067 22.722 4.694 7.35 13.847 13.109 27.976 17.609 10.152 3.233 27.818 7.078 54.318 7.053 19.346-.014 40.186-1.975 55.745-5.247 13.048-2.698 29.748-7.059 43.182-16.915 13.003-9.498 22.883-24.044 28.639-41.86a114.106 114.106 0 003.867-15.846c3.66-21.371-2.715-43.783-17.947-63.113-7.105-9.015-16.027-17.056-25.81-23.256-10.327-6.547-21.211-10.906-32.353-12.966-15.023-2.773-28.297-1.263-40.564 4.622zm72.377 9.214c9.685 6.139 18.519 14.098 25.552 23.025 15.048 19.098 21.35 41.225 17.741 62.304-4.242 24.77-15.642 45.032-32.104 57.053-6.974 5.117-18.137 11.642-42.788 16.738-15.498 3.26-36.259 5.21-55.537 5.225-26.371.027-43.925-3.797-54.007-7.007-13.699-4.361-22.928-10.144-27.424-17.183-4.029-6.307-4.696-13.371-2.039-21.597l.082-.253c3.013-9.116 9.963-19.37 21.25-31.341 4.362-4.629 8.674-9.956 12.808-15.836a188.179 188.179 0 003.204-4.698c4.079-6.152 7.986-12.682 11.764-19 6.295-10.524 12.803-21.409 20.285-30.817 9.395-11.815 18.969-19.959 29.273-24.903 12.066-5.786 25.134-7.268 39.947-4.532 11.017 2.035 21.779 6.347 31.993 12.822z" fill="white" fill-opacity=".5"/><path d="M372.02 256.866c-6.562 8.328-12.164 17.928-17.585 27.212-3.352 5.745-6.82 11.682-10.474 17.253a157.518 157.518 0 01-2.815 4.16c-3.586 5.124-7.393 9.814-11.312 13.937-19.568 20.579-25.212 35.841-17.771 48.036 3.996 6.543 12.015 11.739 24.518 15.882 9.084 3.01 24.884 6.589 48.565 6.551 17.064-.024 35.725-1.816 49.915-4.795 11.6-2.434 26.43-6.337 38.243-14.963 11.665-8.466 20.53-21.467 25.672-37.386a100.698 100.698 0 003.339-13.534c3.345-18.993-2.345-38.975-16.023-56.263-6.331-8.001-14.277-15.164-22.982-20.713-9.232-5.885-18.941-9.826-28.857-11.705-24.745-4.697-44.587 3.671-62.433 26.328zm113.473 6.722c13.491 17.055 19.109 36.748 15.815 55.449-3.84 21.818-14 39.671-28.603 50.27-6.127 4.471-15.961 10.192-37.853 14.787-14.125 2.968-32.708 4.75-49.704 4.774-23.545.039-39.231-3.514-48.241-6.497-12.264-4.062-20.104-9.113-23.967-15.445-7.166-11.737-1.559-26.605 17.639-46.795 3.955-4.157 7.794-8.887 11.41-14.051a150.394 150.394 0 002.831-4.188c3.67-5.595 7.142-11.545 10.503-17.297 5.401-9.256 10.989-18.824 17.504-27.095 17.583-22.322 37.107-30.57 61.439-25.96 19.06 3.613 38.212 15.595 51.227 32.048z" fill="white" fill-opacity=".5"/><path d="M380.259 266.889c-5.612 7.21-10.308 15.516-14.848 23.55-2.919 5.16-5.935 10.497-9.166 15.491a123.787 123.787 0 01-2.441 3.646c-3.075 4.421-6.408 8.507-9.909 12.147-17.101 17.789-22.228 31.015-16.133 41.623 3.3 5.745 10.189 10.374 21.06 14.159 11.321 3.94 26.525 6.086 42.812 6.045 14.914-.033 31.393-1.655 44.083-4.344 10.735-2.276 23.085-5.601 33.308-13.012 10.327-7.434 18.176-18.891 22.705-32.913a87.42 87.42 0 002.808-11.223c3.029-16.616-1.977-34.162-14.099-49.412-11.611-14.612-28.628-25.308-45.52-28.615-21.828-4.275-39.196 2.987-54.66 22.858zm99.378 6.395c11.936 15.017 16.869 32.275 13.894 48.592a86.668 86.668 0 01-2.773 11.095c-4.462 13.81-12.181 25.09-22.33 32.395-10.069 7.302-22.289 10.588-32.919 12.84-12.624 2.674-29.022 4.29-43.871 4.322-16.177.041-31.261-2.087-42.475-5.989-10.627-3.699-17.337-8.181-20.509-13.701-3.673-6.389-6.011-17.531 15.983-40.401 3.54-3.682 6.908-7.811 10.01-12.273a121.826 121.826 0 002.461-3.675c3.248-5.022 6.271-10.37 9.197-15.542 4.522-8 9.201-16.276 14.765-23.426 15.2-19.53 32.25-26.676 53.657-22.483 16.656 3.26 33.444 13.818 44.91 28.246z" fill="white" fill-opacity=".5"/><path d="M408.319 260.047c-7.172 3.298-13.65 8.815-19.813 16.862-4.679 6.113-8.488 13.148-12.169 19.956-2.466 4.557-5.013 9.266-7.8 13.661a93.062 93.062 0 01-2.066 3.129 79.158 79.158 0 01-8.503 10.363c-14.849 15.212-19.318 26.07-14.495 35.206 2.614 4.948 8.371 9.015 17.602 12.438 9.785 3.628 22.948 5.595 37.061 5.544 12.768-.041 27.065-1.496 38.251-3.892 8.581-1.842 19.559-4.761 28.369-11.063 9.002-6.442 15.841-16.363 19.752-28.471a74.033 74.033 0 002.263-8.881c2.718-14.233-1.608-29.35-12.174-42.566-10.061-12.581-24.712-21.857-39.195-24.813-10.064-2.053-18.921-1.226-27.083 2.527zm65.472 22.927c5.124 6.405 8.765 13.203 10.82 20.203 2.114 7.195 2.5 14.441 1.149 21.532-3.029 15.873-10.702 28.908-21.604 36.709-4.545 3.253-11.836 7.431-27.988 10.896-11.118 2.385-25.336 3.83-38.039 3.87-13.994.05-27.031-1.897-36.705-5.482-8.984-3.329-14.562-7.241-17.05-11.955-1.999-3.785-2.284-7.913-.77-12.598 1.957-6.059 6.925-13.043 15.094-21.415a80.465 80.465 0 008.615-10.495 95.247 95.247 0 002.087-3.165c2.807-4.424 5.364-9.152 7.838-13.72 3.662-6.771 7.451-13.77 12.082-19.82 12.816-16.74 27.392-22.777 45.871-19.006 14.256 2.905 28.685 12.047 38.6 24.446z" fill="white" fill-opacity=".5"/><path d="M396.765 286.918c-3.773 5.038-6.711 10.834-9.551 16.439-1.989 3.925-4.046 7.982-6.377 11.753a63.087 63.087 0 01-1.691 2.614 59.683 59.683 0 01-7.096 8.572c-12.541 12.578-16.391 21.186-12.864 28.783 1.931 4.162 6.556 7.669 14.141 10.722 8.233 3.312 19.354 5.104 31.317 5.044 10.628-.047 22.747-1.334 32.418-3.441 7.522-1.639 16.191-4.005 23.43-9.111 7.677-5.416 13.507-13.79 16.802-23.991a60.313 60.313 0 001.717-6.571c2.443-12.026-1.101-24.376-10.252-35.72-8.507-10.548-20.794-18.403-32.869-21.009-15.764-3.399-28.561 1.806-39.125 15.916zm71.195 5.735c8.949 11.1 12.423 23.158 10.044 34.875-2.622 12.915-9.051 23.543-18.104 29.932-7.091 5.003-15.636 7.33-23.057 8.947-9.606 2.092-21.643 3.37-32.203 3.417-11.834.059-22.816-1.705-30.928-4.972-7.331-2.949-11.778-6.287-13.594-10.204-3.315-7.141.47-15.404 12.66-27.629a61.282 61.282 0 008.934-11.372c2.349-3.808 4.419-7.883 6.417-11.826 2.822-5.568 5.743-11.322 9.46-16.289 4.954-6.616 10.234-11.12 16.144-13.767 6.586-2.95 13.761-3.527 21.942-1.763 11.849 2.558 23.918 10.278 32.285 20.651z" fill="white" fill-opacity=".5"/><path d="M405.044 296.915c-2.89 3.992-4.987 8.585-7.013 13.025-1.488 3.262-3.029 6.631-4.871 9.746-.43.733-.873 1.437-1.316 2.097-1.611 2.411-3.469 4.631-5.685 6.781-10.338 10.032-13.488 16.298-11.238 22.349 1.263 3.397 4.756 6.344 10.68 9.018 6.654 3.004 15.737 4.618 25.576 4.549 8.498-.053 18.436-1.173 26.585-2.989 5.927-1.321 12.761-3.207 18.487-7.159 6.358-4.39 11.187-11.218 13.863-19.502a46.235 46.235 0 001.158-4.272c2.131-9.609-.749-19.595-8.329-28.882-6.953-8.517-16.877-14.948-26.542-17.203-12.868-3.002-23.124 1.069-31.355 12.442zm57.104 5.406c7.375 9.034 10.183 18.72 8.122 28.011-2.208 9.956-7.396 18.175-14.606 23.155-5.578 3.852-12.296 5.7-18.127 7.002-8.081 1.803-17.939 2.912-26.37 2.966-9.695.068-18.626-1.515-25.149-4.458-5.661-2.554-8.978-5.315-10.142-8.443-2.084-5.599 1.001-11.559 10.993-21.255 2.268-2.202 4.171-4.471 5.824-6.944a41.5 41.5 0 001.346-2.145c1.87-3.159 3.42-6.555 4.922-9.84 2.009-4.396 4.083-8.939 6.911-12.851 7.964-11.003 17.872-14.942 30.294-12.048 9.454 2.2 19.169 8.499 25.982 16.85z" fill="white" fill-opacity=".5"/><path d="M413.363 306.903c-2.047 2.994-3.338 6.434-4.585 9.762-.956 2.548-1.942 5.178-3.258 7.584-.314.573-.62 1.087-.939 1.576-1.141 1.766-2.539 3.396-4.272 4.982-7.421 6.801-10.754 10.912-9.621 15.889.605 2.66 2.964 5.062 7.21 7.334 5.038 2.696 12.089 4.138 19.849 4.059 9.213-.088 17.582-1.805 20.754-2.538 4.331-1.001 9.326-2.405 13.539-5.206 5.063-3.365 8.898-8.631 10.947-14.972.212-.657.407-1.326.581-2.009 1.833-7.185-.383-14.808-6.403-22.048-4.166-5.009-11.663-11.155-20.206-13.395-9.822-2.57-17.762.451-23.596 8.982zm43.019 5.071c5.887 7.075 7.97 14.188 6.198 21.139-1.786 6.994-5.728 12.81-11.105 16.383-4.075 2.709-8.963 4.079-13.205 5.058-3.137.727-11.42 2.424-20.533 2.512-7.593.08-14.467-1.319-19.355-3.935-3.915-2.097-6.166-4.335-6.693-6.657a7.165 7.165 0 01.171-3.906c.994-3.077 4.031-6.315 9.144-11.002 1.795-1.648 3.246-3.34 4.436-5.18.329-.507.65-1.045.979-1.642 1.354-2.469 2.351-5.135 3.317-7.715 1.226-3.271 2.494-6.653 4.472-9.545 5.564-8.137 13.131-11.016 22.493-8.566 8.311 2.172 15.616 8.169 19.681 13.056z" fill="white" fill-opacity=".5"/><path d="M421.768 316.892c-1.242 2.034-1.749 4.371-2.239 6.631-.389 1.794-.792 3.651-1.562 5.301-.176.38-.358.72-.557 1.047-.71 1.166-1.61 2.174-2.838 3.166a180.66 180.66 0 01-2.146 1.7c-3.466 2.711-5.756 4.501-5.862 7.674-.066 1.913 1.254 3.936 3.706 5.697 4.306 3.084 10.072 3.652 14.147 3.587 6.017-.091 11.934-1.347 14.925-2.089 2.719-.675 5.865-1.585 8.582-3.244 3.612-2.206 6.313-5.624 8.027-10.154.068-.176.128-.35.186-.529 1.454-4.502-.111-9.453-4.653-14.727-2.961-3.44-8.16-7.76-13.858-9.579-6.836-2.183-12.322-.274-15.858 5.519zm28.941 4.724c4.46 5.176 5.901 9.954 4.285 14.225-1.634 4.312-4.193 7.558-7.603 9.642-2.597 1.586-5.649 2.47-8.292 3.123-2.949.73-8.78 1.967-14.697 2.058-3.924.063-9.458-.476-13.534-3.396-2.167-1.554-3.332-3.269-3.28-4.827.089-2.698 2.117-4.278 5.47-6.905.686-.535 1.392-1.089 2.16-1.71 1.321-1.069 2.293-2.157 3.066-3.429.219-.356.419-.729.612-1.148.817-1.752 1.231-3.667 1.634-5.514.495-2.276.961-4.429 2.111-6.314 3.309-5.421 8.247-7.127 14.675-5.079 5.496 1.758 10.523 5.943 13.393 9.274z" fill="white" fill-opacity=".5"/><path d="M430.437 326.993c-.499 1.169-.23 2.49.032 3.766.207 1.014.404 1.971.21 2.77-.04.17-.097.324-.169.469-.685 1.354-1.97 1.588-3.456 1.858-1.488.273-3.175.578-4.24 2.196-.797 1.214-.783 2.901.042 4.1 1.546 2.247 4.411 3.327 8.518 3.208 2.608-.076 5.675-.628 9.109-1.643 4.348-1.286 6.923-2.736 8.105-4.564.223-.344.392-.702.511-1.069.681-2.109-.331-4.606-3.026-7.45-.612-.647-3.851-3.96-7.452-5.73-2.161-1.06-3.996-1.323-5.458-.784-1.186.45-2.103 1.413-2.726 2.873zm7.735-1.165c2.672 1.312 5.527 3.791 7.163 5.515 2.834 2.989 3.619 5.366 2.395 7.256-1.026 1.588-3.49 2.941-7.532 4.136-3.352.991-6.328 1.529-8.848 1.601-3.738.11-6.311-.822-7.646-2.764-.459-.668-.565-1.582-.315-2.358.069-.211.163-.414.283-.598.824-1.251 2.158-1.494 3.569-1.753 1.533-.279 3.275-.596 4.185-2.404.11-.216.195-.447.253-.693.243-1.02.015-2.134-.203-3.213-.241-1.175-.468-2.285-.095-3.162.508-1.192 1.228-1.968 2.145-2.307 1.182-.439 2.748-.188 4.646.744z" fill="white" fill-opacity=".5"/></g><circle cx="255.243" cy="143.798" r="10.479" stroke="#FFDD29" stroke-width="4"/><circle cx="512.317" cy="376.912" r="17.465" stroke="#FFDD29" stroke-width="7"/><path d="M225.924 403.07l-29.437 12.356" stroke="white" stroke-width="7" stroke-linecap="round"/><path d="M217.383 423.967l-12.355-29.438" stroke="white" stroke-width="7" stroke-linecap="round"/><path d="M528.059 197.375l-14.909 6.258" stroke="white" stroke-width="4" stroke-linecap="round"/><path d="M523.734 207.958l-6.258-14.909" stroke="white" stroke-width="4" stroke-linecap="round"/></svg>