<svg width="1275" height="114" viewBox="0 0 1275 114" fill="none" xmlns="http://www.w3.org/2000/svg"><g opacity=".02"><mask id="a" maskUnits="userSpaceOnUse" x="-2" y="-2" width="1280" height="118" fill="black"><path fill="white" d="M-2-2h1280v118H-2z"/><path d="M125.65 14.716L136.102 112h-34.706l-2.144-69.412L85.852 112H50.744L37.076 43.124 35.066 112H.36l10.452-97.284h45.56L68.03 78.098l10.184-63.382h47.436zm64.29 98.624c-15.276 0-26.532-3.484-33.768-10.452-7.147-7.057-10.72-16.303-10.72-27.738 0-11.167 3.573-20.234 10.72-27.202 7.236-6.968 18.492-10.452 33.768-10.452 10.273 0 18.849 1.697 25.728 5.092 6.968 3.305 12.104 7.817 15.41 13.534 3.305 5.628 4.958 11.97 4.958 19.028 0 11.524-3.842 20.77-11.524 27.738-7.594 6.968-19.118 10.452-34.572 10.452zm.536-22.78c5.806 0 10.139-1.385 12.998-4.154 2.858-2.77 4.288-6.477 4.288-11.122 0-4.377-1.43-7.95-4.288-10.72-2.859-2.859-7.192-4.288-12.998-4.288-5.807 0-10.05 1.385-12.73 4.154-2.68 2.77-4.02 6.387-4.02 10.854 0 4.645 1.34 8.353 4.02 11.122 2.68 2.77 6.923 4.154 12.73 4.154zm86.072-31.892c3.752-13.49 13.087-20.234 28.006-20.234 2.59 0 5.092.179 7.504.536l-4.288 30.016c-6.432-2.412-11.703-3.618-15.812-3.618-5.092 0-8.844 1.519-11.256 4.556-2.412 3.037-3.618 7.102-3.618 12.194v-.134l-.134 8.844c0 6.343.178 13.4.536 21.172H245.46c.714-12.864 1.072-25.013 1.072-36.448 0-11.435-.358-23.673-1.072-36.716 5.896.268 10.407.402 13.534.402 3.305 0 7.816-.134 13.534-.402l4.02 19.832zM389.627 78.5h-43.684c.715 3.93 2.457 7.147 5.226 9.648 2.859 2.412 6.879 3.618 12.06 3.618 3.752 0 7.281-.715 10.586-2.144 3.305-1.519 5.941-3.618 7.906-6.298 5.985 2.948 13.936 6.12 23.852 9.514-2.769 6.253-7.817 11.256-15.142 15.008-7.236 3.663-16.705 5.494-28.408 5.494-15.187 0-26.443-3.484-33.768-10.452-7.236-7.057-10.854-16.303-10.854-27.738 0-11.167 3.618-20.234 10.854-27.202 7.236-6.968 18.492-10.452 33.768-10.452 9.112 0 17.018 1.519 23.718 4.556 6.7 3.037 11.837 7.28 15.41 12.73 3.573 5.36 5.36 11.524 5.36 18.492 0 2.323-.089 4.065-.268 5.226h-16.616zm-25.728-20.77c-4.467 0-8.129.849-10.988 2.546-2.859 1.697-4.869 4.02-6.03 6.968h31.624c-1.072-2.859-2.814-5.137-5.226-6.834-2.412-1.787-5.539-2.68-9.38-2.68zm95.088 55.61c-15.276 0-26.532-3.484-33.768-10.452-7.147-7.057-10.72-16.303-10.72-27.738 0-11.167 3.573-20.234 10.72-27.202 7.236-6.968 18.492-10.452 33.768-10.452 10.273 0 18.849 1.697 25.728 5.092 6.968 3.305 12.104 7.817 15.41 13.534 3.305 5.628 4.958 11.97 4.958 19.028 0 11.524-3.842 20.77-11.524 27.738-7.594 6.968-19.118 10.452-34.572 10.452zm.536-22.78c5.806 0 10.139-1.385 12.998-4.154 2.858-2.77 4.288-6.477 4.288-11.122 0-4.377-1.43-7.95-4.288-10.72-2.859-2.859-7.192-4.288-12.998-4.288-5.807 0-10.05 1.385-12.73 4.154-2.68 2.77-4.02 6.387-4.02 10.854 0 4.645 1.34 8.353 4.02 11.122 2.68 2.77 6.923 4.154 12.73 4.154zM566.766 112c.536-13.132.804-25.237.804-36.314 0-3.93-.982-7.057-2.948-9.38-1.876-2.323-4.288-3.484-7.236-3.484-2.948 0-5.449 1.34-7.504 4.02-2.054 2.59-3.26 6.164-3.618 10.72-.178 6.79-.268 11.613-.268 14.472 0 6.075.179 12.73.536 19.966h-32.026c.715-12.864 1.072-25.013 1.072-36.448 0-11.435-.357-23.673-1.072-36.716 5.896.268 10.408.402 13.534.402 3.306 0 7.817-.134 13.534-.402l3.886 19.698c2.055-7.147 5.271-12.417 9.648-15.812 4.378-3.484 9.47-5.226 15.276-5.226 5.36 0 10.006 1.206 13.936 3.618 3.931 2.323 6.879 5.494 8.844 9.514 2.055 4.02 3.082 8.531 3.082 13.534v19.296c0 11.881.224 21.395.67 28.542h-30.15zm97.192-32.562h-57.62v-26.13h57.62v26.13zM777.89 39.774h-72.896v14.07c4.556.09 11.39.134 20.502.134 15.722 0 31.713-.268 47.972-.804v26.264c-16.259-.625-33.411-.938-51.456-.938-7.504 0-13.177.045-17.018.134V112H673.37c.714-17.33 1.072-33.545 1.072-48.642 0-15.097-.358-31.311-1.072-48.642h104.52v25.058zm28.723-8.844c-5.628 0-9.827-1.385-12.596-4.154-2.68-2.77-4.02-6.387-4.02-10.854 0-4.377 1.34-7.995 4.02-10.854C796.786 2.209 800.985.78 806.613.78c5.36 0 9.469 1.474 12.328 4.422 2.859 2.859 4.288 6.432 4.288 10.72 0 4.467-1.385 8.085-4.154 10.854-2.769 2.77-6.923 4.154-12.462 4.154zM791.069 112c.625-14.383.938-26.264.938-35.644 0-11.167-.357-23.673-1.072-37.52h32.16c-.715 13.31-1.072 25.817-1.072 37.52 0 9.827.313 21.708.938 35.644h-31.892zm104.876-49.178c-8.219-.536-15.723-.938-22.512-1.206l-.134 14.204c0 4.824 1.027 8.62 3.082 11.39 2.144 2.68 5.896 4.02 11.256 4.02 2.054 0 4.02-.179 5.896-.536a93.269 93.269 0 00-.536 10.05c0 1.608.089 5.271.268 10.988-3.931.715-7.236 1.161-9.916 1.34-2.68.179-6.164.268-10.452.268-10.452 0-17.867-2.501-22.244-7.504-4.288-5.092-6.432-12.15-6.432-21.172l.134-22.646c-4.199.179-8.576.447-13.132.804V39.104c4.645 0 8.576-1.474 11.792-4.422 3.216-2.948 5.136-6.477 5.762-10.586h36.448c-4.556 6.253-9.604 11.256-15.142 15.008h25.862v23.718zM956.204 112c.536-13.132.804-25.237.804-36.314 0-3.93-.983-7.057-2.948-9.38-1.876-2.323-4.288-3.484-7.236-3.484-2.948 0-5.449 1.34-7.504 4.02-2.055 2.59-3.261 6.164-3.618 10.72-.179 6.79-.268 11.613-.268 14.472 0 6.075.179 12.73.536 19.966h-32.026c.715-12.864 1.072-25.013 1.072-36.448 0-11.435-.357-23.673-1.072-36.716 5.896.268 10.407.402 13.534.402 3.305 0 7.817-.134 13.534-.402l3.886 19.698c2.055-7.147 5.271-12.417 9.648-15.812 4.377-3.484 9.469-5.226 15.276-5.226 5.36 0 10.005 1.206 13.936 3.618 3.931 2.323 6.879 5.494 8.844 9.514 2.055 4.02 3.082 8.531 3.082 13.534v19.296c0 11.881.223 21.395.67 28.542h-30.15zM1068 78.5h-43.68c.71 3.93 2.45 7.147 5.22 9.648 2.86 2.412 6.88 3.618 12.06 3.618 3.76 0 7.28-.715 10.59-2.144 3.31-1.519 5.94-3.618 7.91-6.298 5.98 2.948 13.93 6.12 23.85 9.514-2.77 6.253-7.82 11.256-15.14 15.008-7.24 3.663-16.71 5.494-28.41 5.494-15.19 0-26.44-3.484-33.77-10.452-7.236-7.057-10.854-16.303-10.854-27.738 0-11.167 3.618-20.234 10.854-27.202 7.24-6.968 18.49-10.452 33.77-10.452 9.11 0 17.02 1.519 23.72 4.556 6.7 3.037 11.83 7.28 15.41 12.73 3.57 5.36 5.36 11.524 5.36 18.492 0 2.323-.09 4.065-.27 5.226H1068zm-25.73-20.77c-4.46 0-8.13.849-10.98 2.546-2.86 1.697-4.87 4.02-6.03 6.968h31.62c-1.07-2.859-2.81-5.137-5.23-6.834-2.41-1.787-5.53-2.68-9.38-2.68zm95.23 55.61c-7.51 0-15.15-1.027-22.92-3.082a81.504 81.504 0 01-21.71-9.648l14.07-19.162c4.11 2.948 9.07 5.27 14.88 6.968 5.8 1.608 10.81 2.412 15.01 2.412 4.02 0 7.1-.536 9.24-1.608 2.23-1.161 3.35-2.635 3.35-4.422 0-1.43-.53-2.546-1.61-3.35-1.07-.804-2.54-1.206-4.42-1.206-1.16 0-2.5.045-4.02.134-1.43.09-2.59.179-3.48.268-4.65.536-9.43.804-14.34.804-7.95 0-14.43-1.474-19.43-4.422-4.91-3.037-7.37-7.95-7.37-14.74 0-7.861 3.71-13.936 11.12-18.224 7.42-4.377 18.31-6.566 32.7-6.566 7.05 0 14.16 1.027 21.3 3.082 7.24 1.965 13.63 4.958 19.17 8.978L1163.63 65.1c-5.1-2.68-9.88-4.556-14.34-5.628a51.552 51.552 0 00-13.27-1.742c-3.13 0-5.81.625-8.04 1.876-2.23 1.25-3.35 2.68-3.35 4.288 0 1.25.45 2.233 1.34 2.948.98.715 2.23 1.072 3.75 1.072s3.62-.134 6.3-.402c6.52-.447 11.39-.67 14.61-.67 9.29 0 16.48 1.563 21.57 4.69 5.09 3.127 7.64 7.906 7.64 14.338 0 9.648-3.75 16.661-11.26 21.038-7.5 4.288-17.86 6.432-31.08 6.432zm95 0c-7.5 0-15.14-1.027-22.91-3.082a81.364 81.364 0 01-21.71-9.648l14.07-19.162c4.11 2.948 9.06 5.27 14.87 6.968 5.81 1.608 10.81 2.412 15.01 2.412 4.02 0 7.1-.536 9.25-1.608 2.23-1.161 3.35-2.635 3.35-4.422 0-1.43-.54-2.546-1.61-3.35-1.07-.804-2.55-1.206-4.42-1.206-1.17 0-2.51.045-4.02.134-1.43.09-2.6.179-3.49.268-4.64.536-9.42.804-14.34.804-7.95 0-14.42-1.474-19.43-4.422-4.91-3.037-7.37-7.95-7.37-14.74 0-7.861 3.71-13.936 11.13-18.224 7.41-4.377 18.31-6.566 32.69-6.566 7.06 0 14.16 1.027 21.31 3.082 7.23 1.965 13.62 4.958 19.16 8.978L1258.63 65.1c-5.09-2.68-9.87-4.556-14.34-5.628a51.533 51.533 0 00-13.26-1.742c-3.13 0-5.81.625-8.04 1.876-2.24 1.25-3.35 2.68-3.35 4.288 0 1.25.44 2.233 1.34 2.948.98.715 2.23 1.072 3.75 1.072s3.62-.134 6.3-.402c6.52-.447 11.39-.67 14.6-.67 9.29 0 16.48 1.563 21.58 4.69 5.09 3.127 7.63 7.906 7.63 14.338 0 9.648-3.75 16.661-11.25 21.038-7.51 4.288-17.87 6.432-31.09 6.432z"/></mask><path d="M125.65 14.716l1.989-.214-.192-1.786h-1.797v2zM136.102 112v2h2.226l-.237-2.214-1.989.214zm-34.706 0l-1.999.062.06 1.938h1.939v-2zm-2.144-69.412l1.999-.062-3.963-.317 1.964.379zM85.852 112v2h1.65l.314-1.621-1.964-.379zm-35.108 0l-1.962.389.32 1.611h1.642v-2zM37.076 43.124l1.962-.39-3.961.332 1.999.058zM35.066 112v2h1.942l.057-1.942-1.999-.058zM.36 112l-1.989-.214-.237 2.214H.36v-2zm10.452-97.284v-2H9.015l-.192 1.786 1.989.214zm45.56 0l1.967-.362-.301-1.638h-1.666v2zM68.03 78.098l-1.967.362 3.942-.045-1.975-.317zm10.184-63.382v-2H76.51l-.27 1.683 1.974.317zm45.447.214l10.452 97.284 3.978-.428-10.452-97.284-3.978.428zM136.102 110h-34.706v4h34.706v-4zm-32.707 1.938l-2.144-69.412-3.998.124 2.144 69.412 3.998-.124zm-6.107-69.73l-13.4 69.413 3.928.758 13.4-69.412-3.928-.758zM85.852 110H50.744v4h35.108v-4zm-33.146 1.611L39.038 42.735l-3.924.778 13.668 68.876 3.924-.778zm-17.63-68.545l-2.01 68.876 4 .116 2.01-68.876-4-.116zM35.067 110H.36v4h34.706v-4zM2.35 112.214L12.8 14.93l-3.978-.428-10.452 97.284 3.978.428zm8.463-95.498h45.56v-4h-45.56v4zm43.593-1.638L66.063 78.46l3.934-.724-11.658-63.382-3.934.724zm15.6 63.337L80.19 15.033l-3.95-.634L66.055 77.78l3.95.634zm8.209-61.699h47.436v-4H78.214v4zm77.958 86.172l-1.406 1.423.009.009.009.009 1.388-1.441zm0-54.94l-1.388-1.44-.009.008 1.397 1.432zm59.496-5.36l-.885 1.794.013.006.014.007.858-1.807zm15.41 13.534l-1.732 1.001.007.012 1.725-1.013zm-6.566 46.766l-1.344-1.481-.009.007 1.353 1.474zm-21.038-38.324l-1.415 1.414.012.011.011.011 1.392-1.436zm-25.728-.134l-1.438-1.39 1.438 1.39zm0 21.976l1.437-1.39-1.437 1.39zm12.194 24.934c-15.022 0-25.672-3.432-32.381-9.893l-2.775 2.882c7.763 7.475 19.626 11.011 35.156 11.011v-4zm-32.363-9.875c-6.712-6.629-10.125-15.334-10.125-26.315h-4c0 11.889 3.733 21.675 11.314 29.161l2.811-2.846zM147.452 75.15c0-10.698 3.403-19.225 10.116-25.77l-2.793-2.864c-7.58 7.39-11.323 16.998-11.323 28.634h4zm10.107-25.761c6.709-6.461 17.359-9.893 32.381-9.893v-4c-15.53 0-27.393 3.536-35.156 11.011l2.775 2.882zm32.381-9.893c10.065 0 18.316 1.665 24.843 4.886l1.77-3.587c-7.231-3.569-16.132-5.299-26.613-5.299v4zm24.87 4.899c6.665 3.161 11.466 7.418 14.536 12.728l3.463-2.002c-3.541-6.124-9.013-10.89-16.284-14.34l-1.715 3.614zm14.543 12.74c3.11 5.296 4.683 11.284 4.683 18.015h4c0-7.384-1.734-14.081-5.234-20.04l-3.449 2.025zm4.683 18.015c0 11.03-3.652 19.712-10.868 26.257l2.687 2.962c8.15-7.391 12.181-17.2 12.181-29.219h-4zm-10.877 26.264c-7.077 6.495-18.021 9.926-33.219 9.926v4c15.711 0 27.814-3.537 35.924-10.978l-2.705-2.948zm-32.683-8.854c6.089 0 11.016-1.45 14.389-4.718l-2.783-2.873c-2.344 2.272-6.082 3.591-11.606 3.591v4zm14.389-4.718c3.313-3.209 4.897-7.47 4.897-12.558h-4c0 4.202-1.275 7.356-3.68 9.685l2.783 2.874zm4.897-12.558c0-4.86-1.608-8.97-4.897-12.157L202.082 66c2.429 2.353 3.68 5.388 3.68 9.284h4zm-4.874-12.134c-3.371-3.371-8.308-4.874-14.412-4.874v4c5.508 0 9.237 1.356 11.583 3.702l2.829-2.828zm-14.412-4.874c-6.077 0-10.956 1.445-14.168 4.763l2.875 2.782c2.148-2.22 5.756-3.545 11.293-3.545v-4zm-14.168 4.763c-3.098 3.202-4.582 7.348-4.582 12.245h4c0-4.036 1.195-7.126 3.457-9.463l-2.875-2.782zm-4.582 12.245c0 5.051 1.47 9.296 4.582 12.513l2.875-2.782c-2.247-2.322-3.457-5.491-3.457-9.731h-4zm4.582 12.513c3.212 3.318 8.091 4.763 14.168 4.763v-4c-5.537 0-9.145-1.325-11.293-3.545l-2.875 2.782zm100.24-29.129l-1.961.397 3.887.139-1.926-.536zm35.51-19.698l1.98.283.281-1.97-1.968-.291-.293 1.978zm-4.288 30.016l-.703 1.873 2.331.874.352-2.464-1.98-.283zm-27.068.938l-1.567-1.244 1.567 1.244zm-3.618 12.06h2l-4-.03 2 .03zm-.134 8.844l-2-.03v.03h2zm.536 21.172v2h2.094l-.097-2.092-1.997.092zm-32.026 0l-1.997-.111-.118 2.111h2.115v-2zm0-73.164l.09-1.998-2.208-.1.121 2.207 1.997-.109zm27.068 0l1.96-.397-.341-1.681-1.713.08.094 1.998zm5.946 20.368c1.782-6.405 4.835-11.037 9.06-14.09 4.239-3.063 9.857-4.68 17.02-4.68v-4c-7.756 0-14.265 1.755-19.362 5.437-5.11 3.692-8.601 9.177-10.571 16.261l3.853 1.072zm26.08-18.77c2.498 0 4.901.172 7.21.514l.587-3.956a53.165 53.165 0 00-7.797-.558v4zm5.524-1.747l-4.288 30.016 3.96.566 4.288-30.016-3.96-.566zm-1.606 28.426c-6.527-2.447-12.057-3.745-16.514-3.745v4c3.761 0 8.772 1.114 15.109 3.49l1.405-3.745zm-16.514-3.745c-5.496 0-9.919 1.656-12.823 5.312l3.133 2.488c1.921-2.419 5.002-3.8 9.69-3.8v-4zm-12.823 5.312c-2.77 3.488-4.051 8.036-4.051 13.438h4c0-4.782 1.13-8.364 3.184-10.95l-3.133-2.488zm-.051 13.438v-.134h-4v.134h4zm-4-.164l-.134 8.844 3.999.06.134-8.844-3.999-.06zm-.134 8.874c0 6.38.179 13.468.538 21.264l3.995-.184c-.356-7.748-.533-14.774-.533-21.08h-4zM277.486 110H245.46v4h32.026v-4zm-30.029 2.111c.716-12.897 1.075-25.083 1.075-36.559h-4c0 11.393-.356 23.505-1.069 36.337l3.994.222zm1.075-36.559c0-11.476-.359-23.751-1.075-36.825l-3.994.218c.713 13.012 1.069 25.214 1.069 36.607h4zm-3.163-34.718c5.905.268 10.452.404 13.625.404v-4c-3.081 0-7.556-.132-13.444-.4l-.181 3.996zm13.625.404c3.351 0 7.898-.136 13.627-.404l-.187-3.996c-5.705.268-10.181.4-13.44.4v4zm11.573-2.005l4.02 19.832 3.921-.794-4.02-19.832-3.921.794zM345.943 78.5v-2h-2.397l.429 2.358 1.968-.358zm5.226 9.648l-1.341 1.484.025.023.026.022 1.29-1.529zm22.646 1.474l.794 1.836.02-.01.021-.009-.835-1.817zm7.906-6.298l.884-1.794-1.505-.741-.992 1.352 1.613 1.183zm23.852 9.514l1.829.81.883-1.995-2.064-.707-.648 1.892zm-15.142 15.008l.903 1.784.009-.004-.912-1.78zm-62.176-4.958l-1.397 1.432.009.009.009.008 1.379-1.449zm0-54.94l1.387 1.44-1.387-1.44zm57.486-5.896l-.826 1.822.826-1.822zm15.41 12.73l-1.673 1.097.005.006.004.006 1.664-1.109zm5.092 23.718v2h1.716l.261-1.696-1.977-.304zm-53.332-18.224l1.021 1.72-1.021-1.72zm-6.03 6.968l-1.861-.733-1.077 2.733h2.938v-2zm31.624 0v2h2.886l-1.013-2.702-1.873.702zm-5.226-6.834l-1.191 1.607.02.015.02.014 1.151-1.636zm16.348 16.09h-43.684v4h43.684v-4zm-45.652 2.358c.788 4.332 2.732 7.955 5.853 10.774l2.681-2.968c-2.417-2.184-3.957-4.993-4.598-8.522l-3.936.716zm5.904 10.819c3.337 2.815 7.877 4.089 13.35 4.089v-4c-4.89 0-8.39-1.138-10.77-3.147l-2.58 3.058zm13.35 4.089c4.013 0 7.813-.766 11.38-2.308l-1.588-3.672c-3.044 1.317-6.302 1.98-9.792 1.98v4zm11.421-2.327c3.584-1.646 6.499-3.953 8.684-6.932l-3.226-2.366c-1.746 2.38-4.102 4.273-7.128 5.664l1.67 3.634zm6.187-6.32c6.092 3 14.131 6.203 24.088 9.611l1.296-3.784c-9.876-3.38-17.738-6.52-23.616-9.416l-1.768 3.588zm22.907 6.91c-2.548 5.753-7.221 10.45-14.225 14.037l1.824 3.56c7.647-3.917 13.068-9.225 16.059-15.978l-3.658-1.62zm-14.216 14.033c-6.86 3.472-15.987 5.278-27.505 5.278v4c11.887 0 21.699-1.856 29.311-5.71l-1.806-3.568zm-27.505 5.278c-14.926 0-25.586-3.429-32.39-9.901l-2.757 2.898c7.847 7.464 19.7 11.003 35.147 11.003v-4zm-32.372-9.884c-6.798-6.63-10.25-15.333-10.25-26.306h-4c0 11.896 3.783 21.685 11.457 29.17l2.793-2.864zm-10.25-26.306c0-10.69 3.442-19.214 10.241-25.761l-2.774-2.882c-7.674 7.39-11.467 17-11.467 28.643h4zm10.241-25.761c6.709-6.461 17.359-9.893 32.381-9.893v-4c-15.53 0-27.393 3.536-35.155 11.011l2.774 2.882zm32.381-9.893c8.893 0 16.506 1.482 22.892 4.378l1.652-3.644c-7.014-3.18-15.213-4.734-24.544-4.734v4zm22.892 4.378c6.401 2.901 11.224 6.912 14.563 12.005l3.345-2.194c-3.807-5.806-9.257-10.282-16.256-13.455l-1.652 3.644zm14.572 12.017c3.336 5.005 5.024 10.776 5.024 17.383h4c0-7.33-1.886-13.886-5.696-19.601l-3.328 2.218zm5.024 17.383c0 2.299-.09 3.917-.245 4.922l3.954.608c.202-1.317.291-3.184.291-5.53h-4zm1.732 3.226h-16.616v4h16.616v-4zm-42.344-20.77c-4.707 0-8.753.893-12.009 2.826l2.042 3.44c2.461-1.462 5.74-2.266 9.967-2.266v-4zm-12.009 2.826c-3.22 1.912-5.538 4.573-6.87 7.955l3.722 1.466c.99-2.514 2.693-4.499 5.19-5.981l-2.042-3.44zm-5.009 10.688h31.624v-4h-31.624v4zm33.497-2.702c-1.208-3.221-3.195-5.83-5.948-7.768l-2.302 3.272c2.071 1.457 3.568 3.404 4.504 5.9l3.746-1.404zm-5.909-7.74c-2.842-2.104-6.421-3.072-10.57-3.072v4c3.533 0 6.208.82 8.189 2.287l2.381-3.214zm50.75 44.086l-1.406 1.423.009.009.009.009 1.388-1.441zm0-54.94l-1.388-1.44-.009.008 1.397 1.432zm59.496-5.36l-.886 1.794.014.006.014.007.858-1.807zm15.41 13.534l-1.732 1.001.007.012 1.725-1.013zm-6.566 46.766l-1.344-1.481-.009.007 1.353 1.474zm-21.038-38.324l-1.415 1.414.012.011.011.011 1.392-1.436zm-25.728-.134l-1.438-1.39 1.438 1.39zm0 21.976l1.437-1.39-1.437 1.39zm12.194 24.934c-15.022 0-25.672-3.432-32.381-9.893l-2.775 2.882c7.763 7.475 19.625 11.011 35.156 11.011v-4zm-32.363-9.875c-6.713-6.629-10.125-15.334-10.125-26.315h-4c0 11.889 3.733 21.675 11.314 29.161l2.811-2.846zM416.499 75.15c0-10.698 3.403-19.225 10.116-25.77l-2.793-2.864c-7.58 7.39-11.323 16.998-11.323 28.634h4zm10.107-25.761c6.709-6.461 17.359-9.893 32.381-9.893v-4c-15.531 0-27.393 3.536-35.156 11.011l2.775 2.882zm32.381-9.893c10.065 0 18.316 1.665 24.842 4.886l1.771-3.587c-7.231-3.569-16.133-5.299-26.613-5.299v4zm24.87 4.899c6.665 3.161 11.466 7.418 14.536 12.728l3.463-2.002c-3.541-6.124-9.013-10.89-16.284-14.34l-1.715 3.614zm14.543 12.74c3.11 5.296 4.683 11.284 4.683 18.015h4c0-7.384-1.734-14.081-5.234-20.04l-3.449 2.025zm4.683 18.015c0 11.03-3.652 19.712-10.868 26.257l2.687 2.962c8.15-7.391 12.181-17.2 12.181-29.219h-4zm-10.877 26.264c-7.077 6.495-18.021 9.926-33.219 9.926v4c15.711 0 27.814-3.537 35.924-10.978l-2.705-2.948zm-32.683-8.854c6.089 0 11.016-1.45 14.389-4.718l-2.783-2.873c-2.344 2.272-6.082 3.591-11.606 3.591v4zm14.389-4.718c3.313-3.209 4.897-7.47 4.897-12.558h-4c0 4.202-1.276 7.356-3.68 9.685l2.783 2.874zm4.897-12.558c0-4.86-1.608-8.97-4.897-12.157L471.129 66c2.429 2.353 3.68 5.388 3.68 9.284h4zm-4.874-12.134c-3.371-3.371-8.308-4.874-14.412-4.874v4c5.508 0 9.237 1.356 11.583 3.702l2.829-2.828zm-14.412-4.874c-6.077 0-10.956 1.445-14.168 4.763l2.875 2.782c2.148-2.22 5.755-3.545 11.293-3.545v-4zm-14.168 4.763c-3.098 3.202-4.582 7.348-4.582 12.245h4c0-4.036 1.195-7.126 3.457-9.463l-2.875-2.782zm-4.582 12.245c0 5.051 1.469 9.296 4.582 12.513l2.875-2.782c-2.247-2.322-3.457-5.491-3.457-9.731h-4zm4.582 12.513c3.212 3.318 8.091 4.763 14.168 4.763v-4c-5.538 0-9.145-1.325-11.293-3.545l-2.875 2.782zM566.766 112l-1.998-.082-.085 2.082h2.083v-2zm-2.144-45.694l-1.555 1.257.014.017.015.018 1.526-1.292zm-14.739.536l1.566 1.243.011-.013.01-.013-1.587-1.217zm-3.619 10.72l-1.993-.156-.004.051-.002.052 1.999.053zm.268 34.438v2h2.102l-.104-2.099-1.998.099zm-32.026 0l-1.996-.111-.118 2.111h2.114v-2zm0-73.164l.091-1.998-2.209-.1.121 2.207 1.997-.109zm27.068 0l1.963-.387-.334-1.691-1.722.08.093 1.998zm3.887 19.698l-1.963.387 3.885.166-1.922-.553zm9.647-15.812l1.226 1.58.01-.007.01-.008-1.246-1.565zm29.212-1.608l-1.046 1.705.015.008.014.009 1.017-1.722zm8.844 9.514l-1.796.878.008.016.008.016 1.78-.91zM596.917 112v2h2.128l-.132-2.125-1.996.125zm-28.152.082c.537-13.155.805-25.287.805-36.396h-4c0 11.046-.267 23.123-.802 36.232l3.997.164zm.805-36.396c0-4.263-1.07-7.894-3.421-10.672l-3.053 2.584c1.579 1.867 2.474 4.49 2.474 8.088h4zm-3.392-10.637c-2.25-2.786-5.23-4.227-8.792-4.227v4c2.335 0 4.179.881 5.681 2.74l3.111-2.513zm-8.792-4.227c-3.666 0-6.72 1.711-9.091 4.803l3.175 2.434c1.738-2.268 3.687-3.237 5.916-3.237v-4zm-9.071 4.777c-2.379 3-3.667 7-4.044 11.807l3.987.312c.338-4.306 1.462-7.452 3.191-9.633l-3.134-2.486zm-4.05 11.91c-.179 6.79-.269 11.637-.269 14.525h4c0-2.83.089-7.63.268-14.42l-3.999-.105zm-.269 14.525c0 6.113.18 12.802.539 20.065l3.995-.198c-.356-7.209-.534-13.83-.534-19.867h-4zM546.532 110h-32.026v4h32.026v-4zm-30.029 2.111c.717-12.897 1.075-25.083 1.075-36.559h-4c0 11.393-.356 23.505-1.068 36.337l3.993.222zm1.075-36.559c0-11.476-.358-23.751-1.075-36.825l-3.994.218c.713 13.012 1.069 25.214 1.069 36.607h4zm-3.162-34.718c5.904.268 10.452.404 13.624.404v-4c-3.08 0-7.556-.132-13.443-.4l-.181 3.996zm13.624.404c3.352 0 7.899-.136 13.628-.404l-.187-3.996c-5.705.268-10.181.4-13.441.4v4zm11.572-2.015l3.886 19.698 3.925-.774-3.886-19.698-3.925.774zm7.771 19.864c1.977-6.877 5.007-11.726 8.951-14.785l-2.451-3.16c-4.811 3.73-8.212 9.423-10.345 16.84l3.845 1.105zm8.971-14.8c4.009-3.191 8.658-4.791 14.03-4.791v-4c-6.24 0-11.775 1.884-16.521 5.661l2.491 3.13zm14.03-4.791c5.052 0 9.323 1.133 12.89 3.323l2.093-3.41c-4.294-2.634-9.314-3.913-14.983-3.913v4zm12.919 3.34c3.601 2.128 6.275 5.01 8.065 8.67l3.593-1.756c-2.141-4.38-5.363-7.84-9.623-10.358l-2.035 3.444zm8.081 8.702c1.895 3.709 2.862 7.903 2.862 12.624h4c0-5.284-1.087-10.113-3.301-14.444l-3.561 1.82zm2.862 12.624v19.296h4V64.162h-4zm0 19.296c0 11.9.224 21.461.674 28.667l3.993-.25c-.443-7.087-.667-16.554-.667-28.417h-4zM596.917 110h-30.151v4h30.151v-4zm67.041-30.562v2h2v-2h-2zm-57.62 0h-2v2h2v-2zm0-26.13v-2h-2v2h2zm57.62 0h2v-2h-2v2zm0 24.13h-57.62v4h57.62v-4zm-55.62 2v-26.13h-4v26.13h4zm-2-24.13h57.62v-4h-57.62v4zm55.62-2v26.13h4v-26.13h-4zM777.89 39.774v2h2v-2h-2zm-72.896 0v-2h-2v2h2zm0 14.07h-2v1.961l1.961.039.039-2zm68.474-.67h2v-2.067l-2.066.068.066 1.999zm0 26.264l-.077 1.998 2.077.08v-2.078h-2zm-68.474-.804l-.047-2-1.953.046v1.954h2zm0 33.366v2h2v-2h-2zm-31.624 0l-1.999-.082-.085 2.082h2.084v-2zm0-97.284v-2h-2.084l.085 2.082 1.999-.082zm104.52 0h2v-2h-2v2zm0 23.058h-72.896v4h72.896v-4zm-74.896 2v14.07h4v-14.07h-4zm1.961 16.07c4.576.09 11.426.134 20.541.134v-4c-9.109 0-15.927-.045-20.463-.134l-.078 4zm20.541.134c15.745 0 31.758-.268 48.038-.805l-.132-3.998c-16.238.535-32.206.803-47.906.803v4zm45.972-2.804v26.264h4V53.174h-4zm2.077 24.265c-16.287-.626-33.465-.939-51.533-.939v4c18.022 0 35.148.312 51.379.936l.154-3.997zm-51.533-.939c-7.508 0-13.2.045-17.065.135l.093 3.998c3.818-.088 9.472-.133 16.972-.133v-4zm-19.018 2.134V112h4V78.634h-4zm2 31.366H673.37v4h31.624v-4zm-29.626 2.082c.716-17.354 1.074-33.595 1.074-48.724h-4c0 15.066-.357 31.252-1.071 48.56l3.997.164zm1.074-48.724c0-15.128-.358-31.37-1.074-48.724l-3.997.164c.714 17.308 1.071 33.494 1.071 48.56h4zm-3.072-46.642h104.52v-4H673.37v4zm102.52-2v25.058h4V14.716h-4zm18.127 12.06l-1.437 1.39.011.013.012.011 1.414-1.414zm0-21.708l-1.437-1.392-.011.012-.011.012 1.459 1.368zm24.924.134l-1.436 1.392.011.011.011.011 1.414-1.414zm.134 21.574l1.414 1.414-1.414-1.414zM791.069 112l-1.998-.087-.091 2.087h2.089v-2zm-.134-73.164v-2h-2.106l.109 2.103 1.997-.103zm32.16 0l1.997.107.113-2.107h-2.11v2zM822.961 112v2h2.092l-.094-2.09-1.998.09zm-16.348-83.07c-5.331 0-8.925-1.312-11.182-3.568l-2.828 2.828c3.282 3.282 8.084 4.74 14.01 4.74v-4zm-11.159-3.545c-2.262-2.337-3.457-5.427-3.457-9.463h-4c0 4.897 1.484 9.043 4.583 12.245l2.874-2.782zm-3.457-9.463c0-3.934 1.188-7.043 3.479-9.486L792.558 3.7c-3.069 3.274-4.561 7.401-4.561 12.222h4zm3.456-9.462c2.259-2.332 5.846-3.68 11.16-3.68v-4c-5.942 0-10.753 1.511-14.033 4.896l2.873 2.784zm11.16-3.68c4.992 0 8.515 1.363 10.892 3.814l2.872-2.784c-3.341-3.445-8.036-5.03-13.764-5.03v4zm10.914 3.836c2.459 2.46 3.702 5.513 3.702 9.306h4c0-4.783-1.616-8.876-4.874-12.134l-2.828 2.828zm3.702 9.306c0 4.017-1.228 7.1-3.568 9.44l2.828 2.828c3.198-3.198 4.74-7.352 4.74-12.268h-4zm-3.568 9.44c-2.262 2.262-5.818 3.568-11.048 3.568v4c5.847 0 10.599-1.463 13.876-4.74l-2.828-2.828zm-24.594 86.725c.626-14.398.94-26.311.94-35.731h-4c0 9.34-.312 21.19-.936 35.557l3.996.174zm.94-35.731c0-11.208-.359-23.75-1.075-37.623l-3.994.206c.713 13.82 1.069 26.292 1.069 37.417h4zm-3.072-35.52h32.16v-4h-32.16v4zm30.163-2.107c-.717 13.341-1.075 25.884-1.075 37.627h4c0-11.662.356-24.133 1.069-37.413l-3.994-.214zm-1.075 37.627c0 9.866.314 21.78.94 35.734l3.996-.18c-.625-13.917-.936-25.767-.936-35.554h-4zM822.961 110h-31.892v4h31.892v-4zm72.984-47.178l-.13 1.996 2.13.139v-2.135h-2zm-22.512-1.206l.079-1.998-2.06-.082-.019 2.061 2 .019zm-.134 14.204l-2-.019v.019h2zm3.082 11.39l-1.606 1.192.021.029.023.028 1.562-1.249zm17.152 3.484l1.988.215.291-2.685-2.653.505.374 1.965zm-.268 21.038l.358 1.968 1.695-.308-.054-1.722-1.999.062zm-42.612-5.896l-1.53 1.288.012.015.013.014 1.505-1.317zm-6.432-21.172l-2-.012v.012h2zm.134-22.646l2 .012.012-2.1-2.097.09.085 1.998zm-13.132.804h-2v2.163l2.156-.17-.156-1.993zm0-23.718v-2h-2v2h2zm11.792-4.422l1.351 1.474-1.351-1.474zm5.762-10.586v-2h-1.719l-.258 1.7 1.977.3zm36.448 0l1.616 1.178 2.315-3.178h-3.931v2zm-15.142 15.008l-1.122-1.656-5.397 3.656h6.519v-2zm25.862 0h2v-2h-2v2zm.13 21.722c-8.232-.537-15.754-.94-22.563-1.208l-.158 3.996c6.769.268 14.256.669 22.461 1.204l.26-3.992zm-24.642.771l-.134 14.204 4 .038.134-14.204-4-.038zm-.134 14.223c0 5.086 1.081 9.354 3.476 12.582l3.212-2.384c-1.715-2.31-2.688-5.636-2.688-10.198h-4zm3.52 12.64c2.696 3.37 7.194 4.77 12.818 4.77v-4c-5.097 0-8.103-1.28-9.694-3.27l-3.124 2.5zm12.818 4.77a33.5 33.5 0 006.27-.571l-.748-3.93a29.484 29.484 0 01-5.522.501v4zm3.907-2.751a95.498 95.498 0 00-.547 10.265h4c0-3.324.175-6.603.524-9.835l-3.977-.43zm-.547 10.265c0 1.646.09 5.342.269 11.05l3.998-.124c-.179-5.727-.267-9.356-.267-10.926h-4zm1.91 9.02c-3.888.707-7.113 1.141-9.691 1.312l.266 3.992c2.782-.186 6.168-.646 10.141-1.368l-.716-3.936zm-9.691 1.312c-2.618.175-6.053.264-10.319.264v4c4.309 0 7.843-.09 10.585-.272l-.266-3.992zm-10.319.264c-10.202 0-16.914-2.449-20.739-6.821l-3.01 2.634c4.929 5.634 13.047 8.187 23.749 8.187v-4zm-20.714-6.792c-3.892-4.621-5.962-11.165-5.962-19.884h-4c0 9.326 2.217 16.897 6.902 22.46l3.06-2.576zm-5.962-19.872l.134-22.646-4-.024-.134 22.646 4 .024zM844.27 60.02c-4.225.18-8.626.45-13.204.808l.313 3.988a366.43 366.43 0 0113.061-.8l-.17-3.996zm-11.047 2.802V39.104h-4v23.718h4zm-2-21.718c5.11 0 9.533-1.638 13.143-4.948l-2.703-2.948c-2.821 2.586-6.26 3.896-10.44 3.896v4zm13.143-4.948c3.535-3.24 5.691-7.175 6.388-11.76l-3.954-.6c-.554 3.634-2.239 6.756-5.137 9.412l2.703 2.948zm4.411-10.06h36.448v-4h-36.448v4zm34.831-3.178c-4.441 6.096-9.327 10.926-14.647 14.53l2.244 3.312c5.757-3.9 10.965-9.075 15.636-15.486l-3.233-2.356zm-13.525 18.186h25.862v-4h-25.862v4zm23.862-2v23.718h4V39.104h-4zM956.204 112l-1.998-.082-.085 2.082h2.083v-2zm-2.144-45.694l-1.556 1.257.014.017.015.018 1.527-1.292zm-14.74.536l1.567 1.243.01-.013.01-.013-1.587-1.217zm-3.618 10.72l-1.994-.156-.004.051-.001.052 1.999.053zM935.97 112v2h2.101l-.103-2.099-1.998.099zm-32.026 0l-1.997-.111-.117 2.111h2.114v-2zm0-73.164l.091-1.998-2.209-.1.121 2.207 1.997-.109zm27.068 0l1.962-.387-.333-1.691-1.723.08.094 1.998zm3.886 19.698l-1.962.387 3.884.166-1.922-.553zm9.648-15.812l1.226 1.58.01-.007.01-.008-1.246-1.565zm29.212-1.608l-1.046 1.705.014.008.015.009 1.017-1.722zm8.844 9.514l-1.797.878.008.016.008.016 1.781-.91zM986.354 112v2h2.129l-.133-2.125-1.996.125zm-28.152.082c.537-13.155.806-25.287.806-36.396h-4c0 11.046-.267 23.123-.802 36.232l3.996.164zm.806-36.396c0-4.263-1.07-7.894-3.421-10.672l-3.054 2.584c1.58 1.867 2.475 4.49 2.475 8.088h4zm-3.392-10.637c-2.25-2.786-5.231-4.227-8.792-4.227v4c2.335 0 4.178.881 5.68 2.74l3.112-2.513zm-8.792-4.227c-3.666 0-6.721 1.711-9.091 4.803l3.174 2.434c1.739-2.268 3.687-3.237 5.917-3.237v-4zm-9.071 4.777c-2.38 3-3.668 7-4.045 11.807l3.988.312c.338-4.306 1.461-7.452 3.191-9.633l-3.134-2.486zm-4.05 11.91c-.179 6.79-.269 11.637-.269 14.525h4c0-2.83.089-7.63.267-14.42l-3.998-.105zm-.269 14.525c0 6.113.18 12.802.538 20.065l3.996-.198c-.356-7.209-.534-13.83-.534-19.867h-4zM935.97 110h-32.026v4h32.026v-4zm-30.029 2.111c.716-12.897 1.075-25.083 1.075-36.559h-4c0 11.393-.356 23.505-1.069 36.337l3.994.222zm1.075-36.559c0-11.476-.359-23.751-1.075-36.825l-3.994.218c.713 13.012 1.069 25.214 1.069 36.607h4zm-3.163-34.718c5.905.268 10.452.404 13.625.404v-4c-3.081 0-7.556-.132-13.443-.4l-.182 3.996zm13.625.404c3.351 0 7.898-.136 13.628-.404l-.188-3.996c-5.705.268-10.18.4-13.44.4v4zm11.572-2.015l3.886 19.698 3.924-.774-3.886-19.698-3.924.774zm7.77 19.864c1.977-6.877 5.008-11.726 8.952-14.785l-2.452-3.16c-4.81 3.73-8.212 9.423-10.344 16.84l3.844 1.105zm8.972-14.8c4.009-3.191 8.657-4.791 14.03-4.791v-4c-6.241 0-11.776 1.884-16.522 5.661l2.492 3.13zm14.03-4.791c5.052 0 9.322 1.133 12.89 3.323l2.092-3.41c-4.294-2.634-9.314-3.913-14.982-3.913v4zm12.919 3.34c3.601 2.128 6.274 5.01 8.064 8.67l3.594-1.756c-2.141-4.38-5.364-7.84-9.624-10.358l-2.034 3.444zm8.08 8.702c1.896 3.709 2.863 7.903 2.863 12.624h4c0-5.284-1.087-10.113-3.301-14.444l-3.562 1.82zm2.863 12.624v19.296h4V64.162h-4zm0 19.296c0 11.9.223 21.461.674 28.667l3.992-.25c-.443-7.087-.666-16.554-.666-28.417h-4zm2.67 26.542h-30.15v4h30.15v-4zm37.966-31.5v-2h-2.4l.43 2.358 1.97-.358zm5.22 9.648l-1.34 1.484.03.023.02.022 1.29-1.529zm22.65 1.474l.79 1.836.02-.01.02-.009-.83-1.817zm7.91-6.298l.88-1.794-1.51-.741-.99 1.352 1.62 1.183zm23.85 9.514l1.83.81.88-1.995-2.06-.707-.65 1.892zm-15.14 15.008l.9 1.784.01-.004-.91-1.78zm-62.18-4.958l-1.4 1.432.01.009.01.008 1.38-1.449zm0-54.94l1.39 1.44-1.39-1.44zm57.49-5.896l-.83 1.822.83-1.822zm15.41 12.73l-1.68 1.097.01.006v.006l1.67-1.109zm5.09 23.718v2h1.71l.26-1.696-1.97-.304zm-53.33-18.224l1.02 1.72-1.02-1.72zm-6.03 6.968l-1.86-.733-1.08 2.733h2.94v-2zm31.62 0v2h2.89l-1.02-2.702-1.87.702zm-5.23-6.834l-1.19 1.607.02.015.02.014 1.15-1.636zM1068 76.5h-43.68v4H1068v-4zm-45.65 2.358c.79 4.332 2.73 7.955 5.85 10.774l2.68-2.968c-2.41-2.184-3.95-4.993-4.59-8.522l-3.94.716zm5.9 10.819c3.34 2.815 7.88 4.089 13.35 4.089v-4c-4.89 0-8.39-1.138-10.77-3.147l-2.58 3.058zm13.35 4.089c4.02 0 7.82-.766 11.38-2.308l-1.58-3.672c-3.05 1.317-6.31 1.98-9.8 1.98v4zm11.42-2.327c3.59-1.646 6.5-3.953 8.69-6.932l-3.23-2.366c-1.74 2.38-4.1 4.273-7.13 5.664l1.67 3.634zm6.19-6.32c6.09 3 14.13 6.203 24.09 9.611l1.3-3.784c-9.88-3.38-17.74-6.52-23.62-9.416l-1.77 3.588zm22.91 6.91c-2.55 5.753-7.22 10.45-14.23 14.037l1.83 3.56c7.64-3.917 13.07-9.225 16.06-15.978l-3.66-1.62zm-14.22 14.033c-6.86 3.472-15.98 5.278-27.5 5.278v4c11.89 0 21.7-1.856 29.31-5.71l-1.81-3.568zm-27.5 5.278c-14.93 0-25.59-3.429-32.39-9.901l-2.76 2.898c7.85 7.464 19.7 11.003 35.15 11.003v-4zm-32.37-9.884c-6.8-6.63-10.254-15.333-10.254-26.306h-4c0 11.896 3.783 21.685 11.454 29.17l2.8-2.864zM997.776 75.15c0-10.69 3.444-19.214 10.244-25.761l-2.78-2.882c-7.671 7.39-11.464 17-11.464 28.643h4zm10.244-25.761c6.71-6.461 17.36-9.893 32.38-9.893v-4c-15.53 0-27.39 3.536-35.16 11.011l2.78 2.882zm32.38-9.893c8.89 0 16.5 1.482 22.89 4.378l1.65-3.644c-7.01-3.18-15.21-4.734-24.54-4.734v4zm22.89 4.378c6.4 2.901 11.22 6.912 14.56 12.005l3.35-2.194c-3.81-5.806-9.26-10.282-16.26-13.455l-1.65 3.644zm14.57 12.017c3.34 5.005 5.03 10.776 5.03 17.383h4c0-7.33-1.89-13.886-5.7-19.601l-3.33 2.218zm5.03 17.383c0 2.299-.09 3.917-.25 4.922l3.95.608c.21-1.317.3-3.184.3-5.53h-4zm1.73 3.226H1068v4h16.62v-4zm-42.35-20.77c-4.7 0-8.75.893-12.01 2.826l2.05 3.44c2.46-1.462 5.74-2.266 9.96-2.266v-4zm-12.01 2.826c-3.22 1.912-5.53 4.573-6.86 7.955l3.72 1.466c.99-2.514 2.69-4.499 5.19-5.981l-2.05-3.44zm-5 10.688h31.62v-4h-31.62v4zm33.49-2.702c-1.21-3.221-3.19-5.83-5.95-7.768l-2.3 3.272c2.07 1.457 3.57 3.404 4.51 5.9l3.74-1.404zm-5.91-7.74c-2.84-2.104-6.42-3.072-10.57-3.072v4c3.54 0 6.21.82 8.19 2.287l2.38-3.214zm61.74 51.456l-.54 1.926.02.004.01.004.51-1.934zm-21.71-9.648l-1.61-1.184-1.27 1.729 1.82 1.146 1.06-1.691zm14.07-19.162l1.17-1.625-1.61-1.153-1.17 1.594 1.61 1.184zm14.88 6.968l-.56 1.92.01.004.01.004.54-1.928zm24.25.804l.9 1.789.01-.007.01-.008-.92-1.774zm-6.7-8.844l-.12-1.997.12 1.997zm-3.48.268l-.2-1.99-.02.001-.01.002.23 1.987zm-33.77-3.618l-1.05 1.701.02.011.01.011 1.02-1.723zm3.75-32.964l1 1.731.01-.004.01-.005-1.02-1.722zm54-3.484l-.55 1.922.02.004.01.004.52-1.93zm19.17 8.978l1.42 1.408 1.64-1.656-1.89-1.37-1.17 1.618zM1163.63 65.1l-.94 1.77 1.31.69 1.05-1.052-1.42-1.408zm-14.34-5.628l-.52 1.933.03.006.02.006.47-1.945zm-21.31.134l-.98-1.745.98 1.745zm-2.01 7.236l-1.25 1.562.04.028.04.028 1.17-1.618zm10.05.67l-.14-1.995-.03.002-.03.003.2 1.99zm36.18 4.02l1.05-1.704-1.05 1.704zm-3.62 35.376l1 1.736v-.004l.01-.004-1.01-1.728zm-31.08 4.432c-7.32 0-14.79-1.002-22.41-3.016l-1.02 3.868c7.93 2.095 15.74 3.148 23.43 3.148v-4zm-22.38-3.008a79.45 79.45 0 01-21.18-9.413l-2.13 3.382a83.357 83.357 0 0022.23 9.883l1.08-3.852zm-20.63-6.538l14.07-19.162-3.23-2.368-14.07 19.162 3.23 2.368zm11.29-18.72c4.32 3.102 9.49 5.513 15.48 7.262l1.12-3.84c-5.63-1.646-10.38-3.88-14.27-6.673l-2.33 3.25zm15.5 7.27c5.92 1.637 11.11 2.484 15.55 2.484v-4c-3.96 0-8.78-.76-14.48-2.34l-1.07 3.856zm15.55 2.484c4.14 0 7.59-.544 10.14-1.82l-1.79-3.577c-1.74.87-4.46 1.397-8.35 1.397v4zm10.16-1.834c2.59-1.345 4.43-3.37 4.43-6.196h-4c0 .748-.39 1.67-2.27 2.648l1.84 3.548zm4.43-6.196c0-2.01-.79-3.74-2.41-4.95l-2.4 3.2c.53.398.81.901.81 1.75h4zm-2.41-4.95c-1.53-1.15-3.48-1.606-5.62-1.606v4c1.61 0 2.61.347 3.22.806l2.4-3.2zm-5.62-1.606c-1.21 0-2.59.046-4.14.137l.24 3.993c1.49-.087 2.79-.13 3.9-.13v-4zm-4.14.138c-1.44.09-2.63.181-3.56.274l.4 3.98c.86-.086 1.99-.173 3.41-.262l-.25-3.992zm-3.59.277c-4.57.527-9.27.791-14.11.791v4c4.99 0 9.84-.272 14.57-.817l-.46-3.974zm-14.11.791c-7.72 0-13.81-1.433-18.42-4.145l-2.03 3.446c5.41 3.184 12.27 4.699 20.45 4.699v-4zm-18.38-4.123c-4.21-2.604-6.42-6.8-6.42-13.039h-4c0 7.34 2.7 12.97 8.32 16.441l2.1-3.402zm-6.42-13.039c0-7.073 3.26-12.523 10.12-16.493l-2-3.462c-7.97 4.606-12.12 11.305-12.12 19.955h4zm10.14-16.502c6.96-4.111 17.44-6.288 31.68-6.288v-4c-14.53 0-25.85 2.2-33.72 6.844l2.04 3.444zm31.68-6.288c6.86 0 13.77.998 20.75 3.004l1.11-3.844c-7.32-2.104-14.61-3.16-21.86-3.16v4zm20.78 3.012c7.02 1.908 13.19 4.802 18.51 8.667l2.35-3.238c-5.75-4.175-12.36-7.266-19.81-9.29l-1.05 3.861zm18.27 5.64l-15.41 15.544 2.84 2.816 15.41-15.544-2.84-2.816zm-13.06 15.182c-5.21-2.739-10.14-4.684-14.81-5.803l-.93 3.89c4.27 1.025 8.89 2.832 13.87 5.453l1.87-3.54zm-14.76-5.791a53.532 53.532 0 00-13.78-1.809v4c4.29 0 8.54.558 12.75 1.675l1.03-3.866zm-13.78-1.809c-3.39 0-6.42.68-9.02 2.131l1.96 3.49c1.87-1.05 4.2-1.621 7.06-1.621v-4zm-9.02 2.131c-2.46 1.381-4.37 3.338-4.37 6.033h4c0-.52.33-1.423 2.33-2.543l-1.96-3.49zm-4.37 6.033c0 1.794.68 3.377 2.09 4.51l2.5-3.124c-.37-.296-.59-.678-.59-1.386h-4zm2.17 4.566c1.4 1.019 3.09 1.454 4.92 1.454v-4c-1.2 0-2.01-.28-2.57-.69l-2.35 3.236zm4.92 1.454c1.62 0 3.8-.142 6.5-.412l-.4-3.98c-2.65.265-4.68.392-6.1.392v4zm6.44-.407c6.51-.446 11.32-.665 14.47-.665v-4c-3.29 0-8.21.227-14.75.675l.28 3.99zm14.47-.665c9.11 0 15.88 1.54 20.53 4.394l2.09-3.408c-5.54-3.4-13.15-4.986-22.62-4.986v4zm20.53 4.394c4.44 2.73 6.68 6.833 6.68 12.634h4c0-7.063-2.85-12.52-8.59-16.042l-2.09 3.408zm6.68 12.634c0 9.032-3.45 15.337-10.26 19.31l2.01 3.456c8.2-4.782 12.25-12.502 12.25-22.766h-4zm-10.25 19.302c-7.08 4.047-17.05 6.168-30.09 6.168v4c13.4 0 24.15-2.167 32.08-6.696l-1.99-3.472zm42 5.086l-.54 1.926.01.004.01.004.52-1.934zm-21.71-9.648l-1.61-1.184-1.27 1.729 1.81 1.146 1.07-1.691zm14.07-19.162l1.16-1.625-1.6-1.153-1.17 1.594 1.61 1.184zm14.87 6.968l-.56 1.92.01.004.02.004.53-1.928zm24.26.804l.89 1.789.01-.007.02-.008-.92-1.774zm-6.7-8.844l-.12-1.997h-.01l.13 1.997zm-3.49.268l-.2-1.99-.01.001-.02.002.23 1.987zm-33.77-3.618l-1.05 1.701.02.011.02.011 1.01-1.723zm3.76-32.964l1 1.731v-.004l.01-.005-1.01-1.722zm54-3.484l-.56 1.922.02.004.01.004.53-1.93zm19.16 8.978l1.42 1.408 1.64-1.656-1.89-1.37-1.17 1.618zM1258.63 65.1l-.93 1.77 1.31.69 1.04-1.052-1.42-1.408zm-14.34-5.628l-.51 1.933.02.006.02.006.47-1.945zm-21.3.134l-.98-1.745.98 1.745zm-2.01 7.236l-1.25 1.562.03.028.04.028 1.18-1.618zm10.05.67l-.14-1.995-.03.002-.03.003.2 1.99zm36.18 4.02l1.04-1.704-1.04 1.704zm-3.62 35.376l.99 1.736.01-.004.01-.004-1.01-1.728zm-31.09 4.432c-7.32 0-14.79-1.002-22.4-3.016l-1.03 3.868c7.93 2.095 15.74 3.148 23.43 3.148v-4zm-22.38-3.008a79.387 79.387 0 01-21.17-9.413l-2.14 3.382a83.419 83.419 0 0022.24 9.883l1.07-3.852zm-20.63-6.538l14.07-19.162-3.22-2.368-14.07 19.162 3.22 2.368zm11.29-18.72c4.33 3.102 9.5 5.513 15.48 7.262l1.12-3.84c-5.63-1.646-10.37-3.88-14.27-6.673l-2.33 3.25zm15.51 7.27c5.91 1.637 11.1 2.484 15.54 2.484v-4c-3.96 0-8.77-.76-14.47-2.34l-1.07 3.856zm15.54 2.484c4.15 0 7.59-.544 10.14-1.82l-1.79-3.577c-1.74.87-4.46 1.397-8.35 1.397v4zm10.17-1.834c2.59-1.345 4.43-3.37 4.43-6.196h-4c0 .748-.4 1.67-2.28 2.648l1.85 3.548zm4.43-6.196c0-2.01-.8-3.74-2.41-4.95l-2.4 3.2c.53.398.81.901.81 1.75h4zm-2.41-4.95c-1.54-1.15-3.48-1.606-5.62-1.606v4c1.61 0 2.61.347 3.22.806l2.4-3.2zm-5.62-1.606c-1.21 0-2.6.046-4.14.137l.23 3.993a68 68 0 013.91-.13v-4zm-4.15.138c-1.44.09-2.63.181-3.56.274l.4 3.98c.86-.086 1.99-.173 3.41-.262l-.25-3.992zm-3.59.277c-4.56.527-9.27.791-14.11.791v4c4.99 0 9.85-.272 14.57-.817l-.46-3.974zm-14.11.791c-7.72 0-13.81-1.433-18.41-4.145l-2.03 3.446c5.4 3.184 12.26 4.699 20.44 4.699v-4zm-18.37-4.123c-4.22-2.604-6.43-6.8-6.43-13.039h-4c0 7.34 2.71 12.97 8.32 16.441l2.11-3.402zm-6.43-13.039c0-7.073 3.26-12.523 10.13-16.493l-2.01-3.462c-7.96 4.606-12.12 11.305-12.12 19.955h4zm10.14-16.502c6.97-4.111 17.44-6.288 31.68-6.288v-4c-14.53 0-25.85 2.2-33.71 6.844l2.03 3.444zm31.68-6.288c6.86 0 13.78.998 20.75 3.004l1.11-3.844c-7.32-2.104-14.6-3.16-21.86-3.16v4zm20.78 3.012c7.03 1.908 13.19 4.802 18.51 8.667l2.35-3.238c-5.75-4.175-12.36-7.266-19.81-9.29l-1.05 3.861zm18.27 5.64l-15.41 15.544 2.84 2.816 15.41-15.544-2.84-2.816zm-13.06 15.182c-5.2-2.739-10.14-4.684-14.8-5.803l-.94 3.89c4.28 1.025 8.9 2.832 13.88 5.453l1.86-3.54zm-14.76-5.791a53.457 53.457 0 00-13.77-1.809v4c4.29 0 8.54.558 12.75 1.675l1.02-3.866zm-13.77-1.809c-3.4 0-6.43.68-9.02 2.131l1.95 3.49c1.88-1.05 4.21-1.621 7.07-1.621v-4zm-9.02 2.131c-2.47 1.381-4.37 3.338-4.37 6.033h4c0-.52.32-1.423 2.32-2.543l-1.95-3.49zm-4.37 6.033c0 1.794.67 3.377 2.09 4.51l2.49-3.124c-.37-.296-.58-.678-.58-1.386h-4zm2.16 4.566c1.4 1.019 3.09 1.454 4.93 1.454v-4c-1.21 0-2.01-.28-2.58-.69l-2.35 3.236zm4.93 1.454c1.61 0 3.79-.142 6.49-.412l-.39-3.98c-2.66.265-4.68.392-6.1.392v4zm6.43-.407c6.51-.446 11.33-.665 14.47-.665v-4c-3.29 0-8.21.227-14.74.675l.27 3.99zm14.47-.665c9.11 0 15.88 1.54 20.53 4.394l2.09-3.408c-5.53-3.4-13.15-4.986-22.62-4.986v4zm20.53 4.394c4.45 2.73 6.68 6.833 6.68 12.634h4c0-7.063-2.85-12.52-8.59-16.042l-2.09 3.408zm6.68 12.634c0 9.032-3.45 15.337-10.26 19.31l2.02 3.456c8.19-4.782 12.24-12.502 12.24-22.766h-4zm-10.24 19.302c-7.09 4.047-17.06 6.168-30.1 6.168v4c13.4 0 24.15-2.167 32.08-6.696l-1.98-3.472z" fill="white" mask="url(#a)"/></g></svg>