<svg width="155" height="42" viewBox="0 0 155 42" fill="none" xmlns="http://www.w3.org/2000/svg"><path d="M24.095 18.218H21.57c-.158 0-.368-.105-.368-.263V6.93a4.74 4.74 0 00-.895-2.782c-.683-.84-1.736-1.26-2.788-1.208-.526 0-1 .105-1.473.368a3.81 3.81 0 00-1.157.892 3.788 3.788 0 00-.737 1.26c-.158.473-.263.997-.263 1.47v10.92c0 .262-.105.42-.368.42h-2.473c-.263 0-.42-.105-.42-.367V6.93c0-.997-.264-1.995-.843-2.782C9.207 3.36 8.312 2.94 7.05 2.94c-.526 0-1.105.105-1.579.315a2.683 2.683 0 00-1.262.84c-.316.368-.526.84-.684 1.26a4.868 4.868 0 00-.263 1.522v10.92c0 .263-.105.42-.368.42H.42c-.263 0-.421-.104-.421-.367V6.93c0-.945.158-1.837.473-2.73.316-.788.737-1.522 1.368-2.153A6.067 6.067 0 013.998.577c.947-.367 1.947-.524 3-.524.999 0 1.998.21 2.893.63.789.42 1.525.944 2.104 1.627.158.21.316.21.474.052.578-.682 1.315-1.207 2.157-1.627.947-.472 2.051-.682 3.104-.682 1 0 2.051.157 2.998.524.79.316 1.526.788 2.105 1.418.579.63 1 1.365 1.262 2.152.264.893.421 1.838.421 2.73v10.868c-.052.367-.157.473-.42.473zM51.98 11.55c0 2.205-.632 3.885-1.947 5.092-1.315 1.208-3.051 1.785-5.26 1.785-2.263 0-4.052-.577-5.314-1.785-1.263-1.207-1.894-2.887-1.894-5.092V6.877c0-2.1.63-3.78 1.841-4.987C40.615.683 42.404.053 44.719.053c2.314 0 4.103.577 5.366 1.784 1.262 1.208 1.894 2.888 1.894 5.04v4.673zm-3.262-4.673a4.344 4.344 0 00-.947-2.887c-.631-.735-1.63-1.103-2.946-1.155a3.808 3.808 0 00-2.841 1.103 3.943 3.943 0 00-1.052 2.887v4.725a4.392 4.392 0 00.894 2.887c.579.736 1.578 1.155 2.999 1.155 1.42 0 2.42-.367 2.999-1.102.578-.787.894-1.838.894-2.888V6.878zM67.814.368c.264 0 .421.105.421.368v1.943c0 .105.053.21.158.262.105.053.21 0 .316-.157.526-.736 1.157-1.313 1.946-1.838.842-.578 1.842-.84 2.841-.84h.632c.157 0 .315.053.473.105.21.053.368.105.368.21a.448.448 0 010 .367l-.473 2.415c-.053.21-.105.368-.21.368a.336.336 0 01-.316 0c-.368-.105-.79-.105-1.158-.105-1.525 0-2.578.42-3.209 1.313a5.711 5.711 0 00-.894 3.307v9.712c0 .263-.105.42-.368.42h-2.578c-.263 0-.421-.104-.421-.367V.735c0-.263.105-.42.368-.42l2.104.052zm32.513 8.663c0 .263-.105.525-.263.735-.157.157-.315.262-.526.262h-9.575a.676.676 0 00-.526.21.673.673 0 00-.21.525v.788c0 .525.052 1.05.21 1.575.263.998.947 1.838 1.894 2.205a5.43 5.43 0 001.841.315c.79 0 1.526-.21 2.21-.577a4.697 4.697 0 001.684-1.523c.157-.262.473-.315.736-.21.053 0 .053.052.105.052l1.42.998c.317.21.422.42.317.63a5.546 5.546 0 01-2.684 2.572c-1.157.526-2.42.84-3.735.788-2.21 0-3.998-.63-5.313-1.837-1.368-1.26-2.052-3.046-2-4.883v-4.62c0-.998.158-1.942.526-2.835a6.46 6.46 0 011.474-2.258c.63-.63 1.42-1.102 2.262-1.417C91.068.157 92.068 0 93.067 0c1 0 2 .158 2.947.525.841.315 1.63.787 2.314 1.417.632.63 1.105 1.418 1.42 2.258.369.893.527 1.89.527 2.835l.052 1.995zm-7.154-6.142c-2.052-.105-3.736 1.47-3.841 3.517v.525c0 .105.053.263.105.315.105.105.316.157.474.157h6.734c.263 0 .42-.157.42-.472v-.367c0-.946-.315-1.89-.999-2.625-.737-.736-1.841-1.155-2.894-1.05zm34.196 8.662c0 2.205-.631 3.885-1.946 5.092-1.316 1.208-3.052 1.785-5.261 1.785-2.263 0-4.051-.577-5.314-1.785-1.263-1.207-1.894-2.887-1.894-5.092V6.877c0-2.1.631-3.78 1.841-4.987 1.21-1.26 2.999-1.837 5.314-1.837s4.103.577 5.366 1.784c1.263 1.208 1.894 2.888 1.894 5.04v4.673zm-3.314-4.673c.052-1.05-.316-2.047-.947-2.887-.632-.735-1.631-1.155-2.946-1.155a3.806 3.806 0 00-2.841 1.103 3.944 3.944 0 00-1.053 2.887v4.725a4.392 4.392 0 00.895 2.887c.578.736 1.578 1.155 2.999 1.155 1.42 0 2.367-.367 2.998-1.155.632-.84 1-1.89.947-2.94v-4.62h-.052zm30.566 11.34h-2.525c-.158 0-.368-.104-.368-.262V6.93a4.13 4.13 0 00-1-2.887 3.888 3.888 0 00-2.946-1.155c-1.052-.053-2.105.367-2.894 1.102a3.943 3.943 0 00-1.052 2.888v10.92c.053.21-.105.367-.316.42h-2.525c-.263 0-.421-.105-.421-.368V.735c0-.263.105-.42.369-.42h2.367c.158 0 .316.105.368.263v.735c0 .262.105.367.263.367l.316-.157c1.157-.945 2.578-1.47 4.104-1.418 2.051 0 3.682.63 4.84 1.837 1.21 1.366 1.894 3.15 1.788 4.936v10.92c0 .315-.105.42-.368.42z" fill="#28B0A9"/><path d="M21.886 41.527a.336.336 0 01-.316.42h-1.84c-.21.053-.421-.105-.421-.315v-10.5a.336.336 0 01.316-.42h6.522c.106 0 .21.053.263.105.106.105.106.21.106.315v1.47c0 .263-.106.42-.369.42h-3.893c-.158 0-.263.053-.315.105-.053.053-.053.158-.053.21v1.418c0 .105 0 .21.053.262.052.053.157.105.315.105h3.104c.21 0 .369.105.421.315v1.575c0 .315-.105.42-.42.42h-3.105c-.105 0-.21 0-.315.105a.757.757 0 00-.106.368l.053 3.622z" fill="white"/><path d="M37.984 41.947c-.315 0-.42-.105-.42-.367v-10.5c0-.263.157-.368.42-.368h1.736c.106 0 .21 0 .316.105.105.053.158.21.105.315v10.5c0 .263-.157.368-.42.368h-1.737v-.053z" fill="white"/><path d="M58.976 32.917c-.053.105-.158.105-.263.105h-1.894c-.105 0-.263 0-.316.105-.052.053-.052.158-.052.263l-.053 8.242c0 .263-.158.368-.473.368h-1.736c-.106 0-.211 0-.316-.105-.105-.053-.158-.158-.105-.263V33.39c0-.105 0-.158-.053-.263-.053-.052-.158-.105-.316-.105h-1.683c-.105 0-.21-.052-.316-.105-.053-.105-.105-.21-.105-.315v-1.417c0-.105 0-.21.105-.315.053-.105.21-.105.316-.105h6.997c.21 0 .368.157.368.42v1.417c-.052.105-.105.21-.105.315z" fill="white"/><path d="M77.916 41.947H76.39c-.105 0-.21-.105-.316-.262l-3.367-5.408s0-.052-.052 0v5.355a.4.4 0 01-.106.263c-.105.052-.21.052-.368.052h-1.578c-.105 0-.21 0-.316-.052-.105-.053-.158-.158-.105-.263v-10.5c0-.262.158-.42.474-.42h1.21c.157 0 .263 0 .42.053.106.105.21.21.263.315l3.262 5.407c0 .053.053.053.053.053l.052-.053V31.08c0-.263.158-.368.474-.368h1.578c.105 0 .21 0 .316.105.105.053.158.21.105.315V41.58c0 .262-.158.367-.473.367z" fill="white"/><path d="M97.066 39.637c.263 0 .368.158.368.42v1.47c0 .315-.105.42-.368.42h-6.419c-.21.053-.42-.105-.42-.315v-10.5c-.053-.21.105-.42.315-.42h6.366c.263 0 .368.105.368.42v1.47c0 .263-.105.42-.368.42h-3.683c-.105 0-.263 0-.368.105-.053.053-.105.158-.053.263v1.26c0 .105 0 .262.106.367.105.105.21.105.368.105h3.051c.106 0 .21.053.316.105.053.105.105.21.105.315v1.418c0 .105 0 .21-.105.315a.253.253 0 01-.316.105h-3.104c-.158 0-.263.052-.315.105-.053.105-.106.21-.053.315v1.47c0 .157.053.262.105.315.105.052.263.105.421.052h3.683z" fill="white"/><path d="M116.584 38.587c.053.998-.421 1.943-1.158 2.573a2.868 2.868 0 01-1.262.63c-.474.157-1 .21-1.526.21a6.369 6.369 0 01-1.999-.315c-.737-.21-1.368-.578-1.947-1.05-.157-.105-.263-.21-.315-.368-.053-.105.052-.262.21-.472l.737-.998c.158-.21.315-.262.421-.262.157.053.263.105.368.157.21.158.421.263.631.368.211.105.474.21.684.315.211.105.421.157.684.21.158.053.368.053.526.053.263 0 .526 0 .737-.106.158-.052.315-.104.421-.21.105-.105.157-.21.21-.315.053-.105.053-.21.053-.315 0-.42-.316-.84-.684-.997a12.606 12.606 0 00-1.947-.788 8.031 8.031 0 01-.999-.42 2.334 2.334 0 01-.79-.63c-.21-.262-.421-.577-.526-.892-.158-.368-.21-.788-.21-1.155 0-.473.105-.945.315-1.365.211-.42.474-.735.79-1.05a3.434 3.434 0 011.21-.683c.473-.157.947-.262 1.473-.262.631 0 1.315.053 1.946.262.474.158.895.316 1.263.578.105.053.21.158.263.262 0 .105 0 .21-.158.473l-.526 1.05c-.053.21-.316.367-.579.262-.052 0-.052 0-.052-.052-.263-.105-.632-.263-1-.368-.368-.105-.736-.21-1.105-.21-.315 0-.578.053-.841.21a.782.782 0 00-.369.788c0 .21.053.367.211.525.105.157.263.263.421.367.157.105.368.158.526.263l.473.157 1.21.42a4.97 4.97 0 011.158.63c.368.263.684.578.947.946.052.577.158 1.102.105 1.575z" fill="white"/><path d="M135.681 38.587c0 .525-.105 1.05-.315 1.47-.211.42-.474.788-.842 1.05a2.867 2.867 0 01-1.263.63c-.473.158-.999.21-1.525.21a6.96 6.96 0 01-2.052-.315c-.737-.21-1.368-.577-1.947-1.05-.158-.105-.263-.21-.315-.367a.64.64 0 01.21-.473l.737-.84c.157-.21.315-.262.42-.262.158.052.264.105.369.157.21.158.421.263.631.368.211.105.474.21.684.315.21.105.421.157.684.21.158.052.368.052.526.052.263 0 .474 0 .737-.105.157-.052.315-.105.42-.21.106-.105.158-.21.211-.315 0-.105.053-.21.053-.315 0-.42-.316-.84-.684-.997a12.606 12.606 0 00-1.947-.788 8.109 8.109 0 01-1-.42 3.216 3.216 0 01-.841-.63c-.211-.262-.421-.577-.526-.892-.158-.368-.211-.788-.211-1.155 0-.473.105-.945.316-1.365.21-.42.473-.735.842-1.05a3.434 3.434 0 011.21-.683c.473-.157.947-.262 1.473-.262.631 0 1.315.052 1.946.262.474.105.895.315 1.315.578a.633.633 0 01.264.262c.052.105 0 .21-.158.473l-.526 1.05c-.053.21-.316.367-.579.262-.053 0-.053 0-.053-.052-.315-.158-.684-.263-.999-.368-.369-.105-.737-.21-1.105-.21-.316 0-.579.053-.842.21a.78.78 0 00-.368.788c0 .21.052.367.21.525.106.157.263.262.421.367.158.105.368.158.526.263l.474.157 1.21.42a4.98 4.98 0 011.157.63c.368.263.632.578.895.945.052.473.21.998.157 1.47z" fill="white"/></svg>