<svg width="110" height="95" viewBox="0 0 110 95" fill="none" xmlns="http://www.w3.org/2000/svg"><path fill-rule="evenodd" clip-rule="evenodd" d="M51.914 94c-2.469-.941-5.063-1.637-7.383-2.865-8.384-4.436-13.216-14.728-11.603-23.653 1.923-10.628 9.786-18.167 20.105-19.379 12.16-1.426 22.855 6.866 24.96 19.612 1.913 11.596-5.624 22.714-16.7 25.515-.763.194-1.498.51-2.244.77h-7.135zm3.601-43.08c-10.94-.015-20.01 9.18-19.954 20.23.054 10.834 9.032 19.896 19.774 19.96 10.986.066 20.037-9.023 20.03-20.115-.01-10.992-8.975-20.06-19.85-20.075z" fill="white"/><path fill-rule="evenodd" clip-rule="evenodd" d="M10 19.188c2.025-2.464 4.048-4.928 6.296-7.667l21.32 36.913c-2.1 2.339-4.078 4.544-6.183 6.893-3.137-5.258-6.258-10.516-9.406-15.757-3.997-6.65-8.016-13.287-12.026-19.93L10 19.188z" fill="white"/><path fill-rule="evenodd" clip-rule="evenodd" d="M83.821 2.243c-1.522 2.613-2.845 5.032-4.338 7.339-.355.548-1.282 1.007-1.95 1.01-14.7.056-29.401.056-44.103 0-.666-.003-1.594-.462-1.95-1.007-1.493-2.308-2.816-4.727-4.339-7.342h56.68z" fill="white"/><path fill-rule="evenodd" clip-rule="evenodd" d="M23.985 2.023L47.73 43.165l-7.834 3.618c-2.92-5.031-5.849-10.058-8.758-15.094-4.001-6.924-7.948-13.88-12.018-20.762-.787-1.332-.771-2.21.253-3.337 1.546-1.704 2.948-3.544 4.61-5.567z" fill="white"/><path fill-rule="evenodd" clip-rule="evenodd" d="M70.908 46.715c-2.462-1.135-4.93-2.277-7.674-3.544L86.988 2c1.82 2.246 3.567 4.332 5.211 6.501.265.348.274 1.186.044 1.585-7.075 12.21-14.194 24.396-21.335 36.629z" fill="white"/><path fill-rule="evenodd" clip-rule="evenodd" d="M94.678 11.493c2.243 2.773 4.25 5.251 6.322 7.814L79.537 55.333c-2.107-2.352-4.084-4.556-6.185-6.898 6.995-12.12 14.052-24.343 21.326-36.942z" fill="white"/><path fill-rule="evenodd" clip-rule="evenodd" d="M33.92 13.764h43.126c-1.582 2.714-2.984 5.232-4.527 7.66-.27.422-1.137.638-1.73.641a3396.48 3396.48 0 01-30.7-.012c-.623-.003-1.505-.384-1.822-.881-1.475-2.311-2.794-4.722-4.348-7.408z" fill="white"/><path fill-rule="evenodd" clip-rule="evenodd" d="M72.462 71.103c-.007 9.75-7.394 17.092-17.181 17.074-9.487-.016-16.785-7.513-16.797-17.25-.012-9.708 7.424-17.092 17.194-17.074 9.499.016 16.791 7.511 16.784 17.25zM53.336 82.487h4.885V59.613c-3.264-.396-3.166-.303-5.042 1.735-1.087 1.18-2.46 2.17-3.86 2.959-2.727 1.53-2.803 1.514-1.983 5.001 1.946-.974 3.843-1.92 6-3v16.179z" fill="white"/></svg>