<svg width="110" height="95" viewBox="0 0 110 95" fill="none" xmlns="http://www.w3.org/2000/svg"><path d="M19.238 63.093a21.059 21.059 0 0015.803-3.795 21.078 21.078 0 007.408-9.743c6.165 4.064 8.166 12.316 4.417 18.785a3.602 3.602 0 002.7 5.385 3.594 3.594 0 003.52-1.771c5.434-9.373 2.882-21.217-5.538-27.6.006-.041.015-.081.02-.122l1.695-14.823a18.879 18.879 0 0010.45 4.717c2.552.293 5.208.062 7.812-.772a3.087 3.087 0 002-3.877 3.081 3.081 0 00-3.876-2.001c-6.614 2.115-13.71-1.551-15.824-8.17a3.068 3.068 0 00-1.555-1.818 4.225 4.225 0 00-2.156-.901l-1.911-.22a4.228 4.228 0 00-1.123.029c-9.928-.679-18.759 6.6-19.902 16.596a3.082 3.082 0 106.126.703c.616-5.39 4.56-9.602 9.54-10.817L36.546 42.97c-.035.309-.04.613-.026.915a3.588 3.588 0 00-.094.415 13.968 13.968 0 01-5.611 9.176 13.921 13.921 0 01-10.451 2.506 3.598 3.598 0 00-4.115 2.992 3.598 3.598 0 002.989 4.12z" fill="white"/><path d="M46.94 15.242a7.117 7.117 0 007.113-7.121A7.117 7.117 0 0046.94 1a7.117 7.117 0 00-7.113 7.121 7.117 7.117 0 007.113 7.121z" fill="white"/><path d="M88.824 76.564H18.053c-3.338 0-6.053 2.717-6.053 6.06a6.062 6.062 0 006.053 6.057h70.771a6.063 6.063 0 006.054-6.058c-.001-3.342-2.717-6.059-6.054-6.059zM18.053 86.703a4.082 4.082 0 010-8.162h2.865a4.167 4.167 0 00-3.33 4.082 4.163 4.163 0 003.33 4.08h-2.865zm4.524 0a4.165 4.165 0 000-8.161h61.722a4.163 4.163 0 00.002 8.161H22.577zm66.247 0H85.96a4.164 4.164 0 003.33-4.08 4.168 4.168 0 00-3.33-4.082h2.864a4.081 4.081 0 010 8.161z" fill="white"/><path d="M91.8 89.895H15.076a1.553 1.553 0 000 3.105H91.8a1.551 1.551 0 100-3.105z" fill="white"/><path d="M79.962 30.728l10.022 13.295-17.64 29.724h19.37L99 45.474l-.3-.145.162-.124L87.148 29.67l6.812-6.02-1.984-2.248-6.637 5.866-.585-.776 9.224-8.156-3.013-3.415-16.808 14.86 3.012 3.416 2.793-2.469z" fill="white"/></svg>