<svg width="110" height="95" viewBox="0 0 110 95" fill="none" xmlns="http://www.w3.org/2000/svg"><path fill-rule="evenodd" clip-rule="evenodd" d="M54.688 15.196c1.98-1.813 3.852-3.657 5.858-5.342C66.29 5.03 72.823 2.09 80.418 2.015c13.82-.135 24.684 7.484 27.809 20.72 1.382 5.865.783 11.678-.782 17.436-.195.72-.625.733-1.199.732-8.603-.008-17.209-.004-25.813-.004-5.184 0-10.368-.022-15.552.018-.834.007-1.208-.26-1.441-1.043-.445-1.483-.978-2.939-1.5-4.397-.523-1.468-1.184-2.024-2.332-2.02-1.216.002-1.961.588-2.456 2.038-1.779 5.215-3.537 10.438-5.303 15.658-.068.198-.162.388-.313.748-.175-.399-.312-.661-.407-.939a69849.012 69849.012 0 01-10.591-30.866c-.023-.067-.041-.138-.066-.205-.54-1.555-1.526-2.449-2.689-2.435-1.129.012-2.07.869-2.595 2.399-2.48 7.221-4.955 14.445-7.433 21.668-.124.367-.264.729-.48 1.325-.865-2.495-1.63-4.762-2.445-7.011-.205-.563-.483-1.153-.886-1.576-1.22-1.277-2.938-.977-3.743.593-.904 1.763-1.82 3.52-2.688 5.302-.277.569-.639.761-1.256.76-4.21-.023-8.424.001-12.636-.043-.343-.003-.908-.349-.99-.642C.286 31.867.132 23.63 4.41 15.764 8.518 8.207 15.05 4.022 23.377 2.527c10.617-1.904 19.64 1.443 27.474 8.56a35.106 35.106 0 012.137 2.143c.66.712 1.272 1.47 1.699 1.966z" fill="white"/><path fill-rule="evenodd" clip-rule="evenodd" d="M21.913 42.232c.98 2.835 1.872 5.416 2.762 8 .534 1.547 1.427 2.346 2.613 2.343 1.17-.003 2.084-.812 2.614-2.36 2.477-7.223 4.944-14.45 7.417-21.677.139-.402.295-.797.511-1.374 1.282 3.718 2.506 7.256 3.72 10.796 2.419 7.053 4.834 14.108 7.25 21.161.07.204.14.41.218.61.508 1.31 1.41 2.022 2.53 2.006 1.148-.015 2.052-.712 2.51-2.03.99-2.861 1.947-5.73 2.919-8.596.817-2.418 1.638-4.835 2.515-7.424.204.31.345.485.445.682.541 1.053 1.42 1.435 2.57 1.433 10.152-.014 20.307-.009 30.46-.009 3.636 0 7.273.001 10.909.006.315 0 .629.035 1.124.065-1.735 3.297-3.994 6.015-6.465 8.65-.245-.122-.473-.208-.676-.333-14.443-8.918-32.87-.967-36.32 15.7-.834 4.034-.586 8.042.743 11.955.254.742.112 1.187-.402 1.79-2.125 2.492-4.157 5.068-6.219 7.616-.22.272-.416.561-.675.911-.831-1.153-1.604-2.23-2.383-3.302-3.8-5.239-8.694-9.29-13.915-13.011-5.982-4.266-11.967-8.535-17.826-12.966-4.895-3.7-9.442-7.818-13.144-12.772-.963-1.288-1.81-2.666-2.855-4.22.639-.04 1.007-.084 1.375-.084 3.78-.005 7.562-.073 11.34.027 1.794.049 2.976-.555 3.61-2.242.152-.397.402-.757.726-1.351z" fill="white"/><path fill-rule="evenodd" clip-rule="evenodd" d="M85.093 93.999c-10.58.104-19.389-8.64-19.475-19.33-.084-10.67 8.579-19.564 19.163-19.671 10.709-.11 19.603 8.5 19.71 19.087.117 11.092-8.373 19.808-19.398 19.914zm-15.672-19.5c-.033 8.646 6.981 15.724 15.614 15.753 8.586.03 15.699-7.054 15.742-15.673.041-8.525-7.002-15.742-15.394-15.776-8.936-.035-15.928 6.841-15.962 15.697z" fill="white"/><path fill-rule="evenodd" clip-rule="evenodd" d="M87.93 71.67c2.395 0 4.69-.005 6.988.001 1.51.003 1.782.276 1.782 1.747 0 .792.005 1.587-.005 2.381-.014 1.235-.28 1.523-1.538 1.536-2.05.021-4.105.05-6.153-.007-.906-.024-1.177.282-1.15 1.173.058 2.057.026 4.115.013 6.172-.008 1.235-.243 1.465-1.456 1.489a73.53 73.53 0 01-2.698.006c-1.146-.02-1.451-.33-1.456-1.512-.013-2.378-.004-4.757-.004-7.313-1.493 0-2.918-.002-4.344 0-.972.002-1.942.025-2.916.01-1.204-.02-1.557-.369-1.576-1.54a75.059 75.059 0 010-2.6c.019-1.162.388-1.534 1.573-1.54 2.37-.012 4.74-.004 7.263-.004v-3.29c0-1.336-.01-2.672.001-4.006.011-1.184.352-1.522 1.56-1.547a55.76 55.76 0 012.593.003c1.136.03 1.46.36 1.468 1.517.013 2.021-.004 4.041 0 6.063 0 .386.032.77.055 1.26z" fill="white"/></svg>