<svg width="110" height="95" viewBox="0 0 110 95" fill="none" xmlns="http://www.w3.org/2000/svg"><path fill-rule="evenodd" clip-rule="evenodd" d="M83.671 93.728c3.226 0 5.875-2.797 5.875-6.219v-2.871c0-2.308-9.388-10.696-15.22-15.818-5.965-5.233-5.427-5.734-5.427-16.387l.398 1.079a5.696 5.696 0 001.404 2.345l.012-.011 13.6 13.706a5.661 5.661 0 008.017.021 5.694 5.694 0 00.021-8.036l-8.619-8.685c-7.956-8.022-7.095-22.988-15.044-22.863H42.314c-7.953-.124-7.09 14.841-15.047 22.863l-8.618 8.685a5.692 5.692 0 00.022 8.036 5.66 5.66 0 008.015-.021l13.6-13.706.011.012a5.675 5.675 0 001.404-2.345l.398-1.079c0 10.653.538 11.154-5.424 16.387-5.836 5.12-15.223 13.51-15.223 15.817v2.872c0 3.421 2.65 6.218 5.877 6.218h13.217c-2.261-2.268-2.6-4.66-2.247-7.51 1.133-9.205 16.154-10.75 25.763-10.187 7.521 1.38 4.25 3.694 2.468 3.646-.317-.01-.628-.016-.924-.017-21.347-2.03-30.11 7.802-17.477 13.559 3.441 1.383 30.237.509 35.542.509zM55.487 2c-7.254 0-13.134 5.895-13.134 13.167 0 7.276 5.88 13.171 13.134 13.171 7.254 0 13.135-5.895 13.135-13.171C68.622 7.895 62.742 2 55.487 2z" fill="white"/></svg>