<svg width="110" height="95" viewBox="0 0 110 95" fill="none" xmlns="http://www.w3.org/2000/svg"><path d="M21.433 45.232L42.26 48.12c.727 1.99 4.39 11.786 5.077 13.54h-.01c-6.033 3.22-12.065 6.426-18.102 9.643a32.702 32.702 0 016.352-.621c2.79 0 5.526.365 8.138 1.073 5.269 1.446 10.028 3.75 14.63 5.993 4.1 1.99 7.982 3.877 11.856 4.96a25.69 25.69 0 001.598.4c-4.591-10.137-16.936-37.45-19.375-43.463-1.146-2.835-2.724-3.887-4.963-4.198L23 32.054c-3.375-.463-6.464 2.105-6.903 5.744-.42 3.64 1.961 6.97 5.336 7.434z" fill="white"/><path d="M11.594 92.606a3.606 3.606 0 002.228.775c.17 0 .333-.012.498-.044 1.013-.142 1.97-.72 2.61-1.68 2.477-3.724 6.312-6.653 10.777-8.26a23.42 23.42 0 017.87-1.38c9.533 0 17.708 6.146 26.316 9.684 4.606 1.897 9.414 3.3 14.648 3.3 2.2 0 4.475-.252 6.837-.82 5.555-1.32 10.32-4.166 13.756-8.156a22.725 22.725 0 002.231-3.048c1.168-1.898.678-4.455-1.082-5.715a3.582 3.582 0 00-2.104-.681c-1.242 0-2.457.648-3.19 1.849a15.46 15.46 0 01-.976 1.4c-2.39 3.07-5.976 5.278-10.279 6.3-3.97.936-8.348.657-12.261-.433-4.112-1.156-8.09-3.086-12.316-5.137-4.493-2.175-9.129-4.433-14.16-5.815-2.391-.663-4.897-.979-7.43-.979-3.45 0-6.96.606-10.298 1.804a30.126 30.126 0 00-8.05 4.363 28.52 28.52 0 00-6.513 6.91 4.15 4.15 0 00-.296.533c-.833 1.784-.376 4.025 1.184 5.23z" fill="white"/><path d="M94.333 58.915c0 8.04-6.039 14.551-13.49 14.551-7.45 0-13.494-6.512-13.494-14.55 0-8.035 6.044-14.55 13.493-14.55 7.453 0 13.49 6.515 13.49 14.55z" fill="white"/></svg>