<svg width="110" height="95" viewBox="0 0 110 95" fill="none" xmlns="http://www.w3.org/2000/svg"><path d="M19.805 24.91c.498.067 1.148.096 1.852.096 3.204 0 5.95-.777 7.788-2.513 1.425-1.347 2.199-3.332 2.199-5.665 0-2.342-1.027-4.32-2.557-5.524-1.6-1.28-3.979-1.911-7.32-1.911-3.31 0-5.655.207-7.321.486v23.555h5.358V24.91zm0-11.233c.397-.118 1.13-.214 2.236-.214 2.71 0 4.242 1.314 4.242 3.51 0 2.434-1.78 3.892-4.662 3.892-.788 0-1.35-.032-1.817-.145v-7.043z" fill="white"/><path d="M9.674 40.819h26.735c3.386 0 6.134-2.725 6.134-6.09V8.109C42.543 4.728 39.795 2 36.41 2H9.674a6.109 6.109 0 00-6.118 6.109v26.619c0 3.366 2.738 6.091 6.118 6.091zM8.398 8.465c0-.912.739-1.644 1.65-1.644H36.05c.918 0 1.642.732 1.642 1.644v25.891a1.65 1.65 0 01-1.642 1.662H10.047c-.911 0-1.65-.752-1.65-1.662V8.466h.001z" fill="white"/><path d="M28.351 72.702c-5.918 0-10.688 4.755-10.688 10.65C17.663 89.229 22.453 94 28.35 94c5.9 0 10.703-4.771 10.703-10.648 0-5.895-4.801-10.65-10.703-10.65zm0 13.865a3.223 3.223 0 01-3.222-3.214 3.222 3.222 0 013.222-3.215c1.782 0 3.235 1.445 3.235 3.215 0 1.768-1.453 3.214-3.235 3.214z" fill="white"/><path d="M106.223 74.617l-1.744-14.173c-.34-2.71-2.738-4.708-5.494-4.561l-3.832.212-11.902-10.68a6.225 6.225 0 00-4.173-1.591H54.902a24 24 0 00-14.927 5.224L26.496 59.844 8.345 64.359c-2.307.583-3.958 2.662-3.958 5.063v5.195A1.38 1.38 0 003 76v6.897c0 .976.795 1.772 1.782 1.772h10.235c-.034-.44-.128-.862-.128-1.317 0-7.403 6.03-13.394 13.461-13.394 7.435 0 13.454 5.99 13.454 13.394 0 .455-.102.878-.142 1.317h28.365c-.05-.44-.13-.862-.13-1.317 0-7.403 6.015-13.394 13.45-13.394 7.437 0 13.451 5.99 13.451 13.394 0 .455-.081.878-.131 1.317h9.554A1.78 1.78 0 00108 82.896v-6.493c.02-.99-.783-1.786-1.777-1.786zM70.337 57.2l-33.732 1.704 6.46-5.163a19.802 19.802 0 0112.366-4.352h14.906V57.2zm5.612-.276v-7.519h2.2c.75 0 1.483.278 2.053.782l6.88 6.166-11.133.57z" fill="white"/><path d="M83.365 72.702c-5.918 0-10.71 4.755-10.71 10.65 0 5.877 4.792 10.648 10.71 10.648 5.903 0 10.678-4.771 10.678-10.648 0-5.895-4.792-10.65-10.678-10.65zm0 13.865c-1.793 0-3.244-1.446-3.244-3.214 0-1.77 1.45-3.215 3.244-3.215a3.224 3.224 0 013.211 3.215 3.225 3.225 0 01-3.211 3.214z" fill="white"/></svg>