<svg width="110" height="95" viewBox="0 0 110 95" fill="none" xmlns="http://www.w3.org/2000/svg"><path fill-rule="evenodd" clip-rule="evenodd" d="M94.737 67.89h-6.53c-9.839 0-19.69-.005-29.527.007-1.025 0-2.068.061-3.09.147-2.556.22-4.825-.63-6.76-2.166-.623-.496-.897-1.633-1.02-2.525-.342-2.459.172-4.75 2.029-6.553.43-.422.979-.715 1.731-1.248 0 1.869-.037 3.421.01 4.97.077 2.515 2.206 4.25 4.643 3.838 1.689-.284 3.046-2.01 3.097-4.045.051-2.162.089-4.326.038-6.475-.019-.777.252-.933.962-1.08 5.536-1.114 11.017-.593 16.431.638 2.427.556 4.55 1.85 5.853 4.195.177.327.853.52 1.297.522 5.032.027 10.071.127 15.1-.016 3.053-.091 5.27 2.289 5.328 5.018.199 8.636.471 17.269.67 25.896.059 2.655-2.22 4.937-4.813 4.986-2.465.04-4.844-2.2-4.921-4.76-.202-6.561-.36-13.126-.525-19.695-.014-.484-.003-.97-.003-1.654z" fill="white"/><path fill-rule="evenodd" clip-rule="evenodd" d="M22.625 28.117c-.801-.92-1.546-1.734-2.245-2.587-1.793-2.196-3.896-2.575-5.833-1.02-1.914 1.539-2.099 4.005-.337 6.083 1.364 1.601 2.838 3.112 4.278 4.652.21.233.457.503.735.579 1.925.517 1.757 1.805 1.59 3.412-.321 3.121-.614 6.286-.388 9.396.166 2.273 1.309 4.457 1.796 6.73 1.577 7.336 2.13 14.749 1.239 22.234-.516 4.302-1.322 8.507-2.901 12.558-.746 1.9-2.835 4.24-5.39 3.73-3.186-.63-5.13-3.434-3.94-6.495 1.65-4.25 2.24-8.677 2.718-13.14.478-4.455.136-8.887-.694-13.292-.29-1.541-.483-3.108-.854-4.626-.112-.469-.584-1.054-1.025-1.212-3.012-1.065-4.309-3.495-4.775-6.33-.98-6.013-.833-12.01 1.006-17.883.648-2.082 1.215-4.226 2.156-6.173 1.067-2.212 2.907-3.663 5.392-4.296 5.225-1.332 8.478 2.34 7.472 7.68z" fill="white"/><path fill-rule="evenodd" clip-rule="evenodd" d="M67.85 26.777c.23 6.444-5.758 12.266-12.446 12.261-6.266-.004-12.499-5.42-12.393-12.602.099-6.534 5.668-12.243 12.59-12.168 7.035.072 12.593 6.14 12.25 12.509zm-12.5 4.593c2.828.032 4.904-1.941 4.929-4.703.01-2.594-2.261-4.985-4.778-5.02-2.497-.026-5.025 2.354-4.906 4.89.144 2.885 1.476 4.785 4.755 4.833z" fill="white"/><path fill-rule="evenodd" clip-rule="evenodd" d="M91.478 71.212v4.88H28.206v-4.88h63.272z" fill="white"/><path fill-rule="evenodd" clip-rule="evenodd" d="M28.182 59.793c-.28-3.867 4.136-9.145 9.189-8.798 4.62.32 8.62 4.29 8.536 9.041-.079 4.655-4.147 8.637-8.787 8.65-4.524.02-9.084-3.935-8.938-8.893z" fill="white"/><path fill-rule="evenodd" clip-rule="evenodd" d="M25.174 2.001c3.754-.069 8.483 3.064 8.593 8.584.1 5.35-3.837 8.916-8.491 9.106-4.723.194-8.868-3.763-8.93-8.577-.071-5.331 3.773-8.861 8.828-9.113z" fill="white"/><path fill-rule="evenodd" clip-rule="evenodd" d="M37.077 40.763c-4.338.051-8.458-.884-12.394-2.678-4.119-1.878-7.458-4.733-10.07-8.41-1.363-1.915-1.003-3.63.811-4.738 1.081-.657 2.207-.772 3.26.071.484.39.963.823 1.331 1.32 4.943 6.597 11.796 8.499 19.601 7.903 2.187-.162 4.421-.952 5.658 1.773.061.138.312.18.431.31.45.513 1.358 1.326 1.25 1.509-.461.758-1.125 1.595-1.909 1.89-1.273.48-2.7.62-4.075.797-1.29.157-2.597.175-3.894.253z" fill="white"/><path fill-rule="evenodd" clip-rule="evenodd" d="M52.393 40.415h6.002c.027.285.079.668.079 1.051.007 6.15.015 12.296-.002 18.453-.004 1.29-.194 2.557-1.447 3.267-1.97 1.125-4.183.004-4.558-2.259-.074-.483-.07-.975-.072-1.466-.004-5.933-.002-11.864-.002-17.79v-1.256z" fill="white"/><path fill-rule="evenodd" clip-rule="evenodd" d="M55.408 30.378c-1.998-.02-3.551-1.655-3.562-3.765-.012-1.985 1.672-3.703 3.637-3.713 1.912-.008 3.636 1.802 3.57 3.777-.055 2.098-1.658 3.72-3.645 3.701z" fill="white"/></svg>