<svg width="14" height="14" viewBox="0 0 14 14" fill="none" xmlns="http://www.w3.org/2000/svg"><path d="M4.045 10.161c1.976 1.976 4.375 3.5 6.337 3.5.882 0 1.654-.307 2.276-.991.363-.403.588-.875.588-1.34 0-.342-.13-.67-.451-.902l-2.099-1.49c-.321-.22-.588-.329-.834-.329-.307 0-.588.178-.902.486l-.485.478a.368.368 0 01-.26.11.643.643 0 01-.274-.076c-.423-.225-1.148-.847-1.825-1.517-.67-.67-1.292-1.395-1.51-1.819a.673.673 0 01-.076-.273c0-.089.028-.178.103-.253l.485-.499c.3-.314.486-.588.486-.902 0-.246-.117-.513-.342-.834l-1.47-2.072a1.12 1.12 0 00-.943-.471c-.452 0-.916.205-1.32.595-.663.635-.957 1.421-.957 2.29 0 1.961 1.497 4.34 3.473 6.31z" fill="white"/></svg>