<svg width="165" height="130" viewBox="0 0 165 130" fill="none" xmlns="http://www.w3.org/2000/svg"><g clip-path="url(#clip0_3315_4524)"><path d="M82 128c34.793 0 62.999-28.206 62.999-63s-28.206-63-63-63C47.206 2 19 30.206 19 65s28.206 63 63 63z" fill="white"/><path fill-rule="evenodd" clip-rule="evenodd" d="M23.932 92.288l36.25-23.724 2.173 3.316-37.083 24.27-1.34-3.862z" fill="#00100F"/><path fill-rule="evenodd" clip-rule="evenodd" d="M128.847 118.264L85.351 51.836l3.332-2.172 42.961 65.621-2.797 2.979z" fill="#00100F"/><path fill-rule="evenodd" clip-rule="evenodd" d="M103.744 30.505l.261-.092.259-.065.272-.04.261-.012h.273l.26.027.26.052.247.064.248.091.247.117.222.131.22.142.209.17.195.194.182.21.156.22.156.272.144.3.09.287.066.298.037.313.015.298-.015.3-.051.299-.078.3-.104.273-.13.286-.155.26-.198.247-.207.221-.233.208-.261.195-.272.157-.288.142-.298.092-.3.078-.299.038h-.312l-.299-.012-.298-.053-.287-.065-.286-.105-.274-.129-.26-.17-.247-.181-.234-.208-.208-.234-.195-.26-.143-.235-.116-.247-.092-.247-.078-.248-.038-.259-.04-.26v-.26l.013-.26.038-.26.052-.247.078-.248.105-.248.116-.234.144-.234.156-.208.182-.207.156-.17 1.053 1.6-.103.17-.079.182-.039.182-.025.195.013.194.04.183.064.182.091.182.169.21.195.154.221.116.234.08.248.013.246-.014.247-.079.235-.116.208-.17.157-.194.129-.222.078-.233.026-.248-.026-.247-.065-.246-.118-.234-.116-.156-.143-.132-.143-.103-.169-.091-.182-.052-.183-.04-.181-.013-.195.026-1.055-1.598.144-.065z" fill="#00100F"/><path fill-rule="evenodd" clip-rule="evenodd" d="M115.645 32.013l2.185 3.317-16.259 10.64-2.172-3.318 16.246-10.64z" fill="#00100F"/><path fill-rule="evenodd" clip-rule="evenodd" d="M109.129 43.459l.026-.013 2.51-1.665.807-.52 10.34 15.791.547-.455.532-.47.495-.467.482-.494.442-.494.429-.494.389-.508.378-.507.337-.508.314-.52.273-.507.261-.52.22-.508.194-.507.156-.507.132-.494-2.005.559.912-2.42.923-2.431 1.678 1.703 1.69 1.704-1.624.455.078.612.025.624-.05.65-.106.65-.169.676-.234.69-.285.69-.339.702-.404.69-.455.689-.494.702-.559.677-.598.676-.651.65-.689.65-.742.625.496.755-3.319 2.171-.48-.715-.885.455-.884.404-.885.364-.872.299-.871.26-.858.196-.833.156-.819.103-.794.04h-.769l-.74-.052-.716-.118-.663-.156-.624-.208-.598-.273-.534-.312-1.182 1.314-.769-2.277-.767-2.276 2.576.247 2.576.26-1.198 1.34.52.079.522.051.545.013h.572l.573-.038.586-.053.598-.09.611-.118.611-.144.624-.168.637-.195.626-.221.636-.248.65-.272.637-.313.638-.325-10.34-15.791z" fill="#00100F"/><path fill-rule="evenodd" clip-rule="evenodd" d="M72.462 70.944l.168-.456.196-.43.22-.428.222-.417.247-.402.26-.378.274-.377.298-.364.3-.351.325-.326.676-.625.716-.571.781-.494.805-.43.832-.364.872-.299.455-.117.443-.105.469-.078.455-.065.467-.038.47-.013h.467l.481.013.47.038.48.065-1.276 4.943-.44-.013-.443.026-.441.052-.43.092-.417.116-.403.144-.39.182-.378.208-.364.234-.338.26-.325.274-.312.312-.273.337-.26.35-.22.378-.21.39-4.929-1.273z" fill="#00100F"/><path fill-rule="evenodd" clip-rule="evenodd" d="M76.884 74.091l-.026.455v.456l.04.442.078.441.117.43.13.417.181.416.196.39.235.364.257.364.288.34.313.31.337.3.365.26.377.248.403.207-1.288 4.93-.456-.182-.44-.196-.43-.22-.416-.22-.404-.262-.39-.26-.377-.287-.365-.285-.337-.312-.339-.326-.326-.337-.298-.352-.286-.364-.273-.377-.262-.39-.234-.391-.22-.403-.208-.417-.195-.429-.169-.428-.144-.442-.13-.444-.116-.455-.092-.454-.078-.47-.052-.466-.04-.468-.012-.482.013-.482.027-.482.053-.482.077-.479 4.916 1.274z" fill="#00100F"/><path fill-rule="evenodd" clip-rule="evenodd" d="M86.184 64.4l.468.17.443.195.442.194.43.235.403.234.402.261.39.285.364.287.365.299.34.325.337.339.312.338.3.363.272.379.273.376.247.403.222.404.22.403.196.428.182.43.156.443.143.441.117.455.104.456.078.469.066.468.038.48.026.469v.482l-.026.481-.038.493-.066.482-4.93-1.275.014-.455-.014-.468-.064-.442-.092-.442-.116-.429-.17-.416-.182-.417-.22-.377-.248-.377-.273-.352-.3-.326-.337-.311-.353-.286-.375-.247-.404-.234-.416-.195 1.274-4.918z" fill="#00100F"/><path fill-rule="evenodd" clip-rule="evenodd" d="M92.922 78.24l-.169.469-.195.455-.208.441-.234.43-.247.418-.272.39-.276.39-.299.377-.312.365-.324.336-.338.326-.353.312-.376.3-.377.285-.391.261-.402.247-.405.233-.428.209-.43.195-.428.17-.457.154-.455.145-.456.116-.467.092-.468.078-.481.052-.468.038-.494.014-.483-.014-.494-.026-.48-.051-.495-.078 1.274-4.916.47.038.48-.013.455-.04.456-.077.443-.117.441-.157.417-.182.403-.208.376-.247.365-.273.352-.312.311-.325.3-.364.259-.377.235-.404.208-.43 4.917 1.276z" fill="#00100F"/><path fill-rule="evenodd" clip-rule="evenodd" d="M89.852 49.183l.313-.234.324-.221.625-.353.638-.272.662-.208.665-.144.675-.064h.665l.676.052.65.117.65.194.624.234.6.313.57.364.534.417.507.468.456.533.403.586.351.623.273.639.208.663.144.663.064.676.013.677-.051.663-.118.662-.181.639-.234.624-.3.612-.364.572-.416.533-.47.494-.531.468-.586.404-.418.233-2.274-3.46.26-.116.26-.13.234-.17.22-.195.197-.194.167-.235.156-.234.118-.247.103-.26.067-.26.05-.273.014-.274v-.286l-.026-.273-.065-.272-.078-.273-.117-.261-.144-.26-.168-.234-.182-.221-.208-.197-.221-.18-.235-.144-.246-.13-.26-.104-.26-.078-.274-.052-.274-.026H94l-.273.026-.272.065-.275.079-.259.116-.261.143-.286.208-.26.235-2.263-3.46z" fill="#00100F"/><path fill-rule="evenodd" clip-rule="evenodd" d="M49.205 82.675l3.33-2.172 12.332 18.823-3.33 2.172-12.332-18.823z" fill="#00100F"/><path fill-rule="evenodd" clip-rule="evenodd" d="M59.975 75.613l3.316-2.172L75.61 92.262l-3.317 2.172-12.317-18.82z" fill="#00100F"/><path d="M35.728 70.207l-2.09 1.361-1.58-.872c-.25-.14-.448-.201-.593-.185a1.028 1.028 0 00-.45.176l1.183 1.818-1.854 1.207-3.146-4.834 1.854-1.206 1.136 1.744c.142-.114.221-.237.239-.37.017-.132 0-.387-.05-.764-.049-.38-.061-.672-.04-.877a1.2 1.2 0 01.224-.573 2.61 2.61 0 01.555-.543c.243-.184.617-.44 1.121-.768l.857 1.316-.082.053a4.54 4.54 0 00-.549.403.75.75 0 00-.234.328c-.037.115-.043.305-.018.57.025.264.028.458.01.583a.63.63 0 01-.2.35c.274-.143.51-.217.707-.22.195-.005.587.135 1.175.422l1.825.881zm.172-4.768l-1.894.966c-.134-.353-.197-.658-.187-.915.01-.262.092-.536.244-.82.109-.206.295-.43.56-.676a6.84 6.84 0 01.915-.706c.556-.362 1.023-.62 1.401-.776a2.035 2.035 0 011.095-.162c.247.034.498.148.753.34.254.19.454.399.602.627l1.391 2.136c.148.228.279.398.391.511.113.108.284.23.511.368l-1.74 1.132a2.186 2.186 0 01-.32-.193 2.635 2.635 0 01-.266-.268c-.09.392-.223.716-.398.972-.24.347-.578.662-1.013.945-.577.375-1.103.527-1.577.456a1.523 1.523 0 01-1.09-.698c-.24-.368-.328-.74-.267-1.117.062-.377.345-.813.85-1.306a34.84 34.84 0 001.163-1.172c.17-.192.34-.409.51-.65-.147-.228-.298-.357-.452-.386-.153-.03-.348.032-.585.186-.304.198-.5.395-.589.59-.069.154-.071.359-.008.616zm2.243-.072c-.196.257-.41.51-.64.76-.312.346-.486.6-.523.762a.554.554 0 00.068.442.563.563 0 00.384.263c.163.023.343-.029.54-.157.207-.135.365-.31.476-.524.114-.217.161-.42.141-.61-.019-.196-.103-.41-.254-.64l-.192-.296zm6.683-7.269c.112-.639.455-1.145 1.029-1.518.622-.406 1.274-.486 1.956-.243.68.24 1.27.747 1.773 1.518.486.747.69 1.464.614 2.15-.079.682-.433 1.228-1.061 1.637-.596.387-1.19.5-1.785.338l1.507 2.314-1.855 1.207-1.5-2.305a2.336 2.336 0 01-1.05 1.494c-.62.404-1.27.485-1.95.244-.681-.244-1.274-.753-1.778-1.527-.486-.747-.69-1.462-.611-2.145.078-.682.43-1.227 1.056-1.634.593-.386 1.197-.487 1.813-.305l-1.53-2.35 1.854-1.207 1.518 2.332zm2.849 2.544a.749.749 0 00.361-.67c-.002-.289-.113-.603-.334-.943-.518-.796-1.038-1.024-1.56-.684a.933.933 0 00-.42.642c-.048.278.07.636.355 1.073.212.325.461.55.75.673.285.12.568.09.848-.091zm-3.508 2.283c.23-.15.37-.365.419-.642.049-.283-.069-.644-.353-1.08-.212-.326-.46-.549-.747-.67-.286-.12-.57-.089-.853.095a.757.757 0 00-.361.67c0 .286.11.598.332.938.52.8 1.04 1.029 1.563.689zm11.948-8.776l-3.717 2.42c.227.275.452.445.674.508.316.093.618.045.906-.143.182-.118.326-.277.43-.474a1.44 1.44 0 00.125-.516l1.937-1.02c.037.667-.073 1.236-.33 1.705-.258.467-.756.94-1.494 1.42-.641.418-1.203.656-1.688.716-.486.057-.978-.031-1.476-.265-.496-.238-.918-.623-1.264-1.155-.492-.756-.649-1.525-.47-2.307.181-.784.699-1.454 1.552-2.01.692-.45 1.307-.701 1.845-.752a2.532 2.532 0 011.508.315c.469.261.91.71 1.326 1.349l.136.21zm-2.464.34c-.27-.335-.534-.529-.793-.58-.255-.055-.51.001-.766.167a1.002 1.002 0 00-.478.81c-.017.22.053.483.21.791l1.827-1.189zm2.184-1.857l2.697-1.755.934 1.435-2.697 1.755-.934-1.435zm6.72 2.734l-4.346-6.679 1.736-1.13.465.716c.044-.457.132-.804.263-1.04.178-.32.43-.585.758-.799.647-.42 1.308-.498 1.983-.233.677.264 1.253.76 1.727 1.49.524.804.732 1.545.623 2.22-.111.674-.461 1.202-1.05 1.586a2.44 2.44 0 01-.879.364 2.24 2.24 0 01-.91-.023l1.503 2.31-1.872 1.218zm-.904-5.456c.249.383.514.615.796.695.281.08.545.04.791-.12a.808.808 0 00.37-.617c.03-.274-.094-.623-.371-1.048-.255-.392-.518-.63-.788-.713-.273-.087-.518-.059-.737.084a.89.89 0 00-.411.663c-.038.288.08.64.35 1.056zm10.017-5.884l-3.718 2.42c.227.276.452.445.675.508.315.093.617.045.906-.143.182-.118.325-.276.43-.474.063-.123.104-.295.125-.516l1.936-1.02c.037.667-.073 1.236-.329 1.706-.258.466-.757.94-1.495 1.42-.64.417-1.203.656-1.687.715-.486.057-.978-.03-1.476-.265-.497-.238-.918-.623-1.264-1.155-.493-.756-.65-1.525-.47-2.307.18-.784.698-1.454 1.552-2.01.692-.45 1.307-.7 1.844-.752a2.532 2.532 0 011.509.315c.468.261.91.71 1.325 1.349l.136.21zm-2.465.34c-.27-.335-.534-.529-.792-.58-.256-.055-.511.001-.767.167a1.002 1.002 0 00-.477.81c-.018.22.052.483.21.791l1.826-1.189zm6.969-3.174l1.893-.947c.142.43.19.853.145 1.268a2.66 2.66 0 01-.446 1.178c-.246.372-.635.731-1.167 1.077-.513.334-.972.566-1.376.695-.404.124-.798.16-1.182.108a2.83 2.83 0 01-1.07-.38c-.328-.197-.647-.535-.957-1.011-.325-.498-.51-.968-.555-1.41a2.653 2.653 0 01.086-.984c.09-.334.217-.623.384-.865.264-.384.68-.76 1.244-1.128.79-.514 1.483-.764 2.08-.75.6.011 1.16.235 1.68.67l-1.593 1.367c-.189-.17-.39-.26-.603-.268-.212-.014-.44.059-.682.217-.307.2-.484.472-.53.818-.047.342.076.736.366 1.182.26.398.55.639.873.723.322.084.63.03.921-.16.243-.157.406-.352.489-.583.086-.233.086-.506 0-.817zm5.657-5.946l-1.344.875 2.266 3.48-1.86 1.21-2.264-3.48-1.344.874-.88-1.353 4.545-2.959.881 1.353zm1.133.793c-.48-.738-.627-1.507-.44-2.308.186-.804.703-1.482 1.55-2.033.97-.63 1.884-.826 2.745-.587.692.194 1.254.622 1.685 1.284.484.744.634 1.515.449 2.314-.184.794-.711 1.475-1.583 2.042-.777.506-1.534.718-2.271.636-.908-.106-1.62-.555-2.135-1.348zm1.855-1.214c.281.431.575.694.883.788.31.092.598.052.862-.12a.974.974 0 00.457-.733c.04-.316-.085-.698-.378-1.148-.272-.42-.562-.674-.867-.765a.962.962 0 00-.844.108 1 1 0 00-.465.75c-.042.322.076.695.352 1.12zm7.368 1.256l-4.347-6.679 1.736-1.13.465.716c.044-.457.132-.804.263-1.04.178-.32.43-.585.758-.799.647-.42 1.308-.498 1.983-.233.677.264 1.253.76 1.727 1.49.524.804.732 1.545.623 2.22-.111.674-.461 1.202-1.05 1.586a2.44 2.44 0 01-.879.364c-.297.055-.6.047-.91-.024l1.503 2.31-1.872 1.219zm-.905-5.456c.25.383.514.614.796.695.282.08.545.04.791-.12a.807.807 0 00.37-.617c.03-.274-.094-.623-.371-1.048-.255-.392-.518-.63-.788-.713-.273-.087-.518-.059-.737.084a.89.89 0 00-.411.663c-.038.288.08.64.35 1.056zm5.482-4.8l-1.894.967c-.135-.354-.197-.659-.187-.916.01-.262.092-.536.244-.82.109-.205.295-.43.56-.676.263-.245.568-.48.915-.706.555-.362 1.023-.62 1.401-.776a2.035 2.035 0 011.095-.161c.247.034.498.147.753.34.253.19.454.398.602.626l1.391 2.137c.148.227.278.398.391.51.113.108.284.23.511.368l-1.74 1.133a2.143 2.143 0 01-.32-.194 2.58 2.58 0 01-.266-.268c-.091.392-.223.716-.398.972-.241.347-.579.662-1.013.945-.577.376-1.103.528-1.577.456a1.523 1.523 0 01-1.09-.698c-.24-.367-.328-.74-.267-1.117s.345-.812.85-1.305c.604-.593.992-.983 1.163-1.172.169-.193.34-.41.51-.65-.148-.229-.299-.357-.452-.387-.153-.03-.349.032-.585.186-.304.198-.5.395-.589.59-.069.154-.072.359-.008.616zm2.242-.072c-.195.257-.409.51-.64.76-.311.346-.485.6-.522.762a.554.554 0 00.067.443.563.563 0 00.385.262c.163.023.343-.029.54-.157.206-.135.365-.31.476-.524.114-.217.161-.42.141-.61-.019-.196-.104-.409-.254-.64l-.193-.296zm9.886-3.166l-1.859 1.21-1.189-1.827-1.685 1.098 1.189 1.826-1.859 1.21-3.146-4.833 1.859-1.21 1.076 1.654 1.686-1.098-1.076-1.653 1.858-1.21 3.146 4.833z" fill="#00100F"/></g><defs><clipPath id="clip0_3315_4524"><path fill="white" transform="translate(19 2)" d="M0 0h126v126H0z"/></clipPath></defs></svg>