<svg width="165" height="130" viewBox="0 0 165 130" fill="none" xmlns="http://www.w3.org/2000/svg"><g clip-path="url(#clip0_3315_4516)" fill="white"><path d="M21 25.925V22h26.366v3.925H21zm0 47.078h26.366v3.925H21v-3.925zm15.142-7.846h-4.045v-28.38c-2.93.524-5.457 1.847-7.572 3.968V35.6c2.921-2.033 6.12-3.053 9.594-3.053 3.617 0 6.816 1.019 9.594 3.053v5.144c-1.943-1.946-4.468-3.27-7.57-3.968v28.38h-.001z"/><path d="M43.493 25.925V22H65.77v3.925H43.493zm0 47.078H65.77v3.925H43.493v-3.925zm6.832-21.49c.521 3.08 1.994 5.647 4.416 7.695 2.422 2.05 5.183 3.073 8.288 3.073v4.099c-4.642 0-8.601-1.657-11.877-4.971-3.279-3.31-4.918-7.293-4.918-11.944 0-4.678 1.632-8.668 4.895-11.966 3.262-3.299 7.23-4.949 11.9-4.949v4.1c-3.133 0-5.902 1.017-8.31 3.05-2.41 2.035-3.874 4.608-4.395 7.717h12.705v4.098H50.325v-.002z"/><path d="M64.945 25.925V22h21.232v3.925H64.945zm0 47.078h21.232v3.925H64.945v-3.925zm2.739-7.846V33.771c2.756 0 4.973.174 6.658.522 2.582.524 4.742 1.787 6.482 3.792 1.743 2.006 2.61 4.302 2.61 6.889 0 3.11-1.164 5.711-3.492 7.804-2.33 2.092-5.066 3.138-8.211 3.138v9.24h-4.047v.001zm4.047-13.296c1.995 0 3.77-.66 5.325-1.982 1.556-1.323 2.333-2.958 2.333-4.905 0-1.948-.794-3.589-2.376-4.926-1.526-1.25-3.287-1.875-5.282-1.875V51.86z"/><path d="M84.74 25.925V22h31.022v3.925H84.74zm0 47.078h31.022v3.925H84.74v-3.925zm24.234-33.346c-2.977 1.976-4.919 4.504-5.823 7.583-.584 1.976-.874 5.23-.874 9.765h-4.048c0-2.295-.072-4.288-.216-5.972-.234-2.644-.832-4.832-1.798-6.56-.964-1.729-2.525-3.306-4.687-4.731v25.414h-4.045V33.771c2.233 0 4.712 1.017 7.438 3.05 2.64 1.978 4.41 4.04 5.308 6.19.929-2.15 2.734-4.228 5.418-6.234 2.682-2.003 5.141-3.006 7.374-3.006v31.385h-4.047v-25.5z"/><path d="M115.24 25.925V22H144v3.925h-28.76zm0 47.078H144v3.925h-28.76v-3.925zm6.785-29.992c3.147 0 5.868 1.047 8.168 3.138 2.3 2.093 3.451 4.695 3.451 7.802 0 4.013-1.696 6.977-5.091 8.895-2.727 1.54-6.251 2.31-10.572 2.31V33.77h4.043v9.24h.001zm0 18.137c1.973 0 3.728-.705 5.266-2.114 1.536-1.41 2.305-3.103 2.305-5.08 0-1.974-.762-3.617-2.284-4.925-1.522-1.307-3.284-1.962-5.287-1.962v14.08zm19.233 4.01h-4.046V33.77h4.046v31.386z"/><path d="M38.503 102.451V88.962l-5.577 13.489h-.995l-5.612-13.489v13.489h-2.664v-17.19h3.516l5.26 12.742 5.182-12.742h3.554v17.19h-2.664z"/><path d="M45.495 93.84c0-4.984 3.269-9.005 8.49-9.005 5.222 0 8.49 4.021 8.49 9.005 0 4.982-3.267 9.039-8.49 9.039-5.221 0-8.49-4.057-8.49-9.04zm14.173 0c0-3.49-2.024-6.621-5.683-6.621-3.657 0-5.718 3.131-5.718 6.62 0 3.522 2.06 6.654 5.718 6.654 3.66 0 5.683-3.133 5.683-6.653z"/><path d="M69.468 99.853v9.148h-2.663v-23.74h2.663v2.564c1.245-1.746 3.376-2.99 5.79-2.99 4.512 0 7.638 3.415 7.638 9.005 0 5.55-3.126 9.039-7.638 9.039-2.344 0-4.405-1.103-5.79-3.026zm10.623-6.013c0-3.81-2.061-6.621-5.508-6.621-2.096 0-4.191 1.245-5.116 2.739v7.761c.925 1.493 3.02 2.775 5.116 2.775 3.448-.001 5.508-2.848 5.508-6.654z"/><path d="M86.126 93.84c0-4.984 3.55-9.005 8.454-9.005 5.184 0 8.24 4.056 8.24 9.217v.676H88.931c.212 3.239 2.485 5.943 6.18 5.943 1.955 0 3.942-.783 5.292-2.171l1.281 1.744c-1.706 1.708-4.017 2.634-6.821 2.634-5.08.001-8.737-3.666-8.737-9.038zm8.417-6.8c-3.66 0-5.47 3.097-5.612 5.73h11.26c-.035-2.563-1.741-5.73-5.648-5.73z"/><path d="M106.117 93.84c0-4.984 3.269-9.005 8.493-9.005 5.22 0 8.487 4.021 8.487 9.005 0 4.982-3.266 9.039-8.487 9.039-5.224 0-8.493-4.057-8.493-9.04zm14.173 0c0-3.49-2.024-6.621-5.681-6.621-3.661 0-5.721 3.131-5.721 6.62 0 3.522 2.06 6.654 5.721 6.654 3.657 0 5.681-3.133 5.681-6.653z"/><path d="M127.427 102.451v-17.19h2.665v7.153h8.951v-7.153h2.663v17.19h-2.663v-7.687h-8.951v7.687h-2.665z"/></g><defs><clipPath id="clip0_3315_4516"><path fill="white" transform="translate(21 22)" d="M0 0h123v87H0z"/></clipPath></defs></svg>