<svg width="165" height="130" viewBox="0 0 165 130" fill="none" xmlns="http://www.w3.org/2000/svg"><path d="M43.142 48.955l.078-.177c1.759-4.303-.176-9.276-4.317-11.101-4.146-1.831-8.933.181-10.69 4.484-.024.06-.047.121-.066.18 2.72-.007 5.484.543 8.147 1.72a20.703 20.703 0 016.848 4.894z" fill="white"/><path d="M16.87 81.947c.538 1.44 1.25 3.297 1.25 3.297.362.925 1.39 1.382 2.284 1.009 0 0 1.773-.761 3.145-1.357a20.662 20.662 0 01-6.679-2.95z" fill="white"/><path d="M18.745 44.714a6.684 6.684 0 00-3.078-1.48C7.675 41.75.381 51.635 2.314 63.343c1.88-3.205 3.871-4.43 5.795-4.83.254-1.023.584-2.039.994-3.037 1.976-4.842 5.46-8.544 9.642-10.76z" fill="white"/><path d="M51.193 58.902c-1.004-.734-2.082-1.141-3.16-1.272a22.244 22.244 0 01-2.167 17.536c1.061 1.715 1.596 4.052.68 7.679 9.45-6.687 11.23-19 4.647-23.943z" fill="white"/><path d="M8.375 70.25c-2.399.708-4.107 3.605-2.27 6.85 1.53 2.695 4.381 3.605 4.735 8.844 1.835-1.827 3.03-3.878 3.626-5.896-2.889-2.647-4.973-6.059-6.091-9.799z" fill="white"/><path d="M26.542 85.375c-.988 1.846-1.581 4.162-1.57 6.805 3.874-3.374 6.487-1.878 9.416-2.609 3.52-.88 4.34-4.17 3.163-6.454a20.116 20.116 0 01-11.01 2.258z" fill="white"/><path d="M22.624 66.227a10.21 10.21 0 014.22.87c1.4.61 2.608 1.497 3.592 2.578a11.403 11.403 0 01.832-4.385 11.072 11.072 0 012.487-3.735 10.163 10.163 0 01-4.22-.864 10.526 10.526 0 01-3.593-2.584 11.37 11.37 0 01-.833 4.388 11.059 11.059 0 01-2.485 3.732z" fill="white"/><path d="M43.473 54.786a10.977 10.977 0 01-2.487 3.733 10.228 10.228 0 015.11 1.309 19.489 19.489 0 00-2.306-5.935c-.092.3-.196.6-.317.893z" fill="white"/><path d="M36.95 79.77a10.533 10.533 0 01-3.588-2.581 11.426 11.426 0 01-1.256 5.309 17.957 17.957 0 005.706-2.398 10.48 10.48 0 01-.861-.33z" fill="white"/><path d="M19.427 48.015a10.618 10.618 0 013.592 2.582 11.32 11.32 0 01.829-4.386 12.6 12.6 0 01.426-.924 18.06 18.06 0 00-5.706 2.397c.286.097.575.205.86.331z" fill="white"/><path d="M12.907 72.998a10.967 10.967 0 012.487-3.736 10.212 10.212 0 01-5.11-1.303 19.653 19.653 0 002.302 5.931c.093-.3.201-.599.32-.892z" fill="white"/><path d="M30.067 48.584c-.867 2.126.099 4.587 2.148 5.488 2.053.895 4.421-.112 5.287-2.238.861-2.128-.11-4.592-2.156-5.49-2.05-.897-4.422.11-5.28 2.24z" fill="white"/><path d="M37.638 68.071c-.857 2.133.11 4.596 2.155 5.492 2.052.894 4.424-.106 5.285-2.241.864-2.13-.106-4.59-2.153-5.485-2.05-.897-4.42.108-5.287 2.234z" fill="white"/><path d="M18.881 75.948c-.864 2.13.107 4.595 2.154 5.49 2.046.896 4.42-.111 5.283-2.238.862-2.13-.105-4.59-2.157-5.489-2.047-.894-4.416.11-5.28 2.237z" fill="white"/><path d="M18.74 59.712c.862-2.137-.104-4.597-2.153-5.493-2.052-.898-4.422.11-5.285 2.242-.863 2.128.104 4.588 2.154 5.487 2.051.897 4.422-.11 5.284-2.236z" fill="white"/><path d="M25.801 46.718c-1.853 4.574.22 9.858 4.623 11.778 1.07.469 2.198.71 3.35.71 3.494 0 6.631-2.163 7.987-5.51a9.3 9.3 0 00.49-1.622 18.259 18.259 0 00-2.238-2.41 6.735 6.735 0 01-.471 3.063c-.98 2.414-3.24 3.976-5.762 3.976a6.042 6.042 0 01-2.424-.51c-3.176-1.388-4.672-5.205-3.336-8.504a6.472 6.472 0 011.807-2.515c-1.071-.1-2.15-.1-3.222-.004a8.835 8.835 0 00-.804 1.548z" fill="white"/><path d="M28.178 82.684c.53 0 1.066-.021 1.593-.072a9.12 9.12 0 00.81-1.553c1.85-4.57-.224-9.855-4.623-11.774a8.3 8.3 0 00-3.359-.71c-3.49 0-6.623 2.163-7.979 5.513a9.701 9.701 0 00-.493 1.62 18.578 18.578 0 002.242 2.408 6.666 6.666 0 01.469-3.061c.98-2.42 3.243-3.978 5.761-3.978.836 0 1.65.17 2.424.506 1.54.679 2.733 1.93 3.363 3.54a6.673 6.673 0 01-.024 4.968 6.494 6.494 0 01-1.808 2.518c.538.052 1.082.075 1.625.075z" fill="white"/><path d="M46.206 65.591c.098-1.104.1-2.226.005-3.35a9.008 9.008 0 00-1.494-.833 8.297 8.297 0 00-3.354-.712c-3.495 0-6.627 2.166-7.984 5.515-1.85 4.567.223 9.853 4.623 11.778.504.217 1.03.392 1.566.511a18.476 18.476 0 002.318-2.329 6.077 6.077 0 01-2.953-.49c-3.174-1.388-4.672-5.202-3.336-8.503.98-2.412 3.242-3.975 5.766-3.975.833 0 1.646.168 2.421.51a6.238 6.238 0 012.422 1.878z" fill="white"/><path d="M10.173 62.19a19.497 19.497 0 00-.002 3.348 9.16 9.16 0 001.493.835 8.3 8.3 0 003.354.71c3.494 0 6.625-2.164 7.981-5.512 1.85-4.567-.224-9.855-4.62-11.78a8.379 8.379 0 00-1.568-.51 18.34 18.34 0 00-2.314 2.331 6.025 6.025 0 012.948.484c3.174 1.393 4.672 5.205 3.34 8.508-.98 2.414-3.244 3.975-5.764 3.975-.834 0-1.65-.172-2.424-.515a6.225 6.225 0 01-2.424-1.874z" fill="white"/><path d="M72.85 55.636c0 2.328 1.582 4.655 5.042 5.283.1.48-.05.998-.494 1.404-4.895.258-7.614 3.62-7.614 6.612 0 2.475 1.83 4.73 5.883 4.73 2.917 0 5.488-1.22 6.873-3.326.94 0 1.483.37 1.483.998 0 2.586-5.538 5.578-11.867 5.578-6.477 0-9.345-3.473-9.345-7.315 0-3.584 3.164-7.352 8.652-8.608-2.719-1.33-3.956-3.361-3.956-5.468 0-3.62 3.857-7.352 10.632-7.352 5.736 0 8.059 2.217 8.059 4.581 0 2.07-1.582 3.88-4.054 3.88-.791 0-2.324-.443-2.868-1.478 1.533-.333 2.423-1.589 2.423-2.735 0-1.145-.89-2.18-2.917-2.18-3.806.002-5.933 2.7-5.933 5.396z" fill="white"/><path d="M86.446 61.326c-.247 0-.544.147-.989.443a1.145 1.145 0 010-2.032c1.682-.997 3.46-1.773 5.538-1.773 1.78 0 2.818.628 2.373 2.032-1.284 4.544-1.878 10.048.199 13.078 3.757-2.217 6.23-6.096 6.23-9.569 0-2.475-.99-4.655-3.066-5.356.099-1.921 1.681-2.882 3.314-2.846 1.928.037 4.005 1.405 4.005 4.102 0 8.46-8.11 17.511-13.45 17.511-5.241 0-5.39-10.75-3.61-15.036.1-.296-.099-.554-.544-.554z" fill="white"/><path d="M110.278 70.968c.496 1.994 2.325 2.733 4.599 2.733 3.561 0 8.109-1.884 10.236-3.99 1.285-.183 1.78.592 1.236 1.257-3.411 3.73-9.147 5.948-13.944 5.948-3.263 0-6.131-.998-7.516-3.215a3.388 3.388 0 01-.594.184c-1.928.37-3.708-.701-3.36-2.143 1.136.111 2.124-.074 3.163-.406-.05-.332-.1-.665-.1-1.034 0-4.803 4.253-12.487 12.413-12.487 4.499 0 5.636 1.884 5.636 3.547 0 3.14-2.225 5.653-11.769 9.606zm-.146-1.59c4.795-2.253 8.059-4.839 8.059-7.24 0-.85-.593-1.441-1.434-1.441-4.895 0-6.479 6.095-6.625 8.682z" fill="white"/><path d="M125.755 59.737c1.682-.997 3.461-1.773 5.538-1.773 1.781 0 2.818.628 2.373 2.032l-.493 1.662c2.076-2.216 5.24-3.694 8.109-3.694 2.62 0 4.5 1.552 3.362 5.43l-2.423 8.497c-.297 1.072.348 1.515 1.336 1.515 1.83 0 3.955-.923 5.191-1.847.545.184.84.517.84.887 0 .258-.148.553-.444.813-2.324 1.957-5.637 3.657-8.95 3.657-2.472 0-5.093-.924-3.856-5.246l2.077-7.353c.444-1.552-.249-2.18-1.336-2.18-1.334 0-3.313.924-4.4 1.92l-3.017 10.53c-.493 1.7-2.373 2.328-4.153 2.328-.89 0-1.729-.184-2.323-.48l4.055-14.187c.196-.591-.051-.924-.496-.924-.247 0-.544.148-.988.444a1.143 1.143 0 01-.002-2.03z" fill="white"/><path d="M157.401 60.292l-2.917 10.382c-.594 2.068.197 2.733 1.483 2.733 1.83 0 3.956-.923 5.192-1.847.544.184.841.517.841.885 0 .26-.149.555-.446.814-2.323 1.958-6.081 3.657-9.393 3.657-3.017 0-4.995-1.404-3.858-5.467l3.164-11.157h-2.472c-.247-1.183.544-2.143 2.077-2.143h.989l.89-3.03c.494-1.7 2.374-2.327 4.153-2.327.89 0 1.731.184 2.323.48l-1.384 4.876h3.61c.248 1.182-.544 2.143-2.077 2.143h-2.175v.001z" fill="white"/></svg>