<svg width="165" height="130" viewBox="0 0 165 130" fill="none" xmlns="http://www.w3.org/2000/svg"><g clip-path="url(#clip0_3315_4518)" fill="white"><path fill-rule="evenodd" clip-rule="evenodd" d="M80.77 86.744l.576-.344c.404.734.856 1.101 1.381 1.101.224 0 .444-.043.635-.151.193-.11.35-.237.443-.424a.996.996 0 00.163-.552c0-.22-.08-.442-.235-.66-.207-.295-.589-.66-1.141-1.066-.566-.427-.91-.727-1.05-.923a1.66 1.66 0 01-.343-1.018c0-.286.062-.549.205-.795.137-.238.33-.418.583-.558.258-.135.535-.214.831-.214.316 0 .618.08.884.24.273.147.568.444.874.859l-.55.414c-.253-.334-.456-.556-.638-.662a1.164 1.164 0 00-.584-.155.96.96 0 00-.67.237.836.836 0 00-.256.605c0 .15.037.284.092.426a2 2 0 00.33.442c.097.092.388.311.87.668.577.434.987.806 1.188 1.137.218.334.328.675.328 1.005 0 .483-.183.903-.55 1.271a1.892 1.892 0 01-1.339.532c-.404 0-.77-.11-1.102-.326-.33-.22-.645-.579-.924-1.09zm5.326-5.44h1.33c.761 0 1.282.04 1.546.108.384.097.696.28.935.58.236.287.366.662.366 1.102 0 .44-.125.8-.354 1.1-.233.287-.563.472-.985.581-.296.077-.861.11-1.686.11h-.48v3.11h-.672v-6.69zm.67.66v2.26l1.133.028c.453 0 .795-.041.999-.138a.947.947 0 00.502-.398 1.1 1.1 0 00.176-.622c0-.221-.056-.428-.176-.614a1.034 1.034 0 00-.487-.402c-.19-.072-.515-.115-.974-.115h-1.172zm7.563-.66l3.122 6.69h-.723l-1.034-2.198H92.79l-1.028 2.198h-.754l3.156-6.69h.166zm-.081 1.414l-1.146 2.428H95.4l-1.153-2.428z"/><g opacity=".25"><path opacity=".25" fill-rule="evenodd" clip-rule="evenodd" d="M20.321 62.974c5.43 4.172 10.833 5.64 13.286 6.123 12.422 2.397-12.882-35.264-16.421-29.955-5.184 7.773-4.967 17.613 3.135 23.832z"/><path opacity=".25" d="M34.656 69.263v-.114c1.524 0 2.294-.87 2.297-2.585.003-3.316-3.027-9.873-7.714-16.716-4.567-6.676-9.024-11.162-11.086-11.162v-.12c2.426 0 7.368 5.629 11.189 11.21 3.565 5.213 7.73 12.729 7.73 16.788 0 1.79-.814 2.699-2.416 2.699z"/></g><g opacity=".25"><path opacity=".25" fill-rule="evenodd" clip-rule="evenodd" d="M30.693 49.165c-1.71 6.2-1.083 11.41-.631 13.71 2.304 11.64 26.11-23.648 20.245-24.85-8.585-1.752-17.058 1.904-19.614 11.14z"/><path opacity=".25" d="M32.182 65.285c-1.133 0-1.866-.81-2.174-2.394-.398-2.012-1.133-7.378.631-13.744 1.014-3.684 3.063-6.695 5.919-8.715 2.68-1.892 5.997-2.89 9.605-2.89 1.372 0 2.766.147 4.154.429.748.154 1.07.835.948 2.02-.297 2.95-3.482 9.12-7.748 14.998-4.664 6.45-8.904 10.296-11.335 10.296zm13.98-27.626c-3.58 0-6.879.99-9.537 2.87-2.832 2.006-4.865 4.991-5.877 8.653-1.75 6.338-1.018 11.679-.627 13.683.302 1.526.993 2.3 2.06 2.3 1.234 0 3.002-1.05 5.11-3.042 1.9-1.797 4.02-4.287 6.136-7.2 4.25-5.866 7.422-12.013 7.722-14.944.113-1.114-.173-1.75-.855-1.886a20.096 20.096 0 00-4.131-.434z"/></g><g opacity=".25"><path opacity=".25" fill-rule="evenodd" clip-rule="evenodd" d="M23.207 54.44c2.28 5.49 5.702 8.927 7.34 10.346 8.301 7.184 5.582-32.078.621-29.617-7.253 3.594-11.35 11.086-7.96 19.27z"/><path opacity=".25" d="M32.413 65.724v-.12c1.12 0 1.993-1.19 2.59-3.537.523-2.062.798-4.945.798-8.344 0-8.603-1.827-18.606-4.184-18.606V35c2.467 0 4.303 9.886 4.303 18.723 0 3.406-.276 6.301-.803 8.378-.61 2.403-1.52 3.623-2.704 3.623z"/></g><g opacity=".25"><path opacity=".25" fill-rule="evenodd" clip-rule="evenodd" d="M46.856 53.18c-6.314 2.674-10.255 6.652-11.869 8.548-8.216 9.629 37.036 6.171 34.158.478-4.212-8.34-12.874-13-22.289-9.026z"/><path opacity=".25" d="M47.288 67.827c-7.453 0-12.26-1.154-13.191-3.171-.392-.855-.106-1.85.84-2.97 1.417-1.657 5.413-5.813 11.9-8.56 2.266-.957 4.564-1.442 6.823-1.442 6.414 0 12.221 3.922 15.537 10.493.198.397.184.806-.063 1.199-1.614 2.615-12.807 4.451-21.846 4.451zm6.372-16.031c-2.241 0-4.523.487-6.782 1.438-6.454 2.733-10.435 6.88-11.85 8.532-.916 1.078-1.193 2.034-.825 2.837.91 1.975 5.676 3.094 13.085 3.094 4.605 0 9.625-.445 13.773-1.246 4.417-.846 7.254-1.96 7.978-3.14.217-.355.237-.718.053-1.08-3.295-6.53-9.064-10.435-15.432-10.435z"/></g><g opacity=".25"><path opacity=".25" fill-rule="evenodd" clip-rule="evenodd" d="M47.111 56.278c-6.36.95-10.87 3.651-12.779 5.003-9.706 6.84 32.227 14.215 30.943 8.368-1.89-8.555-8.682-14.806-18.164-13.37z"/><path opacity=".25" d="M59.404 71.827c-9.052 0-25.175-3.67-26.503-7.856-.3-.955.167-1.87 1.395-2.734 1.674-1.185 6.273-4.035 12.803-5.025a18.85 18.85 0 012.672-.203c7.63 0 13.728 5.348 15.558 13.628.081.356.008.672-.211.947-.829 1.023-3.565 1.243-5.714 1.243zM49.77 56.128c-.865 0-1.762.069-2.652.206-6.507.976-11.088 3.82-12.755 4.993-1.18.839-1.631 1.709-1.348 2.607.581 1.837 4.342 3.814 10.311 5.421 5.298 1.425 11.609 2.359 16.077 2.359 3.043 0 4.988-.415 5.62-1.207a.972.972 0 00.194-.845c-1.821-8.223-7.88-13.534-15.447-13.534z"/></g><g opacity=".25"><path opacity=".25" fill-rule="evenodd" clip-rule="evenodd" d="M39.245 51.592c-4.085 4.313-5.84 8.84-6.46 10.913C29.6 73.01 64.35 54.545 60.09 51.015c-6.242-5.17-14.754-5.853-20.846.577z"/><path opacity=".25" d="M35.277 65.757c-1.175 0-1.99-.292-2.416-.865-.409-.55-.456-1.36-.137-2.406.552-1.812 2.276-6.501 6.477-10.938 2.885-3.044 6.468-4.654 10.353-4.654 3.648 0 7.398 1.449 10.576 4.07.39.325.485.774.28 1.341-.686 1.892-4.846 5.137-10.6 8.26-4.628 2.508-10.877 5.192-14.533 5.192zm14.277-18.75c-3.848 0-7.404 1.599-10.263 4.617-4.184 4.425-5.905 9.093-6.454 10.897-.307 1.011-.267 1.782.116 2.305.407.536 1.186.806 2.325.806 2.383 0 7.433-1.358 14.47-5.169 5.732-3.11 9.877-6.327 10.545-8.198.188-.518.109-.923-.242-1.208-3.152-2.61-6.879-4.05-10.497-4.05z"/></g><g opacity=".25"><path opacity=".25" fill-rule="evenodd" clip-rule="evenodd" d="M46.725 74.913c-1.856-6.61-5.301-11.015-6.982-12.86-8.503-9.367-10.805 35.95-4.784 33.821 8.8-3.124 14.523-11.128 11.766-20.96z"/><path opacity=".25" d="M34.552 96c-.987 0-1.76-1.265-2.296-3.786-.482-2.232-.734-5.304-.734-8.872 0-5.269.569-10.913 1.525-15.077 1.423-6.242 3.215-7.548 4.465-7.548v.12c-3.624 0-5.873 11.68-5.873 22.505 0 7.627 1.147 12.54 2.912 12.545V96z"/></g><g opacity=".25"><path opacity=".25" fill-rule="evenodd" clip-rule="evenodd" d="M43.622 74.774c-.15-6.432-2.257-11.24-3.356-13.31-5.556-10.49-18.174 30.166-12.211 29.622 8.73-.8 15.789-6.746 15.567-16.312z"/><path opacity=".25" d="M27.937 91.155c-.983 0-1.506-1.173-1.506-3.373 0-3.89 1.656-10.911 4.02-17.072 1.28-3.313 4.578-11.035 7.673-11.035v.117c-2.093 0-4.92 4.099-7.563 10.968-2.358 6.137-4.01 13.133-4.01 17.022 0 1.482.24 3.247 1.386 3.247v.126z"/></g><g opacity=".25"><path opacity=".25" fill-rule="evenodd" clip-rule="evenodd" d="M49.267 67.565c-3.763-4.601-8.038-6.908-10.008-7.797-10.023-4.481 3.9 32.321 7.945 28.534 5.91-5.536 7.668-13.883 2.063-20.737z"/><path opacity=".25" d="M46.541 88.636c-1.255 0-3.69-2.593-6.763-9.867-2.517-5.956-4.143-12.129-4.143-15.723 0-1.168.166-2.07.49-2.689.358-.682.904-1.027 1.63-1.027v.117c-.676 0-1.19.332-1.52.963-.317.607-.476 1.49-.476 2.635 0 7.845 7.456 25.475 10.783 25.477v.114z"/></g><g opacity=".25"><path opacity=".25" fill-rule="evenodd" clip-rule="evenodd" d="M26.026 76.189c5.596-3.951 8.59-8.68 9.77-10.885 5.959-11.16-37.501 1.896-33.47 6.854 5.893 7.242 15.359 9.94 23.7 4.03z"/><path opacity=".25" d="M16.371 79.47c-5.187 0-10.324-2.647-14.097-7.273-.32-.402-.36-.87-.117-1.377 1.815-3.819 19.678-9.96 28.958-9.96 2.716 0 4.408.523 5.03 1.567.442.731.338 1.714-.299 2.904-1.025 1.925-4.047 6.848-9.79 10.904-3.033 2.146-6.292 3.235-9.685 3.235zm14.744-18.495c-9.25 0-27.046 6.1-28.852 9.9-.22.457-.188.88.108 1.248 3.746 4.593 8.846 7.238 14 7.238 3.373 0 6.604-1.087 9.62-3.219 5.721-4.048 8.726-8.945 9.745-10.866.627-1.156.725-2.095.31-2.784-.604-1.006-2.262-1.517-4.931-1.517z"/></g><g opacity=".25"><path opacity=".25" fill-rule="evenodd" clip-rule="evenodd" d="M25.117 73.23c5.998-2.302 9.828-5.898 11.41-7.63 8.008-8.761-34.526-6.982-32.017-1.55 3.68 7.948 11.654 12.597 20.607 9.18z"/><path opacity=".25" d="M19.203 74.418c-3.117 0-6.13-.99-8.73-2.87-2.505-1.79-4.587-4.38-6.016-7.474-.172-.377-.146-.745.085-1.103.824-1.295 4.05-2.123 6.614-2.58 3.332-.604 7.585-.949 11.647-.949 8.225 0 13.697 1.282 14.64 3.41.362.826.066 1.76-.875 2.783-1.38 1.51-5.267 5.29-11.434 7.646-1.979.752-3.977 1.137-5.931 1.137zm3.6-14.853c-7.836 0-16.776 1.296-18.163 3.47-.206.324-.233.654-.075.99 2.975 6.442 8.447 10.279 14.638 10.279 1.937 0 3.921-.385 5.89-1.128 6.145-2.356 10.014-6.113 11.39-7.615.904-.992 1.187-1.883.85-2.657-.471-1.083-2.212-1.962-5.021-2.545-2.521-.516-5.805-.794-9.51-.794z"/></g><g opacity=".25"><path opacity=".25" fill-rule="evenodd" clip-rule="evenodd" d="M33.8 76.12c3.07-5.084 3.81-9.888 3.979-12.045.86-10.94-29.135 14.532-24.214 17.066 7.206 3.712 15.662 2.556 20.235-5.021z"/><path opacity=".25" d="M21.606 83.252c-2.675 0-5.46-.71-8.067-2.057-.521-.27-.692-.777-.51-1.526 1.175-4.844 16.969-18.367 22.713-18.367.688 0 1.215.19 1.568.575.43.463.605 1.203.53 2.198-.15 1.89-.833 6.841-3.984 12.074-2.767 4.576-7.112 7.103-12.25 7.103zM35.742 61.42c-3.041 0-8.712 3.793-12.997 7.347-5.204 4.31-9.06 8.707-9.601 10.925-.168.697-.014 1.155.446 1.395 2.589 1.34 5.361 2.035 8.016 2.035 5.09 0 9.41-2.496 12.144-7.03 3.145-5.216 3.826-10.142 3.971-12.023.077-.967-.092-1.674-.495-2.108-.331-.356-.828-.541-1.484-.541z"/></g><path d="M97.693 73.508c-.825 0-1.544-.305-1.955-.832l.946-.719c.19.254.681.403 1.198.356.514-.047.913-.263 1.077-.576.249-.463.261-1.012.057-1.428-.193-.412-.586-.672-1.117-.77-1.312-.222-2.88.435-4.136.95l-.32.146c-.341.129-.675.282-1.018.419-1.253.538-2.561 1.086-3.9 1.512-2.492.785-4.484.792-5.935.016-1.074-.57-1.82-1.557-2.207-2.932l1.148-.326c.292 1.07.825 1.786 1.613 2.212 1.141.604 2.885.568 5.032-.11 1.282-.4 2.556-.938 3.784-1.472.346-.138.686-.278 1.035-.418l.31-.133c1.396-.587 3.145-1.323 4.793-1.026.915.154 1.62.66 1.986 1.395.37.77.354 1.707-.076 2.517-.344.68-1.113 1.124-2.019 1.211-.107.003-.202.008-.296.008z"/><path d="M118.296 73.903c-.823 0-1.549-.313-1.961-.827l.937-.73c.201.253.698.402 1.209.362.505-.055.912-.257 1.081-.58.241-.466.265-1.016.057-1.43-.199-.415-.588-.668-1.129-.757-1.301-.24-2.875.421-4.122.947l-.326.137c-.34.142-.688.284-1.026.421-1.262.53-2.554 1.081-3.885 1.51-2.504.783-4.508.797-5.95.013-1.078-.57-1.812-1.556-2.207-2.923l1.137-.326c.31 1.06.841 1.777 1.631 2.209 1.142.615 2.88.578 5.025-.102 1.276-.413 2.556-.95 3.787-1.466.338-.145.686-.294 1.023-.442l.325-.129c1.403-.584 3.145-1.319 4.797-1.023.917.16 1.624.66 1.99 1.405.371.766.35 1.7-.074 2.505-.364.674-1.112 1.134-2.033 1.214-.097.012-.191.012-.286.012z"/><path d="M138.857 73.63c-.812 0-1.541-.314-1.943-.825l.935-.735c.197.254.692.404 1.194.36.517-.048.919-.253 1.085-.577.238-.465.264-1.017.055-1.436-.2-.408-.588-.66-1.12-.755-1.311-.235-2.878.426-4.128.952l-.323.135c-.338.139-.68.287-1.023.421-1.25.532-2.556 1.084-3.886 1.507-2.489.79-4.496.802-5.948.02-1.08-.569-1.816-1.56-2.203-2.924l1.142-.331c.3 1.062.836 1.783 1.614 2.208 1.149.616 2.888.583 5.036-.1 1.286-.412 2.556-.948 3.784-1.462.345-.146.681-.298 1.03-.438l.314-.135c1.398-.584 3.14-1.318 4.794-1.024.914.162 1.623.663 1.984 1.407.381.764.354 1.701-.071 2.502-.349.678-1.114 1.134-2.025 1.214-.101.016-.197.016-.297.016z"/><path d="M159.347 74.013c-.814 0-1.544-.293-1.953-.826l.936-.72c.206.258.697.407 1.198.353.515-.036.921-.252 1.09-.567.232-.476.252-1.011.052-1.432-.199-.407-.588-.68-1.122-.776-1.305-.217-2.87.43-4.13.956l-.315.136c-.348.139-.685.288-1.024.434-1.256.533-2.552 1.078-3.892 1.502-2.492.79-4.49.792-5.94.022-1.075-.576-1.819-1.559-2.206-2.936l1.14-.33c.301 1.067.826 1.798 1.623 2.217 1.133.607 2.876.574 5.023-.108 1.285-.402 2.555-.945 3.793-1.462.341-.151.68-.295 1.023-.43l.314-.137c1.399-.585 3.138-1.31 4.792-1.021.921.153 1.617.65 1.984 1.396.381.77.347 1.707-.065 2.516-.356.68-1.111 1.12-2.03 1.211-.1.002-.2.002-.291.002z"/><path d="M80.784 53.81h1.186l3.624 4.955 3.472-4.955h1.12v9.657h-1.174V55.66l-3.417 4.803h-.17l-3.468-4.758v7.762h-1.172V53.81z"/><path d="M101.386 53.673c2.796 0 4.908 2.032 4.908 4.973 0 2.865-2.111 4.958-4.908 4.958-2.81 0-4.924-2.028-4.924-4.958 0-2.799 2.046-4.973 4.924-4.973zm0 8.831c2.205 0 3.679-1.681 3.679-3.858 0-2.251-1.61-3.867-3.679-3.867-2.105 0-3.689 1.616-3.689 3.867 0 2.184 1.614 3.858 3.689 3.858z"/><path d="M112.574 63.467V53.81c.538 0 1.918-.027 2.526-.027 2.759 0 3.575 1.491 3.575 2.998 0 1.57-1.111 3.028-3.474 3.028a16.7 16.7 0 01-1.447-.052v3.71h-1.18zm1.18-8.551v3.73c.464.038.917.063 1.401.063 1.422 0 2.277-.727 2.277-1.944 0-1.139-.686-1.874-2.221-1.874-.386 0-1.005.016-1.457.025z"/><path d="M124.952 53.81h5.44v1.106h-4.267v3.12h3.859v1.104h-3.859v3.227h4.412v1.1h-5.585V53.81z"/><path d="M141.177 53.673c2.801 0 4.919 2.032 4.919 4.973 0 2.865-2.118 4.958-4.919 4.958-2.796 0-4.921-2.028-4.921-4.958 0-2.799 2.053-4.973 4.921-4.973zm0 8.831c2.202 0 3.683-1.681 3.683-3.858 0-2.251-1.616-3.867-3.683-3.867-2.098 0-3.681 1.616-3.681 3.867 0 2.184 1.606 3.858 3.681 3.858z"/><path d="M158.853 59.096h-5.315v4.371h-1.168V53.81h1.168v4.182h5.315v-4.181h1.168v9.656h-1.168v-4.37z"/></g><defs><clipPath id="clip0_3315_4518"><path fill="white" transform="translate(2 35)" d="M0 0h160v61H0z"/></clipPath></defs></svg>