<svg width="165" height="130" viewBox="0 0 165 130" fill="none" xmlns="http://www.w3.org/2000/svg"><g clip-path="url(#clip0_3315_4515)" fill="white"><path d="M70.07 76.787h-4.973V66.454L61.8 73.313h-2.139l-3.296-6.859v10.332h-4.828V60.328h5.508l3.759 7.621 3.758-7.621h5.508v16.459z"/><path d="M88.937 68.564c0 2.708-.73 4.841-2.19 6.398-1.46 1.56-3.526 2.338-6.197 2.338-2.649 0-4.71-.778-6.178-2.338-1.47-1.557-2.205-3.69-2.205-6.398 0-2.734.735-4.877 2.205-6.425 1.469-1.55 3.53-2.324 6.178-2.324 2.662 0 4.725.78 6.189 2.337 1.464 1.56 2.198 3.696 2.198 6.412zm-5.19.031c0-.977-.08-1.791-.239-2.441-.158-.65-.379-1.17-.657-1.56-.298-.41-.637-.697-1.012-.857a3.234 3.234 0 00-1.288-.242c-.453 0-.862.07-1.228.213-.366.14-.703.412-1.012.813-.29.38-.52.904-.694 1.567-.173.665-.26 1.5-.26 2.507 0 1.005.082 1.82.245 2.44.164.62.376 1.117.637 1.488.27.38.607.66 1.011.834.405.177.854.265 1.345.265.404 0 .817-.088 1.236-.265a2.294 2.294 0 001.005-.79c.299-.42.524-.926.679-1.517.155-.59.231-1.41.231-2.455z"/><path d="M107.099 68.33c0 2.63-.657 4.749-1.973 6.361-1.316 1.613-2.937 2.42-4.864 2.42-.811 0-1.515-.095-2.111-.28-.597-.185-1.235-.474-1.91-.863v6.858h-5.058V60.328h5.058v1.714a11.778 11.778 0 012.27-1.568c.77-.4 1.662-.6 2.674-.6 1.881 0 3.335.757 4.367 2.272 1.032 1.514 1.547 3.576 1.547 6.185zm-5.177.103c0-1.602-.242-2.765-.729-3.487-.487-.724-1.246-1.085-2.278-1.085-.453 0-.903.074-1.35.22-.448.146-.89.366-1.324.66v8.281c.27.116.567.2.89.248.322.048.706.074 1.15.074 1.233 0 2.149-.408 2.746-1.225.597-.816.895-2.043.895-3.686z"/><path d="M118.75 77.227c-3.065 0-5.413-.742-7.048-2.228-1.632-1.484-2.45-3.6-2.45-6.345 0-2.687.762-4.832 2.284-6.434 1.523-1.603 3.653-2.405 6.391-2.405 2.486 0 4.355.681 5.61 2.038 1.251 1.36 1.879 3.302 1.879 5.833v1.847h-11.089c.048.762.207 1.399.476 1.912.271.513.627.92 1.07 1.225.435.303.94.52 1.518.652a8.548 8.548 0 001.893.198c.589 0 1.167-.066 1.735-.198a8.21 8.21 0 001.561-.52 11.167 11.167 0 002.012-1.172h.535v4.234c-.415.166-.794.32-1.136.462-.342.142-.811.287-1.411.433-.548.146-1.113.261-1.696.344-.585.082-1.294.124-2.134.124zm1.677-10.787c-.028-1.086-.276-1.91-.743-2.478-.469-.566-1.184-.85-2.148-.85-.983 0-1.75.3-2.306.895-.555.597-.859 1.406-.917 2.433h6.114z"/><path d="M144.34 68.564c0 2.708-.729 4.841-2.189 6.398-1.461 1.56-3.524 2.338-6.194 2.338-2.651 0-4.71-.778-6.181-2.338-1.47-1.557-2.203-3.69-2.203-6.398 0-2.734.733-4.877 2.203-6.425 1.471-1.55 3.531-2.324 6.181-2.324 2.66 0 4.722.78 6.188 2.337 1.464 1.56 2.195 3.696 2.195 6.412zm-5.188.031c0-.977-.081-1.791-.239-2.441-.16-.65-.378-1.17-.659-1.56-.298-.41-.635-.697-1.011-.857a3.227 3.227 0 00-1.287-.242c-.452 0-.863.07-1.228.213-.367.14-.705.412-1.014.813-.289.38-.519.904-.693 1.567-.174.665-.26 1.5-.26 2.507 0 1.005.081 1.82.246 2.44.164.62.374 1.117.635 1.488.27.38.607.66 1.013.834.405.177.852.265 1.345.265.404 0 .815-.088 1.236-.265a2.291 2.291 0 001.004-.79c.298-.42.525-.926.679-1.517.155-.59.233-1.41.233-2.455z"/><path d="M162 76.787h-5.06v-7.05h-5.235v7.05h-5.058v-16.46h5.058v5.702h5.235v-5.701H162v16.459z"/><path d="M55.258 53.772h-.675V50.61l-.973 2.053h-.508l-.964-2.053v3.163h-.64v-4.027h.825l1.066 2.235 1.031-2.235h.839v4.027h-.001z"/><path d="M59.356 53.772h-.682V51.96h-1.836v1.813h-.683v-4.027h.683v1.63h1.836v-1.63h.682v4.027z"/><path d="M63.585 51.76c0 .678-.163 1.203-.492 1.57-.33.369-.768.554-1.315.554-.564 0-1.007-.19-1.33-.572-.322-.38-.484-.897-.484-1.55 0-.673.167-1.197.5-1.57.332-.371.77-.559 1.315-.559.547 0 .985.187 1.314.558.329.37.492.895.492 1.57zm-.703 0c0-.521-.095-.908-.287-1.16-.192-.256-.464-.382-.817-.382-.355 0-.63.126-.822.381-.192.253-.288.64-.288 1.162 0 .504.096.887.288 1.148.193.261.467.391.822.391.35 0 .622-.127.815-.384.193-.255.289-.642.289-1.155z"/><path d="M66.773 50.34H64.88v3.432h-.683v-4.027h2.576v.596z"/><path d="M70.526 51.76c0 .678-.164 1.203-.493 1.57-.328.369-.767.554-1.314.554-.563 0-1.006-.19-1.33-.572-.323-.38-.483-.897-.483-1.55 0-.673.165-1.197.498-1.57.332-.371.772-.559 1.315-.559.547 0 .986.187 1.314.558.329.37.493.895.493 1.57zm-.703 0c0-.521-.096-.908-.287-1.16-.191-.256-.463-.382-.817-.382-.354 0-.629.126-.822.381-.192.253-.288.64-.288 1.162 0 .504.096.887.288 1.148.193.261.468.391.822.391.35 0 .623-.127.816-.384.192-.255.288-.642.288-1.155z"/><path d="M76.067 51.652c0 .36-.045.675-.133.95a2.042 2.042 0 01-.35.68 1.52 1.52 0 01-.5.41 1.31 1.31 0 01-.586.138.9.9 0 01-.4-.086 15.239 15.239 0 01-.291-.149v1.664h-.676v-1.664a8.708 8.708 0 01-.342.173c-.083.042-.223.062-.417.062-.455 0-.818-.183-1.091-.55-.274-.367-.41-.869-.41-1.508 0-.336.043-.637.13-.902a2.06 2.06 0 01.36-.675c.14-.17.302-.303.488-.398.185-.095.377-.143.578-.143a1 1 0 01.387.074c.114.05.22.107.318.168v-1.734h.675v1.734c.106-.065.228-.12.366-.17.138-.046.28-.071.424-.071.455 0 .813.182 1.076.543.263.361.394.846.394 1.454zM73.13 53.08v-2.686a3.025 3.025 0 00-.262-.108.867.867 0 00-.29-.046.874.874 0 00-.736.362c-.183.243-.273.623-.273 1.137 0 .468.081.837.244 1.107a.779.779 0 00.703.403c.12 0 .23-.019.326-.054a5.63 5.63 0 00.288-.115zm2.234-1.352c0-.459-.078-.822-.233-1.088a.752.752 0 00-.691-.4.993.993 0 00-.333.05c-.095.03-.196.066-.302.105v2.685c.106.052.192.092.26.123a.685.685 0 00.29.047.858.858 0 00.742-.386c.178-.257.267-.636.267-1.136z"/><path d="M79.882 49.745L77.7 55.26h-.73l.727-1.681-1.474-3.833h.737l1.107 2.982 1.104-2.982h.71z"/><path d="M83.51 53.772h-.684V51.96h-1.834v1.813h-.683v-4.027h.683v1.63h1.834v-1.63h.684v4.027z"/><path d="M87.667 53.772h-.85l-1.39-1.855h-.34v1.855h-.684v-4.027h.684v1.753a.928.928 0 00.45-.11c.124-.071.23-.209.318-.412a6.404 6.404 0 00.167-.419c.106-.296.254-.505.443-.629.188-.12.434-.183.737-.183h.184v.584h-.156c-.19 0-.335.04-.429.118-.096.078-.176.22-.242.427a1.62 1.62 0 01-.239.489 1.018 1.018 0 01-.306.268l1.653 2.141z"/><path d="M91.593 54.738h-.635v-.966h-2.943v-4.027h.683v3.443h1.812v-3.443h.68v3.443h.404v1.55z"/><path d="M95.376 53.772H94.7V50.77l-1.908 3.003h-.617v-4.027h.676v2.957l1.885-2.957h.64v4.027h-.001z"/><path d="M99.609 51.76c0 .678-.164 1.203-.493 1.57-.329.369-.768.554-1.315.554-.563 0-1.005-.19-1.33-.572-.323-.38-.483-.897-.483-1.55 0-.673.166-1.197.499-1.57.333-.371.771-.559 1.314-.559.546 0 .985.187 1.314.558.33.37.494.895.494 1.57zm-.704 0c0-.521-.096-.908-.286-1.16-.192-.256-.463-.382-.818-.382-.354 0-.629.126-.821.381-.192.253-.288.64-.288 1.162 0 .504.096.887.288 1.148.193.261.467.391.821.391.35 0 .624-.127.816-.384.192-.255.288-.642.288-1.155z"/><path d="M103.421 53.772h-.681V51.96h-1.838v1.813h-.681v-4.027h.681v1.63h1.838v-1.63h.681v4.027z"/><path d="M106.58 53.344a5.21 5.21 0 00-.222.17 1.774 1.774 0 01-.271.175c-.122.064-.239.11-.351.144a1.675 1.675 0 01-.474.051c-.167 0-.326-.032-.476-.093a1.206 1.206 0 01-.394-.262 1.266 1.266 0 01-.262-.41 1.391 1.391 0 01-.098-.514c0-.279.059-.517.178-.712.118-.196.306-.352.563-.467.226-.104.495-.176.805-.214.311-.04.644-.07 1.002-.089v-.129a.865.865 0 00-.072-.384.53.53 0 00-.205-.225.782.782 0 00-.318-.11 2.92 2.92 0 00-.389-.028 2.65 2.65 0 00-.555.07 3.77 3.77 0 00-.638.205h-.041v-.69c.126-.035.306-.075.541-.118.235-.043.467-.066.697-.066.278 0 .513.023.704.066.192.044.362.122.514.234.148.111.259.255.331.43.074.174.11.388.11.64v2.755h-.679v-.429zm0-.562v-1.119l-.615.06a3.29 3.29 0 00-.601.106 1.12 1.12 0 00-.451.255c-.118.114-.176.273-.176.477 0 .231.065.405.196.523.131.117.321.177.573.177.215 0 .41-.047.584-.14.173-.092.338-.205.49-.339z"/><path d="M111.266 53.772h-.683v-3.457h-1.393c-.008.2-.013.39-.021.575-.009.184-.014.35-.023.5a9.503 9.503 0 01-.074.948 3.39 3.39 0 01-.132.612c-.053.16-.112.283-.176.371a1.47 1.47 0 01-.216.242.911.911 0 01-.265.163.906.906 0 01-.318.053 6.607 6.607 0 01-.276-.007v-.59h.035c.017 0 .034 0 .053.002a.594.594 0 00.234-.02.335.335 0 00.148-.095c.122-.118.211-.324.266-.618.054-.294.094-.707.119-1.235.01-.197.02-.43.027-.7.009-.268.016-.526.025-.771h2.67v4.027z"/><path d="M115.234 52.525c0 .195-.04.37-.118.53-.078.16-.185.287-.32.385a1.493 1.493 0 01-.513.256 2.628 2.628 0 01-.7.076h-1.418v-4.027h.681v1.57h.755c.304 0 .541.015.709.046.168.032.337.108.503.231a.95.95 0 01.316.397c.071.16.105.34.105.536zm-.703.01a.767.767 0 00-.065-.322.492.492 0 00-.208-.224.817.817 0 00-.346-.11 6.413 6.413 0 00-.558-.018h-.508v1.37h.494c.24 0 .429-.01.561-.03a.918.918 0 00.344-.117.578.578 0 00.217-.221.701.701 0 00.069-.327z"/><path d="M118.994 53.772h-.68V51.96h-1.838v1.813h-.681v-4.027h.681v1.63h1.838v-1.63h.68v4.027z"/><path d="M122.897 52.525c0 .195-.038.37-.118.53-.078.16-.184.287-.32.385-.16.122-.331.206-.512.256a2.628 2.628 0 01-.7.076h-1.357v-4.027h.681v1.57h.694c.304 0 .541.015.709.046.168.032.336.108.502.231a.97.97 0 01.317.397c.07.16.104.34.104.536zm-.703.01a.767.767 0 00-.064-.322.498.498 0 00-.208-.224.812.812 0 00-.347-.11 6.355 6.355 0 00-.557-.018h-.447v1.37h.433c.241 0 .428-.01.561-.03a.947.947 0 00.347-.117.583.583 0 00.214-.221.678.678 0 00.068-.327zm1.857 1.237h-.681v-4.027h.681v4.027z"/><path d="M128.15 53.772h-.675V50.77l-1.907 3.003h-.617v-4.027h.674v2.957l1.886-2.957h.639v4.027zm-.305-5.897c0 .206-.026.394-.076.564-.05.17-.124.311-.218.427a1.09 1.09 0 01-.369.287 1.26 1.26 0 01-.531.095c-.198 0-.372-.032-.52-.099a.997.997 0 01-.375-.283 1.227 1.227 0 01-.227-.432 1.954 1.954 0 01-.076-.558h.589c0 .325.049.557.152.7.102.144.254.215.457.215.192 0 .341-.07.448-.21.105-.141.16-.377.16-.705h.586v-.001z"/><path d="M134.544 53.772h-.849l-1.391-1.855h-.34v1.855h-.683v-4.027h.683v1.753a.929.929 0 00.451-.11c.124-.071.23-.209.318-.412a7.004 7.004 0 00.166-.419c.105-.296.255-.505.442-.629.189-.12.435-.183.738-.183h.185v.584h-.157c-.191 0-.335.04-.429.118-.096.078-.177.22-.242.427-.068.21-.149.372-.239.489a1.023 1.023 0 01-.306.268l1.653 2.141z"/><path d="M138.229 51.76c0 .678-.164 1.203-.495 1.57-.328.369-.765.554-1.312.554-.565 0-1.008-.19-1.33-.572-.323-.38-.485-.897-.485-1.55 0-.673.166-1.197.499-1.57.332-.371.771-.559 1.316-.559.547 0 .984.187 1.312.558.33.37.495.895.495 1.57zm-.706 0c0-.521-.095-.908-.286-1.16-.19-.256-.463-.382-.815-.382-.357 0-.631.126-.824.381-.193.253-.289.64-.289 1.162 0 .504.096.887.289 1.148.193.261.467.391.824.391.35 0 .621-.127.814-.384.191-.255.287-.642.287-1.155z"/><path d="M142.599 53.772h-.675V50.61l-.973 2.053h-.507l-.966-2.053v3.163h-.64v-4.027h.824l1.068 2.235 1.029-2.235h.839v4.027h.001z"/><path d="M146.698 53.772h-.683V50.33h-1.835v3.443h-.683v-4.027h3.201v4.027z"/><path d="M150.733 53.772h-.682v-3.457h-1.394c-.006.2-.014.39-.022.575-.006.184-.014.35-.02.5-.016.377-.04.693-.076.948a3.16 3.16 0 01-.133.612c-.052.16-.112.283-.174.371-.066.09-.136.17-.217.242a.886.886 0 01-.265.163.92.92 0 01-.319.053 6.459 6.459 0 01-.277-.007v-.59h.038c.017 0 .034 0 .053.002a.604.604 0 00.234-.02.362.362 0 00.149-.095c.12-.118.207-.324.263-.618.057-.294.097-.707.121-1.235.01-.197.018-.43.029-.7l.021-.771h2.671v4.027z"/><path d="M153.394 53.865c-.647 0-1.148-.18-1.504-.541-.357-.362-.535-.876-.535-1.542 0-.656.172-1.179.519-1.566.344-.39.797-.583 1.356-.583.252 0 .475.037.667.11a1.3 1.3 0 01.508.337c.145.156.257.342.335.564.076.223.116.496.116.818v.366h-2.809c0 .47.12.829.355 1.076.236.246.566.37.984.37a2.086 2.086 0 00.831-.18 2.345 2.345 0 00.524-.305h.039v.739c-.08.03-.179.07-.298.116a3 3 0 01-.319.11 2.393 2.393 0 01-.769.111zm.797-2.554a1.825 1.825 0 00-.065-.473 1 1 0 00-.168-.336.768.768 0 00-.306-.23 1.18 1.18 0 00-.463-.08c-.18 0-.335.027-.463.082a1.122 1.122 0 00-.347.236 1.15 1.15 0 00-.232.352 1.532 1.532 0 00-.1.449h2.144z"/><path d="M158.719 53.772h-.85l-1.39-1.855h-.341v1.855h-.682v-4.027h.682v1.753a.931.931 0 00.451-.11c.124-.071.23-.209.318-.412.026-.06.057-.13.089-.21.031-.079.058-.15.077-.209.107-.296.255-.505.444-.629.188-.12.434-.183.737-.183h.184v.584h-.156c-.19 0-.335.04-.429.118-.096.078-.175.22-.242.427-.068.21-.148.372-.238.489a1.038 1.038 0 01-.307.268l1.653 2.141z"/><path d="M160.678 53.863a2.2 2.2 0 01-.765-.128 1.591 1.591 0 01-.6-.389 1.789 1.789 0 01-.389-.653 2.882 2.882 0 01-.136-.93c0-.353.046-.657.142-.913a1.98 1.98 0 01.383-.65c.16-.175.358-.31.596-.406.24-.095.496-.143.767-.143.224 0 .439.032.645.094.207.063.391.135.553.217v.76h-.04a2.916 2.916 0 00-.185-.14 2.6 2.6 0 00-.279-.163 1.702 1.702 0 00-.333-.125 1.357 1.357 0 00-.37-.054 1.04 1.04 0 00-.852.397c-.214.265-.321.64-.321 1.126 0 .476.103.848.311 1.114.206.265.492.398.862.398a1.5 1.5 0 00.634-.137c.2-.091.379-.209.534-.354h.04v.76c-.068.032-.152.069-.254.114a1.903 1.903 0 01-.275.1c-.116.033-.22.059-.312.076a1.8 1.8 0 01-.356.029z"/><path d="M36.383 52.75c.022-.049.044-.095.065-.146 1.47-3.508-.146-7.562-3.607-9.053-3.466-1.491-7.465.147-8.934 3.657-.02.05-.038.1-.055.146a17.147 17.147 0 016.81 1.401 17.323 17.323 0 015.72 3.995z"/><path d="M14.427 79.657a343.763 343.763 0 001.043 2.687 1.466 1.466 0 001.91.821s1.484-.618 2.63-1.105a17.387 17.387 0 01-5.583-2.403z"/><path d="M15.994 49.291a5.655 5.655 0 00-2.574-1.206C6.74 46.873.648 54.933 2.262 64.48c1.57-2.613 3.233-3.612 4.842-3.936a17.37 17.37 0 01.83-2.479 17.384 17.384 0 018.06-8.775z"/><path d="M43.111 60.86a5.674 5.674 0 00-2.639-1.037 17.735 17.735 0 01-.63 11.972 17.814 17.814 0 01-1.182 2.329c.887 1.398 1.333 3.304.569 6.264 7.896-5.454 9.383-15.497 3.882-19.527z"/><path d="M7.328 70.115c-2.006.578-3.433 2.942-1.899 5.587 1.278 2.199 3.662 2.942 3.956 7.213 1.534-1.49 2.534-3.162 3.03-4.81a17.639 17.639 0 01-5.087-7.99z"/><path d="M22.51 82.45c-.825 1.505-1.32 3.394-1.31 5.55 3.236-2.752 5.42-1.53 7.867-2.126 2.942-.719 3.628-3.403 2.644-5.265a17.154 17.154 0 01-9.201 1.842z"/><path d="M19.326 66.799a8.671 8.671 0 016.402 2.756 8.918 8.918 0 01.683-3.507 8.807 8.807 0 012.039-2.985 8.549 8.549 0 01-3.46-.692 8.639 8.639 0 01-2.945-2.067 8.92 8.92 0 01-2.719 6.495z"/><path d="M25.392 52.945c-.694 1.666.08 3.595 1.725 4.298 1.647.7 3.547-.087 4.241-1.752.691-1.667-.087-3.596-1.73-4.298-1.644-.703-3.547.084-4.236 1.752z"/><path d="M31.469 68.205c-.689 1.667.087 3.596 1.729 4.298 1.645.7 3.547-.084 4.239-1.752.693-1.668-.084-3.596-1.727-4.297-1.645-.702-3.547.083-4.241 1.751z"/><path d="M36.415 57.648a8.798 8.798 0 01-2.037 2.985 8.555 8.555 0 014.186 1.045 15.398 15.398 0 00-1.888-4.746c-.077.24-.162.48-.261.716z"/><path d="M16.418 74.371c-.694 1.668.085 3.596 1.729 4.297 1.642.701 3.545-.084 4.24-1.75.691-1.67-.086-3.596-1.73-4.3-1.645-.701-3.546.085-4.24 1.753z"/><path d="M31.068 77.63a8.618 8.618 0 01-2.942-2.066 8.94 8.94 0 01-1.029 4.248 14.95 14.95 0 004.68-1.917 9.327 9.327 0 01-.709-.265z"/><path d="M16.705 52.23a8.697 8.697 0 012.944 2.065 8.895 8.895 0 011.03-4.245 15.035 15.035 0 00-4.68 1.915c.236.077.473.165.706.265z"/><path d="M11.36 72.214a8.784 8.784 0 012.038-2.989 8.528 8.528 0 01-4.189-1.04 15.485 15.485 0 001.887 4.742c.077-.24.165-.478.263-.713z"/><path d="M16.304 61.656c.692-1.669-.084-3.595-1.727-4.296-1.647-.704-3.548.085-4.241 1.752-.692 1.666.085 3.595 1.729 4.295 1.645.702 3.548-.083 4.24-1.751z"/><path d="M25.48 61.188c3.797 1.618 8.17-.189 9.77-4.038.22-.53.374-1.067.469-1.61a15.019 15.019 0 00-3.185-3.07 4.622 4.622 0 01-.011 3.519c-.967 2.323-3.603 3.413-5.897 2.435-2.29-.977-3.367-3.651-2.402-5.977a4.522 4.522 0 012.5-2.476 14.67 14.67 0 00-4.393-.19c-.327.457-.61.96-.834 1.504-1.597 3.85.185 8.282 3.983 9.903z"/><path d="M22.295 68.674c-3.798-1.62-8.17.186-9.77 4.037a7.87 7.87 0 00-.47 1.609 14.993 14.993 0 003.19 3.073 4.615 4.615 0 01.005-3.52c.967-2.324 3.606-3.416 5.898-2.437 2.292.978 3.368 3.654 2.404 5.977a4.52 4.52 0 01-2.504 2.478c1.471.288 2.949.345 4.394.19.33-.457.61-.962.837-1.505 1.596-3.85-.188-8.284-3.984-9.902z"/><path d="M32.708 73.684c-2.29-.976-3.367-3.654-2.403-5.977.965-2.323 3.604-3.414 5.895-2.437a4.518 4.518 0 012.443 2.538c.287-1.49.34-2.989.191-4.455a7.413 7.413 0 00-1.487-.846c-3.797-1.618-8.17.188-9.768 4.038-1.597 3.85.187 8.284 3.983 9.903a7.34 7.34 0 001.589.477 14.974 14.974 0 003.027-3.231 4.433 4.433 0 01-3.47-.01z"/><path d="M20.196 63.316c1.598-3.85-.186-8.283-3.983-9.904a7.39 7.39 0 00-1.592-.476 15.133 15.133 0 00-3.024 3.23 4.448 4.448 0 013.469.008c2.292.979 3.368 3.657 2.407 5.98-.968 2.324-3.608 3.415-5.898 2.436a4.523 4.523 0 01-2.443-2.537 15.35 15.35 0 00-.19 4.456c.454.33.95.615 1.485.844 3.797 1.62 8.171-.189 9.77-4.037z"/></g><defs><clipPath id="clip0_3315_4515"><path fill="white" transform="translate(2 43)" d="M0 0h160v45H0z"/></clipPath></defs></svg>