<svg width="165" height="130" viewBox="0 0 165 130" fill="none" xmlns="http://www.w3.org/2000/svg"><path d="M82.713 109.426c-.445 0-.888-.091-1.304-.273-27.028-11.817-67.931-29.66-69.84-30.38C8.621 77.729 3 73.496 3 65.006c0-8.948 8.05-12.513 8.392-12.661l70-31.065a3.254 3.254 0 012.642 0l70.034 31.08c.308.133 8.358 3.697 8.358 12.646 0 8.49-5.62 12.723-8.592 13.775-1.885.712-42.788 18.555-69.816 30.372a3.26 3.26 0 01-1.305.273z" fill="white"/><path d="M82.713 109.426c-.445 0-.888-.091-1.304-.273-27.028-11.817-67.931-29.66-69.84-30.38C8.621 77.729 3 73.496 3 65.006c0-8.948 8.05-12.513 8.392-12.661l70-31.065a3.254 3.254 0 012.642 0l70.034 31.08c.308.133 8.358 3.697 8.358 12.646 0 8.49-5.62 12.723-8.592 13.775-1.885.712-42.788 18.555-69.816 30.372a3.26 3.26 0 01-1.305.273z" stroke="white" stroke-width=".8" stroke-miterlimit="10"/><path d="M152.746 55.337l-70.034-31.08-70.033 31.08s-6.424 2.762-6.424 9.67c0 6.906 4.472 10.014 6.424 10.704 1.952.69 70.033 30.459 70.033 30.459s68.082-29.768 70.034-30.459c1.952-.69 6.423-3.8 6.423-10.705 0-6.907-6.423-9.67-6.423-9.67z" fill="white"/><path d="M136.947 57.564L82.713 33.496 28.48 57.564s-4.975 2.14-4.975 7.488c0 5.35 3.462 7.756 4.975 8.29 1.51.537 54.234 23.589 54.234 23.589s52.721-23.052 54.234-23.588c1.512-.535 4.975-2.942 4.975-8.29 0-5.348-4.975-7.49-4.975-7.49z" fill="white"/><path d="M82.712 23.835c.578 0 1.047-.515 1.047-1.15 0-.635-.469-1.15-1.047-1.15-.579 0-1.047.515-1.047 1.15 0 .635.468 1.15 1.047 1.15z" fill="#00100F"/><path d="M5.613 61.503c.578 0 1.047-.515 1.047-1.15 0-.634-.469-1.148-1.047-1.148s-1.047.514-1.047 1.149c0 .634.469 1.149 1.047 1.149z" fill="#00100F"/><path d="M4.617 66.363c.58 0 1.05-.515 1.05-1.15 0-.636-.47-1.15-1.05-1.15-.579 0-1.048.514-1.048 1.15 0 .635.47 1.15 1.048 1.15z" fill="#00100F"/><path d="M5.665 71.505c.58 0 1.049-.514 1.049-1.149s-.47-1.15-1.049-1.15c-.578 0-1.048.515-1.048 1.15 0 .635.47 1.15 1.048 1.15z" fill="#00100F"/><path d="M72.094 28.356c.578 0 1.047-.515 1.047-1.15 0-.636-.469-1.15-1.047-1.15-.58 0-1.049.514-1.049 1.15 0 .635.47 1.15 1.049 1.15z" fill="#00100F"/><path d="M77.48 25.904c.578 0 1.047-.514 1.047-1.149 0-.634-.469-1.149-1.047-1.149-.58 0-1.049.515-1.049 1.15 0 .634.47 1.148 1.049 1.148z" fill="#00100F"/><path d="M66.725 30.727c.58 0 1.05-.514 1.05-1.149 0-.634-.47-1.148-1.05-1.148-.579 0-1.048.514-1.048 1.148 0 .635.47 1.15 1.048 1.15z" fill="#00100F"/><path d="M56.105 35.45c.579 0 1.048-.514 1.048-1.149 0-.634-.47-1.148-1.047-1.148-.579 0-1.048.514-1.048 1.148 0 .635.469 1.149 1.047 1.149z" fill="#00100F"/><path d="M61.44 33.05c.58 0 1.049-.514 1.049-1.149 0-.634-.47-1.149-1.049-1.149-.578 0-1.048.515-1.048 1.15 0 .633.47 1.148 1.048 1.148z" fill="#00100F"/><path d="M51.057 37.547c.58 0 1.048-.515 1.048-1.15 0-.635-.469-1.15-1.048-1.15-.579 0-1.048.515-1.048 1.15 0 .635.47 1.15 1.048 1.15z" fill="#00100F"/><path d="M40.44 42.37c.578 0 1.047-.514 1.047-1.149 0-.634-.469-1.148-1.047-1.148-.579 0-1.048.514-1.048 1.148 0 .635.47 1.149 1.048 1.149z" fill="#00100F"/><path d="M45.825 39.97c.578 0 1.047-.514 1.047-1.149s-.469-1.15-1.047-1.15c-.579 0-1.047.515-1.047 1.15 0 .635.468 1.15 1.047 1.15z" fill="#00100F"/><path d="M35.019 44.844c.578 0 1.047-.515 1.047-1.15 0-.634-.469-1.149-1.047-1.149s-1.047.515-1.047 1.15c0 .634.469 1.149 1.047 1.149z" fill="#00100F"/><path d="M24.45 49.465c.579 0 1.048-.515 1.048-1.15 0-.634-.469-1.149-1.048-1.149-.579 0-1.048.515-1.048 1.15 0 .634.47 1.149 1.048 1.149z" fill="#00100F"/><path d="M29.786 47.066c.579 0 1.047-.515 1.047-1.15 0-.635-.468-1.15-1.047-1.15-.578 0-1.047.515-1.047 1.15 0 .635.469 1.15 1.047 1.15z" fill="#00100F"/><path d="M19.42 51.764c.579 0 1.048-.515 1.048-1.15 0-.634-.469-1.149-1.048-1.149-.579 0-1.048.515-1.048 1.15 0 .634.47 1.15 1.048 1.15z" fill="#00100F"/><path d="M8.902 57.032c.578 0 1.048-.515 1.048-1.15 0-.633-.47-1.148-1.048-1.148-.58 0-1.048.514-1.048 1.149 0 .634.469 1.149 1.048 1.149z" fill="#00100F"/><path d="M14.186 53.986c.58 0 1.048-.515 1.048-1.15 0-.635-.469-1.15-1.048-1.15-.579 0-1.048.515-1.048 1.15 0 .635.47 1.15 1.048 1.15z" fill="#00100F"/><path d="M83.654 107.725c-.003-.634-.473-1.148-1.05-1.147-.58.002-1.05.518-1.048 1.152.003.636.474 1.149 1.053 1.147.578-.001 1.045-.517 1.045-1.152z" fill="#00100F"/><path d="M71.973 104.386c.58 0 1.048-.515 1.048-1.149 0-.635-.469-1.15-1.048-1.15-.579 0-1.048.515-1.048 1.15 0 .634.47 1.149 1.048 1.149z" fill="#00100F"/><path d="M78.415 105.669c-.002-.635-.473-1.148-1.052-1.147-.579.002-1.046.517-1.044 1.153 0 .635.471 1.148 1.05 1.146.58-.001 1.047-.517 1.046-1.152z" fill="#00100F"/><path d="M66.6 102.027c.578 0 1.048-.514 1.048-1.149s-.47-1.15-1.048-1.15c-.58 0-1.048.515-1.048 1.15 0 .635.469 1.149 1.048 1.149z" fill="#00100F"/><path d="M55.968 97.333c.578 0 1.048-.514 1.048-1.15 0-.634-.47-1.149-1.048-1.149-.58 0-1.049.515-1.049 1.15 0 .635.47 1.15 1.049 1.15z" fill="#00100F"/><path d="M61.308 99.72c.578 0 1.047-.516 1.047-1.15 0-.636-.469-1.151-1.047-1.151-.579 0-1.048.515-1.048 1.15 0 .635.47 1.15 1.048 1.15z" fill="#00100F"/><path d="M51.961 94.098c0-.635-.472-1.148-1.05-1.147-.58.001-1.047.518-1.046 1.152.003.635.472 1.15 1.05 1.147.582 0 1.048-.516 1.046-1.152z" fill="#00100F"/><path d="M40.283 90.454c.579 0 1.048-.514 1.048-1.148 0-.635-.469-1.149-1.048-1.149-.579 0-1.048.514-1.048 1.149 0 .634.47 1.148 1.048 1.148z" fill="#00100F"/><path d="M45.675 92.84c.579 0 1.047-.515 1.047-1.149s-.468-1.149-1.047-1.149c-.578 0-1.047.515-1.047 1.149s.469 1.149 1.047 1.149z" fill="#00100F"/><path d="M35.902 86.844c0-.634-.47-1.15-1.05-1.146-.578.001-1.045.517-1.045 1.151.003.635.473 1.148 1.05 1.147.58-.001 1.048-.518 1.045-1.152z" fill="#00100F"/><path d="M24.275 83.403c.579 0 1.048-.514 1.048-1.15 0-.634-.47-1.149-1.048-1.149-.579 0-1.048.515-1.048 1.15 0 .635.47 1.15 1.048 1.15z" fill="#00100F"/><path d="M29.617 85.787c.578 0 1.048-.514 1.048-1.148 0-.635-.47-1.149-1.048-1.149-.58 0-1.048.514-1.048 1.149 0 .634.469 1.148 1.048 1.148z" fill="#00100F"/><path d="M19.239 81.117c.579 0 1.048-.514 1.048-1.149 0-.634-.47-1.148-1.048-1.148-.58 0-1.048.514-1.048 1.148 0 .635.469 1.15 1.048 1.15z" fill="#00100F"/><path d="M8.707 75.879c.58 0 1.049-.515 1.049-1.15 0-.636-.47-1.15-1.049-1.15-.58 0-1.049.514-1.049 1.15 0 .635.47 1.15 1.049 1.15z" fill="#00100F"/><path d="M13.999 78.91c.58 0 1.049-.515 1.049-1.15 0-.634-.47-1.148-1.049-1.148-.58 0-1.049.514-1.049 1.149 0 .634.47 1.148 1.049 1.148z" fill="#00100F"/><path d="M159.813 61.503c.578 0 1.047-.515 1.047-1.15 0-.634-.469-1.148-1.047-1.148-.579 0-1.048.514-1.048 1.149 0 .634.469 1.149 1.048 1.149z" fill="#00100F"/><path d="M160.809 66.363c.578 0 1.048-.515 1.048-1.15 0-.636-.47-1.15-1.048-1.15-.579 0-1.049.514-1.049 1.15 0 .635.47 1.15 1.049 1.15z" fill="#00100F"/><path d="M159.76 71.505c.579 0 1.048-.514 1.048-1.149s-.469-1.15-1.048-1.15c-.578 0-1.047.515-1.047 1.15 0 .635.469 1.15 1.047 1.15z" fill="#00100F"/><path d="M93.332 28.356c.579 0 1.049-.515 1.049-1.15 0-.636-.47-1.15-1.05-1.15-.579 0-1.048.514-1.048 1.15 0 .635.47 1.15 1.049 1.15z" fill="#00100F"/><path d="M86.898 24.755c0 .635.467 1.149 1.05 1.149.578 0 1.047-.514 1.047-1.149s-.47-1.15-1.048-1.15c-.581 0-1.049.515-1.049 1.15z" fill="#00100F"/><path d="M98.7 30.727c.58 0 1.049-.514 1.049-1.149 0-.634-.47-1.148-1.048-1.148-.58 0-1.048.514-1.048 1.148 0 .635.469 1.15 1.048 1.15z" fill="#00100F"/><path d="M109.319 35.45c.578 0 1.047-.514 1.047-1.149 0-.634-.469-1.148-1.047-1.148s-1.047.514-1.047 1.148c0 .635.469 1.149 1.047 1.149z" fill="#00100F"/><path d="M103.985 33.05c.579 0 1.048-.514 1.048-1.149 0-.634-.469-1.149-1.048-1.149-.579 0-1.048.515-1.048 1.15 0 .633.469 1.148 1.048 1.148z" fill="#00100F"/><path d="M114.368 37.547c.578 0 1.048-.515 1.048-1.15 0-.635-.47-1.15-1.048-1.15-.579 0-1.048.515-1.048 1.15 0 .635.469 1.15 1.048 1.15z" fill="#00100F"/><path d="M124.986 42.37c.578 0 1.048-.514 1.048-1.149 0-.634-.47-1.148-1.048-1.148-.579 0-1.048.514-1.048 1.148 0 .635.469 1.149 1.048 1.149z" fill="#00100F"/><path d="M119.601 39.97c.578 0 1.047-.514 1.047-1.149s-.469-1.15-1.047-1.15c-.579 0-1.048.515-1.048 1.15 0 .635.469 1.15 1.048 1.15z" fill="#00100F"/><path d="M130.406 44.844c.579 0 1.048-.515 1.048-1.15 0-.634-.469-1.149-1.048-1.149-.579 0-1.048.515-1.048 1.15 0 .634.469 1.149 1.048 1.149z" fill="#00100F"/><path d="M140.975 49.465c.578 0 1.047-.515 1.047-1.15 0-.634-.469-1.149-1.047-1.149-.579 0-1.048.515-1.048 1.15 0 .634.469 1.149 1.048 1.149z" fill="#00100F"/><path d="M135.639 47.066c.579 0 1.048-.515 1.048-1.15 0-.635-.469-1.15-1.048-1.15-.579 0-1.048.515-1.048 1.15 0 .635.469 1.15 1.048 1.15z" fill="#00100F"/><path d="M146.006 51.764c.578 0 1.047-.515 1.047-1.15 0-.634-.469-1.149-1.047-1.149-.579 0-1.048.515-1.048 1.15 0 .634.469 1.15 1.048 1.15z" fill="#00100F"/><path d="M156.524 57.032c.578 0 1.047-.515 1.047-1.15 0-.633-.469-1.148-1.047-1.148-.579 0-1.048.514-1.048 1.149 0 .634.469 1.149 1.048 1.149z" fill="#00100F"/><path d="M151.239 53.986c.578 0 1.047-.515 1.047-1.15 0-.635-.469-1.15-1.047-1.15-.579 0-1.048.515-1.048 1.15 0 .635.469 1.15 1.048 1.15z" fill="#00100F"/><path d="M93.452 104.386c.579 0 1.048-.515 1.048-1.149 0-.635-.47-1.15-1.048-1.15-.58 0-1.048.515-1.048 1.15 0 .634.469 1.149 1.048 1.149z" fill="#00100F"/><path d="M88.059 106.821c.58 0 1.049-.514 1.049-1.149s-.47-1.15-1.049-1.15c-.58 0-1.049.515-1.049 1.15 0 .635.47 1.149 1.049 1.149z" fill="#00100F"/><path d="M98.826 102.027c.579 0 1.048-.514 1.048-1.149s-.47-1.15-1.048-1.15c-.578 0-1.047.515-1.047 1.15 0 .635.469 1.149 1.047 1.149z" fill="#00100F"/><path d="M109.457 97.333c.579 0 1.049-.514 1.049-1.15 0-.634-.47-1.149-1.049-1.149-.578 0-1.048.515-1.048 1.15 0 .635.47 1.15 1.048 1.15z" fill="#00100F"/><path d="M104.117 99.72c.579 0 1.048-.516 1.048-1.15 0-.636-.469-1.151-1.048-1.151-.578 0-1.048.515-1.048 1.15 0 .635.47 1.15 1.048 1.15z" fill="#00100F"/><path d="M113.463 94.098c.001-.635.473-1.148 1.051-1.147.579.001 1.049.518 1.046 1.152-.003.635-.472 1.15-1.051 1.147-.581 0-1.049-.516-1.046-1.152z" fill="#00100F"/><path d="M125.143 90.454c.579 0 1.048-.514 1.048-1.148 0-.635-.469-1.149-1.048-1.149-.579 0-1.048.514-1.048 1.149 0 .634.469 1.148 1.048 1.148z" fill="#00100F"/><path d="M119.751 92.84c.578 0 1.047-.515 1.047-1.149s-.469-1.149-1.047-1.149-1.047.515-1.047 1.149.469 1.149 1.047 1.149z" fill="#00100F"/><path d="M130.57 87.995c.579 0 1.048-.514 1.048-1.148 0-.635-.469-1.15-1.048-1.15-.58 0-1.049.515-1.049 1.15 0 .634.469 1.148 1.049 1.148z" fill="#00100F"/><path d="M141.15 83.403c.579 0 1.048-.514 1.048-1.15 0-.634-.469-1.149-1.048-1.149-.579 0-1.048.515-1.048 1.15 0 .635.469 1.15 1.048 1.15z" fill="#00100F"/><path d="M135.809 85.787c.579 0 1.048-.514 1.048-1.148 0-.635-.469-1.149-1.048-1.149-.578 0-1.047.514-1.047 1.149 0 .634.469 1.148 1.047 1.148z" fill="#00100F"/><path d="M146.187 81.117c.579 0 1.048-.514 1.048-1.149 0-.634-.469-1.148-1.048-1.148-.579 0-1.048.514-1.048 1.148 0 .635.469 1.15 1.048 1.15z" fill="#00100F"/><path d="M156.719 75.879c.579 0 1.049-.515 1.049-1.15 0-.636-.47-1.15-1.049-1.15s-1.049.514-1.049 1.15c0 .635.47 1.15 1.049 1.15z" fill="#00100F"/><path d="M151.427 78.91c.579 0 1.049-.515 1.049-1.15 0-.634-.47-1.148-1.049-1.148-.578 0-1.048.514-1.048 1.149 0 .634.47 1.148 1.048 1.148z" fill="#00100F"/><path d="M53.964 90.536a.698.698 0 01-.606-.352l-1.949-3.43v3.085a.697.697 0 01-.697.696h-2.655a.697.697 0 01-.697-.696V79.63c0-.385.313-.696.697-.696h2.655c.385 0 .697.311.697.696v3.135c.364-.053.633-.17.815-.353.466-.468.464-1.463.46-2.517v-.266c0-.385.312-.696.696-.696h2.683c.385 0 .697.311.697.696v.171c.001 1.908.003 3.874-1.734 5.32l2.434 3.944a.7.7 0 01.104.366v.409a.697.697 0 01-.697.696h-2.903v.001z" fill="white"/><path d="M53.964 90.536a.698.698 0 01-.606-.352l-1.949-3.43v3.085a.697.697 0 01-.697.696h-2.655a.697.697 0 01-.697-.696V79.63c0-.385.313-.696.697-.696h2.655c.385 0 .697.311.697.696v3.135c.364-.053.633-.17.815-.353.466-.468.464-1.463.46-2.517v-.266c0-.385.312-.696.696-.696h2.683c.385 0 .697.311.697.696v.171c.001 1.908.003 3.874-1.734 5.32l2.434 3.944a.7.7 0 01.104.366v.409a.697.697 0 01-.697.696h-2.903v.001z" stroke="white" stroke-width=".554" stroke-miterlimit="10"/><path d="M65.309 90.536a.696.696 0 01-.631-.402l-.412-.882H61.13l-.409.881a.696.696 0 01-.631.403h-2.553a.697.697 0 01-.697-.696v-.38c0-.1.022-.2.065-.292l4.59-9.962a.695.695 0 01.633-.404h1.124c.272 0 .519.157.633.404l4.609 9.962a.697.697 0 01.064.292v.38a.697.697 0 01-.697.696H65.31z" fill="white"/><path d="M65.309 90.536a.696.696 0 01-.631-.402l-.412-.882H61.13l-.409.881a.696.696 0 01-.631.403h-2.553a.697.697 0 01-.697-.696v-.38c0-.1.022-.2.065-.292l4.59-9.962a.695.695 0 01.633-.404h1.124c.272 0 .519.157.633.404l4.609 9.962a.697.697 0 01.064.292v.38a.697.697 0 01-.697.696H65.31v0z" stroke="white" stroke-width=".554" stroke-miterlimit="10"/><path d="M69.202 90.536a.697.697 0 01-.697-.696V79.63c0-.385.313-.696.697-.696h4.492c2.867.008 4.363 2.273 4.36 4.508-.003 2.228-1.502 4.483-4.36 4.483H72.51v1.915a.697.697 0 01-.698.696h-2.61zm4.476-6.352c.277 0 .407-.466.409-.782 0-.007-.002-.739-.416-.743a25.462 25.462 0 00-.615-.006l-.547.003v1.528h1.17z" fill="white"/><path d="M69.202 90.536a.697.697 0 01-.697-.696V79.63c0-.385.313-.696.697-.696h4.492c2.867.008 4.363 2.273 4.36 4.508-.003 2.228-1.502 4.483-4.36 4.483H72.51v1.915a.697.697 0 01-.698.696h-2.61zm4.476-6.352c.277 0 .407-.466.409-.782 0-.007-.002-.739-.416-.743a25.462 25.462 0 00-.615-.006l-.547.003v1.528h1.17v0z" stroke="white" stroke-width=".554" stroke-miterlimit="10"/><path d="M85.198 90.536a.697.697 0 01-.631-.403l-.41-.88H81.02l-.411.881a.695.695 0 01-.631.402h-2.552a.697.697 0 01-.697-.696v-.38c0-.1.022-.2.064-.292l4.594-9.962a.695.695 0 01.632-.404h1.122c.272 0 .519.157.633.404l4.608 9.962a.696.696 0 01.065.292v.38a.697.697 0 01-.697.696h-2.553z" fill="white"/><path d="M85.198 90.536a.697.697 0 01-.631-.403l-.41-.88H81.02l-.411.881a.695.695 0 01-.631.402h-2.552a.697.697 0 01-.697-.696v-.38c0-.1.022-.2.064-.292l4.594-9.962a.695.695 0 01.632-.404h1.122c.272 0 .519.157.633.404l4.608 9.962a.696.696 0 01.065.292v.38a.697.697 0 01-.697.696h-2.553v0z" stroke="white" stroke-width=".554" stroke-miterlimit="10"/><path d="M93.7 90.752c-2.947 0-5.932-2.062-5.932-6.003 0-3.933 2.984-5.991 5.933-5.991 2.948 0 5.932 2.058 5.932 5.991 0 3.94-2.985 6.003-5.932 6.003zm.008-8.063c-.927 0-1.863.637-1.863 2.06 0 1.439.936 2.083 1.864 2.083.926 0 1.862-.644 1.862-2.083 0-1.423-.936-2.06-1.862-2.06z" fill="white"/><path d="M93.7 90.752c-2.947 0-5.932-2.062-5.932-6.003 0-3.933 2.984-5.991 5.933-5.991 2.948 0 5.932 2.058 5.932 5.991 0 3.94-2.985 6.003-5.932 6.003zm.008-8.063c-.927 0-1.863.637-1.863 2.06 0 1.439.936 2.083 1.864 2.083.926 0 1.862-.644 1.862-2.083 0-1.423-.936-2.06-1.862-2.06z" stroke="white" stroke-width=".554" stroke-miterlimit="10"/><path d="M106.825 90.536a.7.7 0 01-.606-.352l-1.949-3.43v3.085a.697.697 0 01-.697.696h-2.654a.697.697 0 01-.697-.696V79.63c0-.385.312-.696.697-.696h2.654c.385 0 .697.311.697.696v3.135c.364-.053.633-.17.815-.353.467-.469.464-1.465.461-2.519l-.001-.264c0-.385.313-.696.697-.696h2.684c.385 0 .697.311.697.696v.168c.002 1.909.003 3.877-1.735 5.323l2.434 3.945c.067.11.104.237.104.365v.409a.697.697 0 01-.697.696h-2.904v.001z" fill="white"/><path d="M106.825 90.536a.7.7 0 01-.606-.352l-1.949-3.43v3.085a.697.697 0 01-.697.696h-2.654a.697.697 0 01-.697-.696V79.63c0-.385.312-.696.697-.696h2.654c.385 0 .697.311.697.696v3.135c.364-.053.633-.17.815-.353.467-.469.464-1.465.461-2.519l-.001-.264c0-.385.313-.696.697-.696h2.684c.385 0 .697.311.697.696v.168c.002 1.909.003 3.877-1.735 5.323l2.434 3.945c.067.11.104.237.104.365v.409a.697.697 0 01-.697.696h-2.904v.001z" stroke="white" stroke-width=".554" stroke-miterlimit="10"/><path d="M111.23 90.536a.697.697 0 01-.697-.696V79.63c0-.385.312-.696.697-.696h6.372c.385 0 .697.311.697.696v2.333a.697.697 0 01-.697.696h-3.081v.051h2.776c.385 0 .697.312.697.697v2.319a.697.697 0 01-.697.696h-2.776v.4h3.213c.384 0 .697.312.697.697v2.32a.697.697 0 01-.697.696h-6.504v.001z" fill="white"/><path d="M111.23 90.536a.697.697 0 01-.697-.696V79.63c0-.385.312-.696.697-.696h6.372c.385 0 .697.311.697.696v2.333a.697.697 0 01-.697.696h-3.081v.051h2.776c.385 0 .697.312.697.697v2.319a.697.697 0 01-.697.696h-2.776v.4h3.213c.384 0 .697.312.697.697v2.32a.697.697 0 01-.697.696h-6.504v.001z" stroke="white" stroke-width=".554" stroke-miterlimit="10"/><path d="M48.057 89.84V79.63h2.655v3.865h.19c2.61 0 2.477-1.955 2.477-3.865h2.683c0 2.086.059 4.01-1.968 5.308l2.771 4.493v.409h-2.902l-2.246-3.953c-.35.058-.671.058-1.005.058v3.895h-2.655z" fill="#00100F"/><path d="M64.71 88.556h-4.025l-.596 1.284h-2.553v-.38l4.591-9.962h1.124l4.609 9.962v.38h-2.552l-.598-1.284zm-2.026-4.915l-1.152 2.684h2.333l-1.181-2.684z" fill="#00100F"/><path d="M69.202 89.84V79.63h4.492c4.885.014 4.885 7.599 0 7.599h-1.882v2.61h-2.61zm4.476-7.877c-.612-.014-1.267 0-1.866 0v2.918h1.866c1.43 0 1.518-2.903 0-2.918z" fill="#00100F"/><path d="M84.601 88.556h-4.024l-.598 1.284h-2.552v-.38l4.593-9.962h1.122l4.609 9.962v.38h-2.553l-.597-1.284zm-2.026-4.915l-1.153 2.684h2.334l-1.181-2.684z" fill="#00100F"/><path d="M88.465 84.749c0-7.06 10.47-7.06 10.47 0 0 7.075-10.47 7.075-10.47 0zm7.803 0c0-3.676-5.12-3.676-5.12 0a2.569 2.569 0 005.12 0z" fill="#00100F"/><path d="M100.919 89.84V79.63h2.655v3.865h.19c2.61 0 2.478-1.955 2.478-3.865h2.684c0 2.086.058 4.01-1.969 5.308l2.771 4.493v.409h-2.903l-2.246-3.953c-.35.058-.671.058-1.005.058v3.895h-2.655z" fill="#00100F"/><path d="M117.602 81.963h-3.778v1.444h3.473v2.32h-3.473v1.793h3.909v2.32h-6.504V79.63h6.372l.001 2.333z" fill="#00100F"/><path d="M23.629 74.097a1.19 1.19 0 01-1.19-1.19V55.472c0-.656.533-1.19 1.19-1.19h12.528c.657 0 1.19.534 1.19 1.19v3.986a1.19 1.19 0 01-1.19 1.19h-2.644c3.44.865 5.228 3.734 5.233 6.574.005 3.406-2.551 6.862-7.444 6.876H23.63zm7.646-6.365c.166 0 .391-.028.523-.165a.5.5 0 00.127-.344c0-.196-.085-.524-.65-.524h-1.997v1.034h1.997z" fill="white"/><path d="M23.629 74.097a1.19 1.19 0 01-1.19-1.19V55.472c0-.656.533-1.19 1.19-1.19h12.528c.657 0 1.19.534 1.19 1.19v3.986a1.19 1.19 0 01-1.19 1.19h-2.644c3.44.865 5.228 3.734 5.233 6.574.005 3.406-2.551 6.862-7.444 6.876H23.63zm7.646-6.365c.166 0 .391-.028.523-.165a.5.5 0 00.127-.344c0-.196-.085-.524-.65-.524h-1.997v1.034h1.997v0z" stroke="white" stroke-width=".947" stroke-miterlimit="10"/><path d="M48.782 74.465c-5.034 0-10.13-3.521-10.13-10.25 0-6.718 5.097-10.233 10.13-10.233 5.034 0 10.13 3.515 10.13 10.232 0 6.73-5.096 10.25-10.13 10.25zm.012-13.768c-1.584 0-3.182 1.088-3.182 3.517 0 2.457 1.598 3.556 3.182 3.556 1.584 0 3.181-1.1 3.181-3.556 0-2.43-1.598-3.517-3.181-3.517z" fill="white"/><path d="M48.782 74.465c-5.034 0-10.13-3.521-10.13-10.25 0-6.718 5.097-10.233 10.13-10.233 5.034 0 10.13 3.515 10.13 10.232 0 6.73-5.096 10.25-10.13 10.25zm.012-13.768c-1.584 0-3.182 1.088-3.182 3.517 0 2.457 1.598 3.556 3.182 3.556 1.584 0 3.181-1.1 3.181-3.556 0-2.43-1.598-3.517-3.181-3.517z" stroke="white" stroke-width=".947" stroke-miterlimit="10"/><path d="M62.155 74.097a1.19 1.19 0 01-1.19-1.19v-.472c0-.18.042-.359.12-.52l2.47-5.076-5.579-10.12a1.192 1.192 0 01-.148-.575v-.673c0-.656.533-1.19 1.19-1.19h4.98c.447 0 .855.251 1.06.648l2.241 4.383 2.021-4.342c.195-.42.615-.688 1.078-.688h4.83c.658 0 1.19.533 1.19 1.19v.672c0 .183-.042.363-.122.526l-8.267 16.764a1.19 1.19 0 01-1.067.663h-4.807z" fill="white"/><path d="M62.155 74.097a1.19 1.19 0 01-1.19-1.19v-.472c0-.18.042-.359.12-.52l2.47-5.076-5.579-10.12a1.192 1.192 0 01-.148-.575v-.673c0-.656.533-1.19 1.19-1.19h4.98c.447 0 .855.251 1.06.648l2.241 4.383 2.021-4.342c.195-.42.615-.688 1.078-.688h4.83c.658 0 1.19.533 1.19 1.19v.672c0 .183-.042.363-.122.526l-8.267 16.764a1.19 1.19 0 01-1.067.663h-4.807v0z" stroke="white" stroke-width=".947" stroke-miterlimit="10"/><path d="M87.16 74.097c-.472 0-.9-.279-1.09-.711l-3.388-7.718-3.348 7.714a1.19 1.19 0 01-1.092.715h-4.358a1.19 1.19 0 01-1.19-1.19v-.647c0-.172.038-.342.11-.498l7.845-17.012a1.19 1.19 0 011.08-.691h1.918c.464 0 .884.269 1.08.69l7.87 17.011c.072.157.11.328.11.5v.648a1.19 1.19 0 01-1.19 1.19h-4.358z" fill="white"/><path d="M87.16 74.097c-.472 0-.9-.279-1.09-.711l-3.388-7.718-3.348 7.714c-.19.434-.617.715-1.092.715h-4.358a1.19 1.19 0 01-1.19-1.19v-.647c0-.172.038-.342.11-.498l7.845-17.012a1.19 1.19 0 011.08-.691h1.918c.464 0 .884.269 1.08.69l7.87 17.011c.072.157.11.328.11.5v.648a1.19 1.19 0 01-1.19 1.19h-4.358v0z" stroke="white" stroke-width=".947" stroke-miterlimit="10"/><path d="M93.833 74.122a1.19 1.19 0 01-1.19-1.19v-17.46c0-.658.533-1.19 1.19-1.19h4.557c.657 0 1.19.532 1.19 1.19v5.717l6.796-6.643c.222-.218.521-.339.831-.339h1.62a1.19 1.19 0 011.189 1.19v17.51a1.19 1.19 0 01-1.189 1.19h-4.608a1.19 1.19 0 01-1.19-1.19v-5.741l-6.77 6.618a1.19 1.19 0 01-.831.338h-1.595z" fill="white"/><path d="M93.833 74.122a1.19 1.19 0 01-1.19-1.19v-17.46c0-.658.533-1.19 1.19-1.19h4.557c.657 0 1.19.532 1.19 1.19v5.717l6.796-6.643c.222-.218.521-.339.831-.339h1.62a1.19 1.19 0 011.189 1.19v17.51a1.19 1.19 0 01-1.189 1.19h-4.608a1.19 1.19 0 01-1.19-1.19v-5.741l-6.77 6.618a1.19 1.19 0 01-.831.338h-1.595z" stroke="white" stroke-width=".947" stroke-miterlimit="10"/><path d="M123.245 74.097a1.19 1.19 0 01-1.19-1.19v-5.809h-3.001v5.81a1.19 1.19 0 01-1.19 1.19h-4.557a1.19 1.19 0 01-1.19-1.19V55.47c0-.656.533-1.19 1.19-1.19h4.557c.657 0 1.19.534 1.19 1.19v5.138h3.001V55.47c0-.656.533-1.19 1.19-1.19h4.558a1.19 1.19 0 011.189 1.19v17.437a1.19 1.19 0 01-1.189 1.19h-4.558z" fill="white"/><path d="M123.245 74.097a1.19 1.19 0 01-1.19-1.19v-5.809h-3.001v5.81a1.19 1.19 0 01-1.19 1.19h-4.557a1.19 1.19 0 01-1.19-1.19V55.47c0-.656.533-1.19 1.19-1.19h4.557c.657 0 1.19.534 1.19 1.19v5.138h3.001V55.47c0-.656.533-1.19 1.19-1.19h4.558a1.19 1.19 0 011.189 1.19v17.437a1.19 1.19 0 01-1.189 1.19h-4.558v0z" stroke="white" stroke-width=".947" stroke-miterlimit="10"/><path d="M132.26 74.097a1.19 1.19 0 01-1.189-1.19V55.472c0-.656.532-1.19 1.189-1.19h10.858c.657 0 1.19.534 1.19 1.19v3.986a1.19 1.19 0 01-1.19 1.19h-5.137v12.26a1.19 1.19 0 01-1.189 1.19h-4.532z" fill="white"/><path d="M132.26 74.097a1.19 1.19 0 01-1.189-1.19V55.472c0-.656.532-1.19 1.189-1.19h10.858c.657 0 1.19.534 1.19 1.19v3.986a1.19 1.19 0 01-1.19 1.19h-5.137v12.26a1.19 1.19 0 01-1.189 1.19h-4.532v0z" stroke="white" stroke-width=".947" stroke-miterlimit="10"/><path d="M31.298 61.574c8.344 0 8.344 11.31 0 11.334h-7.67V55.47h12.529v3.986h-8.07v2.117h3.211zm-3.21 3.935v3.413h3.187c2.465 0 2.44-3.413 0-3.413h-3.188z" fill="#00100F"/><path d="M39.842 64.214c0-12.056 17.88-12.056 17.88 0 0 12.081-17.88 12.081-17.88 0zm13.323 0c0-6.276-8.742-6.276-8.742 0 0 6.327 8.742 6.327 8.742 0z" fill="#00100F"/><path d="M62.155 72.435l2.74-5.63-5.877-10.66v-.674h4.98l3.288 6.426h.123l2.99-6.426h4.83v.673l-8.267 16.764h-4.807v-.473z" fill="#00100F"/><path d="M78.243 72.908h-4.358v-.648l7.845-17.012h1.917l7.87 17.011v.648h-4.358l-4.483-10.213-4.433 10.214z" fill="#00100F"/><path d="M95.427 72.933h-1.595V55.47h4.558v8.544l8.816-8.618h1.62v17.51h-4.608V64.34l-8.79 8.594z" fill="#00100F"/><path d="M127.803 72.908h-4.558v-7h-5.381v7h-4.557V55.47h4.557v6.327h5.381V55.47h4.558v17.437z" fill="#00100F"/><path d="M136.791 72.908h-4.531V55.47h10.858v3.986h-6.326v13.45h-.001z" fill="#00100F"/><path d="M60.482 47.162c-1.19 0-2.147-.244-2.846-.727-.791-.544-1.21-1.342-1.21-2.305 0-.428.083-.937.254-1.553.052-.164.108-.334.169-.518l-.235.508c-.38.835-.742 1.652-1.08 2.447a.89.89 0 01-.553.501l-4.008 1.27a.889.889 0 01-.915-.236.894.894 0 01-.19-.927l2.512-6.76a23.769 23.769 0 01-3.21 5.283c-1.456 1.865-3.063 2.814-4.769 2.814-.865 0-1.69-.264-2.454-.785-.622-.368-.964-1.25-1.17-3.009a.998.998 0 01-.006-.104c0-.919.657-1.162 1.005-1.162.295 0 .83.122 1.134.929.21.433.552.847 1.015 1.231.387.3.76.47 1.057.47.088 0 .353 0 .72-.452.256-.316.747-1.105 1.626-3.08l1.112-2.517c.753-1.689 1.448-3.102 2.065-4.202.65-1.16 1.49-2.238 2.497-3.207 1.117-1.076 2.389-1.62 3.782-1.62.869 0 1.608.255 2.196.76.595.513.92 1.2.944 1.996.356-.426.727-.822 1.11-1.186 1.036-.983 2.16-1.481 3.342-1.481.578 0 1.078.152 1.485.451.479.351.743.872.743 1.466 0 .077-.01.154-.03.228l-.11.422a.82.82 0 01-.04.116L64.02 37.99l-1.094 2.567c-.215.519-.406.992-.565 1.413-.203.509-.36.938-.476 1.294-.252.783-.33 1.208-.35 1.429a.47.47 0 00.168.034c.376 0 1.331-.167 3.487-1.282a.89.89 0 01.782-.018.89.89 0 01.496.604l.111.467a.894.894 0 01-.45.996c-1.001.532-1.98.943-2.91 1.224-.96.295-1.881.443-2.737.443z" fill="white"/><path d="M60.482 47.162c-1.19 0-2.147-.244-2.846-.727-.791-.544-1.21-1.342-1.21-2.305 0-.428.083-.937.254-1.553.052-.164.108-.334.169-.518l-.235.508c-.38.835-.742 1.652-1.08 2.447a.89.89 0 01-.553.501l-4.008 1.27a.889.889 0 01-.915-.236.894.894 0 01-.19-.927l2.512-6.76a23.769 23.769 0 01-3.21 5.283c-1.456 1.865-3.063 2.814-4.769 2.814-.865 0-1.69-.264-2.454-.785-.622-.368-.964-1.25-1.17-3.009a.998.998 0 01-.006-.104c0-.919.657-1.162 1.005-1.162.295 0 .83.122 1.134.929.21.433.552.847 1.015 1.231.387.3.76.47 1.057.47.088 0 .353 0 .72-.452.256-.316.747-1.105 1.626-3.08l1.112-2.517c.753-1.689 1.448-3.102 2.065-4.202.65-1.16 1.49-2.238 2.497-3.207 1.117-1.076 2.389-1.62 3.782-1.62.869 0 1.608.255 2.196.76.595.513.92 1.2.944 1.996.356-.426.727-.822 1.11-1.186 1.036-.983 2.16-1.481 3.342-1.481.578 0 1.078.152 1.485.451.479.351.743.872.743 1.466 0 .077-.01.154-.03.228l-.11.422a.82.82 0 01-.04.116L64.02 37.99l-1.094 2.567c-.215.519-.406.992-.565 1.413-.203.509-.36.938-.476 1.294-.252.783-.33 1.208-.35 1.429a.47.47 0 00.168.034c.376 0 1.331-.167 3.487-1.282a.89.89 0 01.782-.018.89.89 0 01.496.604l.111.467a.894.894 0 01-.45.996c-1.001.532-1.98.943-2.91 1.224-.96.295-1.881.443-2.737.443z" stroke="white" stroke-width=".995" stroke-miterlimit="10"/><path d="M68.252 46.96c-3.858 0-4.434-2.196-4.434-3.504 0-.653.105-1.307.31-1.948a8.27 8.27 0 01.948-1.931c.812-1.23 1.846-2.173 3.078-2.807.828-.494 1.603-.748 2.324-.748.05 0 .1.003.149.009.473-.503 1.1-.766 1.834-.766.877 0 1.622.385 2.155 1.11.477.657.717 1.534.717 2.61 0 .943-.147 1.83-.436 2.648.04.002.081.002.124.002.532 0 1.015-.09 1.437-.266a.892.892 0 011.206.592l.09.335a.894.894 0 01-.507 1.05c-.69.3-1.38.453-2.048.453-.442 0-.874-.043-1.289-.125-1.386 2.182-3.286 3.287-5.658 3.287zm1.757-6.675a28.85 28.85 0 00-.624 1.504c-.38.996-.575 1.881-.575 2.628 0 .19.036.284.054.306.62-.015 1.365-.968 2.046-2.649a6.11 6.11 0 01-.9-1.79z" fill="white"/><path d="M68.252 46.96c-3.858 0-4.434-2.196-4.434-3.504 0-.653.105-1.307.31-1.948a8.27 8.27 0 01.948-1.931c.812-1.23 1.846-2.173 3.078-2.807.828-.494 1.603-.748 2.324-.748.05 0 .1.003.149.009.473-.503 1.1-.766 1.834-.766.877 0 1.622.385 2.155 1.11.477.657.717 1.534.717 2.61 0 .943-.147 1.83-.436 2.648.04.002.081.002.124.002.532 0 1.015-.09 1.437-.266a.892.892 0 011.206.592l.09.335a.894.894 0 01-.507 1.05c-.69.3-1.38.453-2.048.453-.442 0-.874-.043-1.289-.125-1.386 2.182-3.286 3.287-5.658 3.287zm1.757-6.675a28.85 28.85 0 00-.624 1.504c-.38.996-.575 1.881-.575 2.628 0 .19.036.284.054.306.62-.015 1.365-.968 2.046-2.649a6.11 6.11 0 01-.9-1.79z" stroke="white" stroke-width=".995" stroke-miterlimit="10"/><path d="M75.999 51.209a.891.891 0 01-.84-1.195l1.332-3.712c-.817-.543-.96-1.29-.96-1.749 0-.443.134-1.063.783-1.496a.872.872 0 01-.025-.164l-.044-.736c-.002-1.101.402-2.063 1.197-2.915a8.128 8.128 0 012.11-1.63l.148-.419a.894.894 0 01.668-.578l3.475-.692a.89.89 0 011.043.675l.45-.042a1.18 1.18 0 01.083-.004c1.232 0 2.219.297 2.934.882.772.626 1.164 1.53 1.164 2.685 0 1.826-.937 3.436-2.79 4.803.134.02.263.031.384.031.492 0 1.39-.284 2.872-1.637a.89.89 0 011.278.078l.268.312a.891.891 0 01-.115 1.274c-.397.322-.784.62-1.159.895-.37.272-.73.518-1.07.73-.723.444-1.562.669-2.497.669-.97 0-2.003-.219-3.077-.649a8.949 8.949 0 01-2.2.447l-.825 2.422a.893.893 0 01-.59.567l-3.742 1.112a.954.954 0 01-.255.036zm7.085-7.738a11.2 11.2 0 00.891-1.795c.32-.817.483-1.505.483-2.045 0-.303-.053-.54-.145-.65a.303.303 0 00-.092-.078l-1.526 4.425.389.143z" fill="white"/><path d="M75.999 51.209a.891.891 0 01-.84-1.195l1.332-3.712c-.817-.543-.96-1.29-.96-1.749 0-.443.134-1.063.783-1.496a.872.872 0 01-.025-.164l-.044-.736c-.002-1.101.402-2.063 1.197-2.915a8.128 8.128 0 012.11-1.63l.148-.419a.894.894 0 01.668-.578l3.475-.692a.89.89 0 011.043.675l.45-.042a1.18 1.18 0 01.083-.004c1.232 0 2.219.297 2.934.882.772.626 1.164 1.53 1.164 2.685 0 1.826-.937 3.436-2.79 4.803.134.02.263.031.384.031.492 0 1.39-.284 2.872-1.637a.89.89 0 011.278.078l.268.312a.891.891 0 01-.115 1.274c-.397.322-.784.62-1.159.895-.37.272-.73.518-1.07.73-.723.444-1.562.669-2.497.669-.97 0-2.003-.219-3.077-.649a8.949 8.949 0 01-2.2.447l-.825 2.422a.893.893 0 01-.59.567l-3.742 1.112a.954.954 0 01-.255.036zm7.085-7.738c.342-.555.64-1.156.891-1.795.32-.817.483-1.505.483-2.045 0-.303-.053-.54-.145-.65a.303.303 0 00-.092-.078l-1.526 4.425.389.143z" stroke="white" stroke-width=".995" stroke-miterlimit="10"/><path d="M93.7 46.96c-3.895 0-4.476-1.926-4.476-3.075 0-.859.23-1.887.704-3.144 1.196-3.075 3.37-4.697 6.29-4.697 2.774 0 3.073 1.746 3.073 2.496 0 1.099-.513 2.141-1.525 3.099-.823.777-1.94 1.478-3.328 2.084v.206c0 .333.101.472.19.554.11.095.333.157.632.157 1.202 0 2.447-.44 3.7-1.31a.89.89 0 011.26.251l.223.346a.897.897 0 01-.27 1.235 11.583 11.583 0 01-3.066 1.407 13.05 13.05 0 01-1.582.296 15.2 15.2 0 01-1.824.096z" fill="white"/><path d="M93.7 46.96c-3.895 0-4.476-1.926-4.476-3.075 0-.859.23-1.887.704-3.144 1.196-3.075 3.37-4.697 6.29-4.697 2.774 0 3.073 1.746 3.073 2.496 0 1.099-.513 2.141-1.525 3.099-.823.777-1.94 1.478-3.328 2.084v.206c0 .333.101.472.19.554.11.095.333.157.632.157 1.202 0 2.447-.44 3.7-1.31a.89.89 0 011.26.251l.223.346a.897.897 0 01-.27 1.235 11.583 11.583 0 01-3.066 1.407 13.05 13.05 0 01-1.582.296 15.2 15.2 0 01-1.824.096z" stroke="white" stroke-width=".995" stroke-miterlimit="10"/><path d="M102.475 46.96c-3.858 0-4.433-2.196-4.433-3.504 0-.655.104-1.31.31-1.95.2-.615.518-1.265.947-1.928.812-1.233 1.847-2.176 3.08-2.81.827-.494 1.602-.746 2.321-.746.051 0 .101.002.15.008.472-.502 1.099-.765 1.833-.765.879 0 1.624.384 2.156 1.11.477.655.718 1.533.718 2.61a7.92 7.92 0 01-.435 2.648l.122.001a3.71 3.71 0 001.436-.266.893.893 0 011.206.593l.09.334a.893.893 0 01-.506 1.05c-.69.3-1.379.452-2.048.452-.443 0-.874-.042-1.289-.125-1.385 2.184-3.286 3.289-5.658 3.289zm1.757-6.674c-.213.474-.422.977-.624 1.504-.381.997-.576 1.882-.576 2.627 0 .189.035.281.054.304.621-.013 1.367-.966 2.048-2.647a6.105 6.105 0 01-.902-1.788z" fill="white"/><path d="M102.475 46.96c-3.858 0-4.433-2.196-4.433-3.504 0-.655.104-1.31.31-1.95.2-.615.518-1.265.947-1.928.812-1.233 1.847-2.176 3.08-2.81.827-.494 1.602-.746 2.321-.746.051 0 .101.002.15.008.472-.502 1.099-.765 1.833-.765.879 0 1.624.384 2.156 1.11.477.655.718 1.533.718 2.61a7.92 7.92 0 01-.435 2.648l.122.001a3.71 3.71 0 001.436-.266.893.893 0 011.206.593l.09.334a.893.893 0 01-.506 1.05c-.69.3-1.379.452-2.048.452-.443 0-.874-.042-1.289-.125-1.385 2.184-3.286 3.289-5.658 3.289zm1.757-6.674c-.213.474-.422.977-.624 1.504-.381.997-.576 1.882-.576 2.627 0 .189.035.281.054.304.621-.013 1.367-.966 2.048-2.647a6.105 6.105 0 01-.902-1.788z" stroke="white" stroke-width=".995" stroke-miterlimit="10"/><path d="M119.418 46.894c-1.049 0-1.912-.241-2.563-.718-.729-.533-1.114-1.294-1.114-2.201 0-.493.137-1.025.42-1.627l.114-.294-.015.007c-.101.098-.358.413-.736 1.338-.309.854-.644 1.562-1.011 2.13-.23.388-.481.7-.749.928a.795.795 0 01-.084.064c-.371.247-.852.372-1.431.372-2.634 0-2.918-1.747-2.918-2.498 0-.498.111-1.024.333-1.563l2.016-5.432a.893.893 0 01.681-.569l3.652-.646a.893.893 0 01.99 1.195l-.909 2.405a3.564 3.564 0 011.042.034l.962-2.428a.893.893 0 01.673-.55l3.652-.656a.895.895 0 01.848.312c.205.25.259.59.141.892l-2.516 6.453a6.13 6.13 0 00-.184.574h.044c.152 0 .264 0 .335-.012.052-.013.146-.052.273-.106.158-.066.274-.113.346-.142a8.72 8.72 0 00.543-.302l1.034-.606a.894.894 0 011.194.274l.178.267a.895.895 0 01-.198 1.204c-1.638 1.262-3.334 1.9-5.043 1.9z" fill="white"/><path d="M119.418 46.894c-1.049 0-1.912-.241-2.563-.718-.729-.533-1.114-1.294-1.114-2.201 0-.493.137-1.025.42-1.627l.114-.294-.015.007c-.101.098-.358.413-.736 1.338-.309.854-.644 1.562-1.011 2.13-.23.388-.481.7-.749.928a.795.795 0 01-.084.064c-.371.247-.852.372-1.431.372-2.634 0-2.918-1.747-2.918-2.498 0-.498.111-1.024.333-1.563l2.016-5.432a.893.893 0 01.681-.569l3.652-.646a.893.893 0 01.99 1.195l-.909 2.405a3.564 3.564 0 011.042.034l.962-2.428a.893.893 0 01.673-.55l3.652-.656a.895.895 0 01.848.312c.205.25.259.59.141.892l-2.516 6.453a6.13 6.13 0 00-.184.574h.044c.152 0 .264 0 .335-.012.052-.013.146-.052.273-.106.158-.066.274-.113.346-.142a8.72 8.72 0 00.543-.302l1.034-.606a.894.894 0 011.194.274l.178.267a.895.895 0 01-.198 1.204c-1.638 1.262-3.334 1.9-5.043 1.9z" stroke="white" stroke-width=".995" stroke-miterlimit="10"/><path d="M65.601 44.242l.111.467c-.95.505-1.866.891-2.749 1.158-.883.268-1.711.401-2.482.401-1.01 0-1.79-.19-2.338-.568-.55-.379-.825-.902-.825-1.57 0-.342.075-.78.223-1.315a35.91 35.91 0 01.912-2.539c1.455-3.876 3.074-6.918 4.856-9.13-.877.267-1.89 1.242-3.04 2.928a47.261 47.261 0 00-3.173 5.4 125.32 125.32 0 00-1.292 2.717c-.386.846-.75 1.67-1.091 2.472l-4.008 1.27 5.34-14.366.11-.377c0-.179-.11-.281-.334-.312-.34 0-.75.413-1.232 1.237a25.76 25.76 0 00-1.322 2.595l-1.61 3.582a24.329 24.329 0 01-1.403 2.737 22.722 22.722 0 01-1.78 2.558c-1.29 1.653-2.648 2.48-4.072 2.48-.699 0-1.358-.217-1.98-.65-.342-.179-.595-.965-.758-2.355 0-.179.036-.27.112-.27.117 0 .222.128.312.383.266.569.69 1.092 1.268 1.572.58.45 1.122.674 1.628.674.518 0 .99-.26 1.412-.781.424-.52 1.007-1.613 1.75-3.278l1.112-2.521c.743-1.665 1.418-3.04 2.027-4.126a12.925 12.925 0 012.337-3c.95-.915 2.005-1.371 3.162-1.371.653 0 1.191.181 1.615.545.423.364.634.835.634 1.414 0 .431-.051.758-.155.98l-3.43 8.64 1.47-2.894c.875-1.796 1.667-3.266 2.372-4.41.705-1.142 1.491-2.127 2.36-2.95.869-.824 1.777-1.236 2.728-1.236.385 0 .704.093.956.278a.878.878 0 01.38.748l-.112.422-2.404 5.768-1.091 2.561a46.212 46.212 0 00-.58 1.448c-.209.52-.372.965-.49 1.336-.268.832-.402 1.44-.402 1.827 0 .223.105.415.313.579.251.148.505.223.756.223.818 0 2.116-.46 3.897-1.381z" fill="#00100F"/><path d="M76.802 42.192l.09.335c-.58.252-1.145.378-1.693.378-.608 0-1.18-.09-1.715-.267-1.247 2.286-2.991 3.43-5.232 3.43-2.36 0-3.542-.871-3.542-2.613 0-.565.09-1.123.268-1.674.178-.55.46-1.123.847-1.72.727-1.1 1.639-1.934 2.737-2.499.727-.432 1.366-.647 1.916-.647.134 0 .207.052.222.156l-.8 1.407c-.476.892-.926 1.89-1.348 2.99-.422 1.103-.634 2.085-.634 2.948 0 .373.084.663.254.87a.81.81 0 00.658.314c1.159 0 2.189-1.225 3.095-3.675-.847-1.01-1.269-2.108-1.269-3.295 0-.773.16-1.377.479-1.817.319-.436.76-.656 1.326-.656.591 0 1.07.25 1.436.745.361.499.544 1.193.544 2.083 0 1.218-.267 2.31-.802 3.274.357.179.818.268 1.382.268.652 0 1.247-.11 1.78-.335zm-4.653-.846c.207-1.113.313-1.967.313-2.56 0-.683-.061-1.195-.18-1.538-.09-.341-.245-.526-.466-.556-.18 0-.34.15-.48.445-.14.298-.212.632-.212 1.002 0 .506.089 1.062.268 1.67.177.61.43 1.122.757 1.537z" fill="#00100F"/><path d="M80.542 37.489l3.474-.691-.267.802 1.67-.156c1.025 0 1.815.227 2.37.68.558.453.836 1.118.836 1.993 0 1.947-1.306 3.618-3.919 5.015.921.476 1.72.713 2.406.713.949 0 2.108-.624 3.473-1.87l.267.311a30.38 30.38 0 01-1.124.869c-.364.268-.703.497-1.013.69-.58.357-1.255.535-2.026.535-.95 0-1.968-.239-3.052-.713a7.984 7.984 0 01-2.871.535l-1.025 3.002-3.742 1.112 1.605-4.471c-.787-.253-1.18-.683-1.18-1.292 0-.741.698-1.113 2.093-1.113l1.601-4.721c-1.408.98-2.388 2.353-2.938 4.12l-.044-.736c0-.817.318-1.567.958-2.251a7.16 7.16 0 012.18-1.605l.268-.758zm-2.182 6.308a.995.995 0 00-.734.288.942.942 0 00-.29.69c0 .313.141.558.424.736l.6-1.715zm2.516 2.048c.653 0 1.292-.2 1.916-.602l-.758-.4-.69-.334-.468 1.336zm.69-1.982l1.87.69a11.816 11.816 0 001.37-2.55c.364-.928.545-1.718.545-2.371 0-.535-.119-.943-.356-1.225a1.137 1.137 0 00-.912-.423h-.49l-2.026 5.88z" fill="#00100F"/><path d="M99.47 44.063l.222.346c-.935.599-1.878 1.032-2.828 1.3-.475.12-.957.21-1.448.27-.49.06-1.061.089-1.715.089-2.39 0-3.584-.727-3.584-2.182 0-.743.215-1.685.645-2.829 1.068-2.746 2.887-4.12 5.456-4.12 1.453 0 2.181.535 2.181 1.604 0 .846-.414 1.663-1.246 2.45-.831.787-1.997 1.484-3.495 2.093-.06.267-.099.43-.112.49v.356c0 .505.155.907.468 1.203.31.267.727.4 1.246.4 1.393 0 2.797-.49 4.21-1.47zm-5.77-1.492c.655-.517 1.39-1.308 2.206-2.372.816-1.064 1.225-1.908 1.225-2.53 0-.31-.18-.464-.536-.464-.533 0-1.088.64-1.658 1.917-.57 1.28-.982 2.428-1.236 3.45z" fill="#00100F"/><path d="M111.024 42.192l.09.335c-.58.252-1.144.378-1.692.378-.61 0-1.18-.09-1.715-.267-1.246 2.286-2.991 3.43-5.232 3.43-2.361 0-3.541-.871-3.541-2.613 0-.565.09-1.123.268-1.674.177-.55.46-1.123.846-1.72.726-1.1 1.639-1.934 2.739-2.499.727-.432 1.364-.647 1.913-.647.135 0 .207.052.224.156l-.802 1.407c-.475.892-.924 1.89-1.348 2.99-.422 1.103-.635 2.085-.635 2.948 0 .373.085.663.256.87a.813.813 0 00.658.314c1.157 0 2.189-1.225 3.095-3.675-.847-1.01-1.27-2.108-1.27-3.295 0-.773.16-1.377.478-1.817.319-.436.761-.656 1.326-.656.593 0 1.072.25 1.435.745.364.499.547 1.193.547 2.083 0 1.218-.267 2.31-.802 3.274.357.179.815.268 1.382.268.653 0 1.246-.11 1.78-.335zm-4.653-.846c.207-1.113.312-1.967.312-2.56 0-.683-.06-1.195-.179-1.538-.088-.341-.244-.526-.466-.556-.18 0-.339.15-.479.445a2.315 2.315 0 00-.213 1.002c0 .506.09 1.062.268 1.67.177.61.429 1.122.757 1.537z" fill="#00100F"/><path d="M116.969 42.727l.58-1.492a4.456 4.456 0 00-.98-.135 1.46 1.46 0 00-.846.245c-.327.268-.668.84-1.025 1.715-.296.817-.607 1.477-.934 1.982-.194.327-.387.572-.579.735-.224.149-.536.223-.936.223-1.351 0-2.026-.535-2.026-1.605 0-.386.09-.794.266-1.225l2.027-5.46 3.651-.646-3.05 8.067v.223l.178-.044.089-.111c.236-.431.529-1.17.88-2.216.349-1.047.747-1.734 1.192-2.06.251-.179.6-.268 1.045-.268.119 0 .283.015.491.044.208.03.446.067.712.111l1.224-3.092 3.653-.656-2.517 6.454c-.179.492-.267.821-.267.986 0 .538.318.806.958.806.253 0 .427-.011.523-.032.097-.023.242-.075.434-.156s.313-.13.358-.146a9.73 9.73 0 00.643-.356l1.025-.6.178.267c-1.485 1.143-2.983 1.715-4.498 1.715-.861 0-1.539-.182-2.037-.546-.497-.363-.748-.856-.748-1.48.001-.356.114-.771.336-1.247z" fill="#00100F"/></svg>